<?xml version="1.0" encoding="UTF-8" standalone="no"?>
<svg width="327px" height="254px" viewBox="0 0 327 254" version="1.1" xmlns="http://www.w3.org/2000/svg" xmlns:xlink="http://www.w3.org/1999/xlink">
    <!-- Generator: Sketch 40.2 (33826) - http://www.bohemiancoding.com/sketch -->
    <title>Artboard</title>
    <desc>Created with Sketch.</desc>
    <defs></defs>
    <g id="Page-1" stroke="none" stroke-width="1" fill="none" fill-rule="evenodd">
        <g id="Artboard">
            <g id="grist-logo" transform="translate(10.000000, 3.000000)">
                <path d="M175.029674,167.620579 C175.029674,168.676849 175.267062,169.146302 175.860534,169.733119 L182.982196,177.4791 C183.694362,178.18328 184.881306,179.356913 184.881306,179.94373 C184.881306,180.765273 184.050445,181 183.338279,181 L156.038576,181 C155.207715,181 154.732938,180.530547 154.732938,179.474277 L154.732938,49.4356913 C154.732938,48.3794212 154.732938,47.5578778 154.25816,47.0884244 L146.068249,37.9340836 C145.593472,37.4646302 145,36.6430868 145,36.0562701 C145,35.2347267 145.474777,35 146.543027,35 L183.456973,35 C184.287834,35 185,35.2347267 185,36.0562701 C185,36.5257235 184.525223,37.3472669 183.931751,37.9340836 L175.74184,47.0884244 C175.267062,47.5578778 175.267062,48.3794212 175.267062,49.4356913 L175.267062,167.620579" id="Shape" fill="#111111"></path>
                <path d="M22.1538257,107.869381 C22.1538257,161.239424 26.7495661,168.746419 33.584257,168.746419 C39.9475899,168.746419 44.7790094,157.251333 44.7790094,139.422219 L44.7790094,107.752084 L44.7790094,76.0819488 C44.7790094,58.2528356 39.9475899,46.7577494 33.584257,46.7577494 C26.7495661,46.8750462 22.1538257,54.3820413 22.1538257,107.869381 L22.1538257,107.869381 Z M14.7299373,214.49217 C17.9116038,221.647274 21.9181467,227.629411 25.2176527,230.796425 C31.5809856,236.778561 42.0687009,238.772607 44.5433304,222.233758 C45.8395649,213.671092 44.6611699,177.309085 44.6611699,171.678839 L44.1898119,171.678839 C39.9475899,177.191788 34.998331,181.649067 26.6317266,181.649067 C15.0834558,181.649067 0,175.080446 0,101.30076 C0,42.7696583 16.2618508,35.1453665 28.6349981,35.1453665 C35.941047,35.1453665 42.0687009,41.0102064 46.0752439,46.1712654 L46.5466019,46.1712654 L59.5089467,37.0221152 C60.3338232,36.5529281 61.8657366,35.2626633 63.0441316,35.0280697 C63.8690081,34.9107729 65.1652426,35.0280697 64.9295636,38.0777864 L64.9295636,150.917306 C64.6938846,165.579405 66.2257981,210.386782 61.7478971,228.685082 C56.6807987,248.977428 40.3011084,252.261739 28.9885166,246.396899 C12.2553078,237.716936 10.0163574,216.720809 9.89851786,213.553795 C9.89851786,212.498124 9.54499937,210.034892 11.3125918,210.034892 C12.4909868,210.034892 14.2585793,213.319202 14.7299373,214.49217 L14.7299373,214.49217 Z" id="Shape" fill="#111111"></path>
                <path d="M269.265532,154.621397 L269.265532,50.9547785 C269.265532,49.9005417 269.265532,48.3777552 268.435441,47.5577933 L259.541599,38.0696621 C259.067261,37.6011124 258,36.664013 258,36.0783259 C258,34.3212646 260.964614,34.9069517 263.099136,34.5555394 C268.791194,33.6184401 273.415992,29.4014929 275.313344,20.1476366 C276.973528,11.948017 277.329282,4.68549687 277.447866,2.34274844 C277.566451,1.0542368 278.277958,0 279.582388,0 L288.001891,0 C289.069152,0 289.543491,0.468549687 289.543491,1.87419875 L289.543491,31.8613787 C289.543491,33.1498904 289.78066,34.2041272 291.678013,34.2041272 L299.148839,34.2041272 C300.453269,34.2041272 301.283361,35.6097762 299.148839,37.7182498 L291.678013,45.6835945 C290.136413,47.3235184 289.543491,48.1434804 289.543491,50.0176791 L289.543491,160.361131 C289.543491,160.361131 289.187737,165.749452 291.559428,167.740788 C294.761211,170.317811 298.437332,169.146437 300.690438,167.389376 C303.892221,164.92949 305.196651,161.76678 306.145328,161.883917 C307.331173,162.001054 306.97542,163.406703 306.856835,164.226665 C305.67099,170.669224 297.60724,181.563004 286.460292,180.977317 C269.265532,180.040217 269.265532,163.172429 269.265532,154.621397 L269.265532,154.621397 Z" id="Shape" fill="#111111"></path>
                <path d="M247.043777,87.5240551 C246.926027,88.6962133 246.337277,89.1650765 245.277526,89.0478607 C243.982276,88.9306449 244.100026,87.7584868 243.864526,86.4691128 C242.333775,78.3812218 240.685274,66.6596405 237.506022,58.9233969 C233.62027,49.4289161 229.145768,45.9124417 224.200265,46.1468733 C218.430512,46.381305 215.01576,51.3043691 215.48676,61.0332815 C216.07551,72.0515679 222.198514,87.1724077 232.442769,104.051485 C243.158025,121.868288 250.340779,136.637481 249.987529,153.633773 C249.752029,171.216145 238.919023,182 225.731016,182 C218.430512,182 211.836508,177.663015 207.833006,172.739951 C207.833006,172.739951 203.829504,177.076936 201.239002,179.7729 C200.414752,180.59341 199.708251,181.648353 198.413001,181.179489 C197.942001,180.945058 197.58875,180.358979 197.58875,179.304036 L197.58875,129.135669 C197.58875,127.846295 197.82425,126.556921 199.001751,126.439705 C201.121252,126.205273 201.121252,128.432374 201.356752,129.721748 C205.595755,150.93781 213.720509,172.622735 223.376014,172.271088 C230.441018,172.036656 232.325019,163.597117 232.089519,158.322406 C231.265269,142.146624 220.550013,126.205273 212.896259,112.256592 C202.769753,93.853709 197,78.4984376 197,62.5570871 C197,45.5607943 209.481507,35.3630186 218.901512,35.0113712 C225.495516,34.7769395 232.207269,38.1761981 236.681772,44.3886362 L243.746776,36.6523925 C244.217776,36.1835293 245.159776,35.5974502 245.866277,35.8318818 C246.690527,36.1835293 246.926027,37.1212558 246.926027,38.4106297 L247.043777,87.5240551 L247.043777,87.5240551 L247.043777,87.5240551 L247.043777,87.5240551 Z" id="Shape" fill="#111111"></path>
                <path d="M120.051823,181 C121.105566,181 121.573896,180.765686 121.573896,179.945586 C121.573896,179.476957 121.339731,178.891171 120.520154,178.071071 L112.441459,168.932814 C111.973129,168.464186 111.856046,167.644086 111.856046,166.589672 L111.856046,77.7845581 C111.856046,65.4830582 112.324376,59.3908868 115.71977,54.3531297 C118.646833,50.486944 122.159309,48.9639012 126.140115,48.7295869 C132.696737,48.2609583 136.794626,51.8928297 139.721689,58.9222582 C140.190019,60.2109868 140.658349,61.9683439 141.712092,61.9683439 C142.765835,61.9683439 143,60.9139297 143,59.6252011 C143,51.307044 139.370441,35.607987 128.715931,35.0222013 C120.988484,34.5535728 116.071017,41.5830013 112.441459,48.6124298 L111.973129,48.6124298 L111.973129,36.8967156 C111.973129,35.8423013 111.504798,35.3736727 110.685221,35.3736727 L83.5220729,35.3736727 C82.4683301,35.3736727 82,35.607987 82,36.428087 C82,36.8967156 82.2341651,37.7168156 83.0537428,38.5369156 L90.4299424,46.5036012 C91.2495202,47.3237012 91.6007678,48.1438012 91.6007678,49.1982155 L91.6007678,166.589672 C91.6007678,167.644086 91.6007678,168.464186 91.1324376,168.932814 L83.0537428,178.071071 C82.2341651,178.774014 82,179.3598 82,179.945586 C82,180.765686 82.4683301,181 83.5220729,181 L120.051823,181 L120.051823,181 Z" id="Shape" fill="#111111"></path>
                <path d="M154,215.5 C154,207.425532 159.097938,199 165.381443,199 C172.020619,199 177,207.425532 177,215.5 C177,223.925532 171.902062,232 165.381443,232 C159.097938,232 154,223.925532 154,215.5" id="Shape" fill="#FF6600"></path>
            </g>
        </g>
    </g>
</svg>