<?xml version="1.0" encoding="UTF-8" standalone="no"?>
<svg width="111px" height="50px" viewBox="0 0 111 50" version="1.1" xmlns="http://www.w3.org/2000/svg" xmlns:xlink="http://www.w3.org/1999/xlink">
    <!-- Generator: Sketch 40.2 (33826) - http://www.bohemiancoding.com/sketch -->
    <title>Shape</title>
    <desc>Created with Sketch.</desc>
    <defs></defs>
    <g id="Page-1" stroke="none" stroke-width="1" fill="none" fill-rule="evenodd">
        <path d="M47.4589844,43.0058594 L44.0214844,42.1513672 C44.0083008,42.1464844 43.9960938,42.140625 43.9809571,42.1347656 C43.5698243,41.9980468 43.322754,41.7060547 43.322754,41.2226562 C43.322754,41.2089843 43.3208009,41.2011718 43.3198243,41.1894531 L43.3198243,24.7553711 C43.3198243,11.2587891 32.3500977,8.3422852 25.1743165,8.3422852 C21.8212892,8.3422852 17.6777345,9.209961 14.1416017,11.2583008 L13.2612306,9.1147461 L0,10.5429688 L0,15.7451172 L5.8774414,16.75 C6.1982422,16.8837891 6.4018555,17.1230469 6.4414062,17.4931641 L6.4414062,27.4960938 L6.4511718,27.484375 L6.4511718,41.2294922 C6.4511718,41.2324219 6.4506835,41.2333984 6.4506835,41.2363281 C6.4506835,41.7197265 6.2036132,42.0117187 5.7924804,42.149414 C5.7617187,42.1601562 5.7368163,42.1708984 5.7143554,42.180664 L2.4648437,43.0058593 L2.4648437,49.1660155 L3.1557617,49.1660155 L6.4511719,49.1660155 L17.503418,49.1660155 L21.2529297,49.1660155 L21.2529297,43.0058593 L18.1098633,42.1279296 C17.7319336,41.9824218 17.5053711,41.6982421 17.5053711,41.236328 C17.5053711,41.2275389 17.5039063,41.2226561 17.503418,41.2148436 L17.503418,24.5053711 C17.503418,17.5073242 23.8139649,17.5073242 25.1420899,17.5073242 L25.1450196,17.5073242 L25.1743165,17.5073242 C26.3178712,17.5073242 28.3989259,17.7138672 30.0273438,18.8911133 C31.34375,19.8369141 32.3652344,21.4082031 32.3652344,24.0053711 L32.3652344,34.2675781 L32.362793,34.2675781 L32.362793,41.1328125 C32.3579102,41.1582031 32.3544922,41.1875 32.3544922,41.2226563 C32.3544922,41.7060547 32.1079102,41.9980469 31.6967774,42.1347657 C31.6938477,42.1367188 31.6918946,42.1367188 31.6899415,42.1386719 L28.5834962,43.0058594 L28.5834962,49.1660156 L32.3652345,49.1660156 L43.3198243,49.1660156 L46.7680665,49.1660156 L47.4589845,49.1660156 L47.4589845,43.0058594 L47.4589844,43.0058594 Z M57.5727539,24.5053711 C57.5727539,17.5073242 63.8413086,17.5073242 65.1611328,17.5073242 C67.2231445,17.5073242 72.3364258,18.1733398 72.3364258,24.0053711 L72.3364258,24.53125 L57.5727539,24.5053711 L57.5727539,24.5053711 Z M57.5727539,32.9199219 L83.3071289,32.9199219 L83.3071289,24.7553711 C83.3071289,11.2587891 72.3364258,8.3422852 65.1611328,8.3422852 C57.7373047,8.3422852 46.4375,12.0083008 46.4375,23.921875 L46.4375,34.3359375 C46.4375,46.25 57.9848633,50 65.4082031,50 C74.399414,50 79.3349609,47.1914062 82.9643554,45.0253906 L82.9643554,38.5019531 L72.9140624,38.5019531 C72.9140624,38.5019531 70.0268554,41.2519531 65.408203,41.2519531 C64.0883788,41.2519531 57.5727538,40.7519531 57.5727538,33.7539062 L57.5727538,32.9199219 L57.5727539,32.9199219 Z M98.6269531,38.3359375 L98.6269531,17.4291992 L108.957031,17.4291992 L108.957031,9.1757812 L98.6269531,9.1757812 L98.6269531,0 L87.3789062,1.2070312 L87.3789062,9.1757812 L83.6201171,9.1757812 L83.6201171,17.4291992 L87.3789062,17.4291992 L87.3789062,38.5019531 C87.3789062,49.4160156 97.3769531,49.4160156 100.792969,49.4160156 C105.375,49.4160156 110.623047,46.9160156 110.623047,46.9160156 L110.623047,39.4179687 L104.708984,39.4179687 C104.708984,39.4179687 103.708984,40.6679687 101.125,40.6679687 C99.4589844,40.6679688 98.6269531,40.0019531 98.6269531,38.3359375 L98.6269531,38.3359375 Z" id="Shape" fill="#333333"></path>
    </g>
</svg>