<svg xmlns="http://www.w3.org/2000/svg" xmlns:xlink="http://www.w3.org/1999/xlink" width="69.1" height="97" viewBox="0 0 69.1 97"><defs><path id="a" d="M32.3 46.5l-.1-2.1-1.9-.1L29 46l-.2 1.4s.5.5.7.4 1.2.2 1.4.1c.3-.1 1.4-1.4 1.4-1.4z"/></defs><use xlink:href="#a" overflow="visible" fill="#2A2F36"/><clipPath id="b"><use xlink:href="#a" overflow="visible"/></clipPath><path opacity=".45" clip-path="url(#b)" fill="#4398DA" d="M32.4 45l-1.9 1.4-3.4-.7 2.3-2.1 3.8.2z"/><defs><path id="c" d="M33.7 46.5l.1-2.1 1.9-.1L37 46l.2 1.4s-.5.5-.7.4c-.2-.1-1.2.2-1.4.1-.2-.1-1.4-1.4-1.4-1.4z"/></defs><use xlink:href="#c" overflow="visible" fill="#2A2F36"/><clipPath id="d"><use xlink:href="#c" overflow="visible"/></clipPath><path opacity=".45" clip-path="url(#d)" fill="#4398DA" d="M34.8 44.8l1.2 1.1-.5.9-.4 1.3s-.6 0-.8-.3l-1-1.5.2-1.7 1.3.2z"/><defs><path id="e" d="M29.5 34.9s-.1 4.1-.1 5.5-.2 4 0 4.3 2.7 1 2.9-.1c.2-1.1.1-6.8.1-6.8s.3.2.8 0c0 0 .2 7.4.5 7.4s2.9.2 2.9-.6-.6-6.3-.6-7.2c0-.9-.1-2.8-.1-2.8l-6.4.3z"/></defs><use xlink:href="#e" overflow="visible" fill="#3498DB"/><clipPath id="f"><use xlink:href="#e" overflow="visible"/></clipPath><g clip-path="url(#f)"><path fill="#3B7194" d="M36.4 37.7s-.2.1-.5.1c-.2 0-.4-.1-.6-.3-.2-.1-.3-.3-.5-.6-.3-.4-.4-.9-.5-1.2-.1-.3-.1-.5-.1-.5s.1.2.2.5.3.7.5 1.1c.2.4.6.7.9.8.4.1.6 0 .6.1z"/></g><g clip-path="url(#f)"><path fill="#3B7194" d="M29 38c0-.1.6-.5 1.2-1.2.3-.4.5-.7.6-1 .1-.3.2-.5.2-.5s0 .2-.1.5-.3.7-.6 1.1c-.3.4-.7.7-.9.8-.2.3-.3.4-.4.3z"/></g><path opacity=".45" clip-path="url(#f)" fill="#4398DA" d="M36.5 36l-6.3.6s-.4 7.6.4 8.4c.8.7-2.1.5-2.1.5l-.8-8 1.3-3.4 5.9.3 2.5.3-.9 1.3z"/><path opacity=".45" clip-path="url(#f)" fill="#4398DA" d="M33.7 37.4s.4 6.8.7 6.9 2.7-.2 2.8-.6.5 1.3.5 1.3l-2.2.8-2.4-.4-.2-7.6s.3.1.8-.4z"/><defs><path id="g" d="M36.9 31.2s1.3 2.9 1.1 6.1c0 0-1.3.4-1.1.8S38 38 38 38s-.4 2.1-.1 2.2c.3.1.6-1.7.6-1.7s.2 1.3.5 1.3c.4 0 .1-1.4.1-1.4s.7 1.2 1 .9-.6-1.3-.6-1.3 1 .4 1 0c0-.5-1.3-1-1.8-1.1 0 0 .2-3.5-1.3-6s-.5.3-.5.3z"/></defs><use xlink:href="#g" overflow="visible" fill="#ECC19C"/><clipPath id="h"><use xlink:href="#g" overflow="visible"/></clipPath><path opacity=".45" clip-path="url(#h)" fill="#ECB789" d="M38.4 31.7l-.7.7s.8 2.4.5 4.9l-.3.1-1.6-5.6 1.2-.9.9.8z"/><defs><path id="i" d="M28.1 30.8s-1.7 2.9-2.3 2.8c-.5-.2-1.4-1.2-1.4-1.2s1.1-1 .7-1.4c-.4-.4-1.1.8-1.1.8s-1-1.6-1.5-1.3c-.5.3.8 1.4.8 1.4s-1.6-.9-1.8-.2c-.2.6 1.7.9 1.7.9s-1.6 0-1.6.4 1.4.1 1.4.1-1 .4-.8.6c.2.2 1.4-.1 1.5-.3 0 0 1.7 1.7 2.5 1.2.7-.6 2.8-3.2 2.8-3.2l-.9-.6z"/></defs><use xlink:href="#i" overflow="visible" fill="#ECC19C"/><clipPath id="j"><use xlink:href="#i" overflow="visible"/></clipPath><path opacity=".45" clip-path="url(#j)" fill="#ECB789" d="M23.8 33.3l.2-.3s1.3 1.7 2.1 1.1c.7-.6 1.7-1.9 1.7-1.9l-.4-1.3 2.4-.1-.1 1.4-1.7 2.9-1.5.8-2-.6-.7-2z"/><defs><path id="k" d="M35.9 32.1s1.9-.2 2.3-1.1c.4-.9-1.8-3.5-1.8-3.5l-1.4 1 .9 3.6z"/></defs><use xlink:href="#k" overflow="visible" fill="#D14226"/><clipPath id="l"><use xlink:href="#k" overflow="visible"/></clipPath><path opacity=".45" clip-path="url(#l)" fill="#D14226" d="M37.8 28.7l-1.1.7.4 2.7-1.9 1-.7-4.8 2.7-1.3z"/><defs><path id="m" d="M29.4 31.9s-2.7-1.1-2.6-1.7 2.6-2.5 2.6-2.5l.7.8-.7 3.4z"/></defs><use xlink:href="#m" overflow="visible" fill="#D14226"/><clipPath id="n"><use xlink:href="#m" overflow="visible"/></clipPath><path opacity=".45" clip-path="url(#n)" fill="#D14226" d="M29 28l-.5 2.6s-1.1-.6-1.4-1.2c-.4-.6-1.1 1.5-1.1 1.5l1.8 1.6 3.1-.6-1-4.3-.9.4z"/><defs><path id="o" d="M29.3 28.2s-.7 7-.4 7.3c.3.2 6.6.4 7.3-.2 0 0 0-6.7-.2-7.5-.3-.8-6.7.4-6.7.4z"/></defs><use xlink:href="#o" overflow="visible" fill="#FF512E"/><clipPath id="p"><use xlink:href="#o" overflow="visible"/></clipPath><path clip-path="url(#p)" fill="#D14226" d="M30.4 28.4s1.9 3.1 2.1 3c.2-.1 2.4-2.9 2.4-2.9l-4.5-.1z"/><path clip-path="url(#p)" fill="#CCA686" d="M30.9 28.3s1.4 2.4 1.6 2.3c.2-.1 2-2.3 2-2.3h-3.6z"/><path opacity=".45" clip-path="url(#p)" fill="#D14226" d="M36.5 28.8L30 30s-.8 4.9 0 5.1c.8.2 6.6-.1 6.6-.1l-.5 2.6-6.7-1s-2-1-1.8-1.5.6-8 .6-8 6.1.6 6.5.5 1.8 1.2 1.8 1.2z"/><defs><path id="q" d="M45.4 16.6s.9-2.9.1-5.8c0 0 .7.6.9 1.1 0 0 .1-2.7-1.6-4.8 0 0 1.7.3 2.1.5 0 0-1.2-2.4-3.1-3.2 0 0 .6-1.5 1.2-1.8 0 0-2.2.4-2.6 1.7 0 0-1.7-3.4-4.9-4.4 0 0 1.2 2.2.7 3.4 0 0-3-3-7.1-3 0 0 1.2 1.2 1.3 2.1 0 0-3.9-1.6-9.2.1 0 0 1.9.4 2.6 1 0 0-5.5-.1-7.7 3.2 0 0 1.5-.3 2.3 0 0 0-2.3 2.6-2.3 4.3 0 0 1.3-1 1.9-1.2 0 0-1.7 4.5-.7 7.7s26.1-.9 26.1-.9z"/></defs><use xlink:href="#q" overflow="visible" fill="#745A44"/><clipPath id="r"><use xlink:href="#q" overflow="visible"/></clipPath><path opacity=".45" clip-path="url(#r)" fill="#745A44" d="M35.3 10.9s-4.8 0-6.3-3.4-6.1-2.7-10.5-.9c-4.4 1.8-3.8 0-3.8 0l-.3 9.4s3.9 4 4.3 4c.5 0 10.4-2 10.8-2.1.6-.2 5.8-7 5.8-7z"/><path opacity=".45" clip-path="url(#r)" fill="#745A44" d="M33.1 8.8s-.7-1.5.4-1.3c1 .1 5.1 2 8.1 1.3s4.8 1.9 4.8 3.2.3 4.3.3 4.3l-2.6 1-2.9.4-4.8-7.2-3.3-1.7zm-7.2-5.2s1.6.9 2.1.1-4.7-1.1-4.7-1.1l-1.3.8 3.9.2zm6.7-1.2s1.1 1.1 1.8.7S31.3.3 31.3.3l-.7.3 2 1.8zm5.7 1s.3 1.7 1.3 1.6c1-.1-.5-4.3-2-5-1.5-.7-1.2.8-1 .8.1 0 1.7 2.6 1.7 2.6zm4.1 1s-.3.6.1.6c.5.1 1.3-2.1 2.2-2.4.9-.3-1.5-1-1.5-1l-.8 2.8zm2.4 2.8s-.9-.3-.9-.7 2 .1 3 1.2 1 1.4 1 1.4l-3.1-1.9z"/><defs><path id="s" d="M21.1 17.4S20 15.5 19 17s.6 4.8 2.2 4.1c1.4-.8-.1-3.7-.1-3.7z"/></defs><use xlink:href="#s" overflow="visible" fill="#CCA686"/><clipPath id="t"><use xlink:href="#s" overflow="visible"/></clipPath><path opacity=".45" clip-path="url(#t)" fill="#ECB789" d="M19.8 16s.1 3.1.4 4.1c0 0-1.2.5-2.1-.5-.9-1 1.7 3.4 1.9 3.4.1 0 2.7-.7 2.7-.7s-.5-3.3-.4-3.4-1.3-2.4-1.3-2.4l-1.2-.5z"/><defs><path id="u" d="M43.3 17.3s.5-1.6 2.1-1.6 1.5 3.6.3 4.6c-1.3 1-2.1.8-2.4.1-.3-.7 0-3.1 0-3.1z"/></defs><use xlink:href="#u" overflow="visible" fill="#CCA686"/><clipPath id="v"><use xlink:href="#u" overflow="visible"/></clipPath><path opacity=".45" clip-path="url(#v)" fill="#ECB789" d="M44.1 15.7s.2 2.7 0 4.4c0 0 2.3.2 2.7-2.6s.9 3.6.8 3.7-2.9 1.3-2.9 1.3l-2.9-1.2.3-4.7 1.6-1.3.4.4z"/><defs><path id="w" d="M42.6 10.5c1.6 10 3 18.9-11 18.1-14.4-.8-10.9-15.8-10.9-15.8s1.2-4.4 6.6-4.2c0 0 3.9 3.8 8.2 2.2 0 0-1.8-.2-2.4-2.1 0 0 3.1 1.4 6.2 1.6 3.1.2 3.3.2 3.3.2z"/></defs><use xlink:href="#w" overflow="visible" fill="#ECC19C"/><clipPath id="x"><use xlink:href="#w" overflow="visible"/></clipPath><g clip-path="url(#x)" fill="#ECB789"><path opacity=".45" d="M22.3 13.3l.4 1.1s1.7-1.9 3.1-2.4l-.8-1.1s-1.9 1-2.7 2.4z"/><path opacity=".45" d="M43.8 23.3c-1 3.8-9.3 6-16.6 3.3-7.3-2.7-7-14.2-3.8-16.1 1.1-.6 2.1-1 3-1.1.7.8 4.9 4.7 10.2 1.4 0 0 .5.1 1.3.2l-.7 1c1.4.5 3.1 2.4 3.1 2.4l.4-1.1c-.6-1.1-1.8-1.9-2.4-2.2 1.4.2 3.4.4 4.6.3 2-.3.9-2.7.9-2.7l-5-2.2-6.9.4-3 1.4-.4-1.3s-5.2-.6-5.5-.5c-.3.1-3.3 2.4-3.3 2.4l-.9 8 1 9.9L30 31.9l15.6-.8s-.8-11.6-1.8-7.8z"/></g><path fill="#FFF" d="M28.5 18.2c0 1.8-1.4 3.2-3.2 3.2s-3.2-1.4-3.2-3.2 1.4-3.2 3.2-3.2 3.2 1.4 3.2 3.2zm6.4 0c0 1.8 1.4 3.2 3.2 3.2 1.8 0 3.2-1.4 3.2-3.2S39.9 15 38.1 15c-1.8 0-3.2 1.4-3.2 3.2z"/><path fill="#231F20" d="M27.8 18.2c0 .5-.4.9-.9.9s-.9-.4-.9-.9.4-.9.9-.9.9.4.9.9zm8.3 0c0 .5.4.9.9.9s.9-.4.9-.9-.4-.9-.9-.9-.9.4-.9.9z"/><path fill="#A98667" d="M31.2 21.6s-.1.1-.2.1c-.1.1-.3.1-.6.1-.1 0-.3 0-.4-.1-.1-.1-.3-.2-.3-.4-.1-.2-.1-.4 0-.6 0-.1 0-.2.1-.3.1-.1.2-.2.3-.2.3-.1.5 0 .8.1.1 0 .2.1.3.1l.1.1v-.8c0-.2 0-.4.1-.4 0 0 0 .1.1.4v1.1c-.1 0-.2-.1-.3-.1-.1 0-.1 0-.1-.1-.1 0-.2-.1-.3-.1-.2-.1-.4-.1-.6-.1-.2 0-.2.2-.3.3v.4c.1.3.4.4.6.4.2 0 .4 0 .6-.1 0 .2.1.2.1.2z"/><path fill="#DE888B" d="M31.4 25.9c.4.3.9.5 1.6.5.7 0 1.2-.2 1.6-.6-.4-.2-.9-.4-1.6-.4-.9.1-1.4.3-1.6.5z"/><path fill="#FFF" d="M35.5 24.2c.2-.5.2-1 .2-1-1.9 1.7-5.7.5-5.7.5s.1.4.3.9c1.2.4 3.7 1 5.2-.4z"/><path fill="#63413E" d="M35.5 24.2c-1.6 1.3-4.1.8-5.2.5.2.4.5.9 1 1.2.3-.2.7-.4 1.6-.4.7 0 1.2.2 1.6.4.6-.5.9-1.1 1-1.7z"/><path fill="#745A44" d="M22.3 12.9c.8-1.4 2.7-2.4 2.7-2.4l.8 1.1c-1.4.5-3.1 2.4-3.1 2.4l-.4-1.1zm18.4 0c-.8-1.4-2.7-2.4-2.7-2.4l-.8 1.1c1.4.5 3.1 2.4 3.1 2.4l.4-1.1z"/><defs><path id="y" d="M31.1 47.6s.2-1.9-1.7-1.9c-1.7-.1-1.8 2.5-.9 2.7.9.2 2.8.6 3.9-1.3v-.6l-1.3 1.1z"/></defs><use xlink:href="#y" overflow="visible" fill="#E6E7E8"/><clipPath id="z"><use xlink:href="#y" overflow="visible"/></clipPath><path opacity=".45" clip-path="url(#z)" fill="#D1D3D4" d="M29.7 45.4s-1 1.1-.7 2.5c.4 1.3 3.5-.4 3.5-1.4 0-1 .1 3 .1 3l-3.3.1-1.7-1.5L27 46l1.2-1.4 1.5.8z"/><defs><path id="A" d="M35 47.6s-.2-1.9 1.7-1.9c1.7-.1 1.8 2.5.9 2.7-.9.2-2.8.6-3.9-1.3v-.6l1.3 1.1z"/></defs><use xlink:href="#A" overflow="visible" fill="#E6E7E8"/><clipPath id="B"><use xlink:href="#A" overflow="visible"/></clipPath><path opacity=".45" clip-path="url(#B)" fill="#D1D3D4" d="M36.8 45.4s-1.3.7-1 2.6c0 0 2.4.2 2.7-.7.4-.9.1 1.7.1 1.7l-2.9.6-1.9-1-.9-2.2.7-1.2 3.2.2z"/><path fill="#3B7194" d="M33.8 37.3v.1c0 .1-.1.2-.2.2s-.1.1-.2.1-.1.1-.2.1h-.6c-.4-.1-.7-.3-.9-.4l-.3-.3s.1.1.4.2c.2.1.5.3.9.4.4.1.7 0 .9-.2.1-.1.2-.1.2-.2z"/><path fill="#A98667" d="M44.4 19.4s-.1-.2-.2-.5c0-.1-.1-.3-.1-.5v-.7c0-.1.1-.2.1-.3 0-.1.1-.1.1-.1l.1-.1c.1-.1.2-.1.3-.1h.3c.2.1.2.2.2.3v.1l-.1-.1c0-.1-.1-.2-.2-.2h-.2c-.1 0-.1.1-.2.1-.1.1-.2.3-.3.5 0 .2-.1.4 0 .6v.5c.2.4.2.5.2.5z"/><path d="M11.6 53.4c1.1.3 2.4.5 3.4 1.1 1.4.8 2.9 1.7 4.1 2.7 1 .9 1.4 2.3.9 3.7-.1.4-.2.9-.1 1.3.8 3-.7 5.5-2.2 7.9-2.1 3.1-6.9 4.4-10.1 3.1-1.3-.5-1.7-1.5-1.2-2.6.8-1.6.5-3.2.3-4.9-.5-3.9-.9-7.7-1.7-11.5-.6-3.3-1.6-6.4-2.4-9.7-.6.3-1.3.7-2.1 1.1-.9-1.4-.7-2.4.4-3.2C4.3 40.1 8 39.5 12 39.8c1.7.1 3.8 3.2 3.8 5-.1 3.4-1.5 6.1-4.2 8.2v.4zm5.4 9.3c.1-3.3-.6-4.2-3.9-5.1-.6-.2-1.2-.3-1.8-.4-2-.5-2.7.1-2.5 2.1.1 1.3.3 2.6.4 3.9.2 1.7.3 3.5.6 5.2.3 1.6.9 1.8 2.5 1.2 3.2-1.2 4.6-3.6 4.7-6.9zM7.5 53c2.5-1.2 4.7-3.6 5.3-5.5.7-2.2-1-5.3-2.8-5.1-1.1.1-2.1.5-3.2.5-.9.1-1.1.5-1 1.2.5 3 1.1 5.9 1.7 8.9zm50.6 10.4c.2-.4.4-.6.5-.9 1.6-3.6 3.3-7.2 4.8-10.8.4-1 .6-2.1 1-3.1.6-1.8 1.6-2.6 3-2.6 1.5 0 2.1.9 1.6 2.2l-.3.6c-2.8 6.1-5.5 12.2-8.3 18.3-.8 1.8-1.7 3.5-2.4 5.2-2.5 6.5-4.5 13.1-7.6 19.3-.5 1.1-.7 2.3-.9 3.5-.2 1.2-1.2 2.1-2.2 1.9-1.1-.3-1.6-1.2-1.3-2.3.7-2.3 1.4-4.6 2.3-6.9 2.7-6.7 5.4-13.3 8.1-20 .2-.5.1-1.4-.2-1.9-1.6-2.7-3.2-5.3-4.9-7.9-.9-1.3-2-2.5-3-3.8-1.2-1.7-.7-3.6 1.1-4.2 1-.3 1.4 0 1.9.9 2.1 3.9 4.2 7.9 6.3 11.8-.1.1.1.2.5.7zM44 59.5c.5 3.6-1.6 5.9-4.2 7.9-2.7 2-9 2.1-11.6-1.2-2.8-3.5-5.2-7-4-11.9 1.1-4.5 3.7-6.9 8.2-7.3.9-.1 1.9.1 2.8.4 1.7.6 3.5 1.3 5.1 2.2 2.8 1.5 3.4 4.3 3.7 7.2.1.9 0 1.8 0 2.7zm-10.2 5.8c7-.4 8.2-5.1 7.1-9.8-2-1.9-3.5-4.3-6.2-5.3-1.9-.7-6.1.9-6.6 2.7-.8 2.4-1.2 4.9.1 7.3 1.2 2.9 3 5.1 5.6 5.1z" fill="#3C3F42"/></svg>