<svg width="327" height="254" viewBox="0 0 327 254" xmlns="http://www.w3.org/2000/svg"><title>Artboard</title><g fill="none" fill-rule="evenodd"><path d="M185.03 170.62c0 1.057.237 1.526.83 2.113l7.122 7.746c.712.704 1.9 1.878 1.9 2.465 0 .821-.832 1.056-1.544 1.056h-27.3c-.83 0-1.305-.47-1.305-1.526V52.436c0-1.057 0-1.878-.475-2.348l-8.19-9.154c-.475-.47-1.068-1.29-1.068-1.878 0-.821.475-1.056 1.543-1.056h36.914c.83 0 1.543.235 1.543 1.056 0 .47-.475 1.291-1.068 1.878l-8.19 9.154c-.475.47-.475 1.291-.475 2.348V170.62M32.154 110.87c0 53.37 4.596 60.876 11.43 60.876 6.364 0 11.195-11.495 11.195-29.324v-63.34c0-17.83-4.831-29.324-11.195-29.324-6.834.117-11.43 7.624-11.43 61.111zM24.73 217.491c3.182 7.155 7.188 13.137 10.488 16.304 6.363 5.983 16.85 7.977 19.325-8.562 1.297-8.563.118-44.925.118-50.555h-.471c-4.242 5.513-9.192 9.97-17.558 9.97C25.083 184.65 10 178.08 10 104.301c0-58.531 16.262-66.156 28.635-66.156 7.306 0 13.434 5.865 17.44 11.026h.472l12.962-9.149c.825-.47 2.357-1.76 3.535-1.994.825-.117 2.121 0 1.886 3.05v112.84c-.236 14.661 1.296 59.469-3.182 77.767-5.067 20.292-21.447 23.577-32.76 17.712-16.733-8.68-18.972-29.676-19.09-32.843 0-1.056-.353-3.52 1.415-3.52 1.178 0 2.946 3.285 3.417 4.458zm254.536-59.87V53.955c0-1.054 0-2.577-.83-3.397l-8.894-9.488c-.475-.469-1.542-1.406-1.542-1.992 0-1.757 2.965-1.171 5.1-1.522 5.691-.938 10.316-5.155 12.213-14.408 1.66-8.2 2.016-15.463 2.135-17.805.118-1.289.83-2.343 2.134-2.343h8.42c1.067 0 1.541.469 1.541 1.874v29.987c0 1.289.238 2.343 2.135 2.343h7.47c1.305 0 2.135 1.406 0 3.514l-7.47 7.966c-1.542 1.64-2.135 2.46-2.135 4.334V163.36s-.355 5.388 2.016 7.38c3.202 2.577 6.878 1.405 9.131-.352 3.202-2.46 4.507-5.622 5.455-5.505 1.186.117.83 1.523.712 2.343-1.186 6.442-9.25 17.336-20.397 16.75-17.194-.937-17.194-17.805-17.194-26.356zm-22.222-67.097c-.118 1.172-.707 1.641-1.766 1.524-1.296-.117-1.178-1.29-1.413-2.579-1.531-8.088-3.18-19.81-6.359-27.546-3.886-9.494-8.36-13.01-13.306-12.776-5.77.234-9.184 5.157-8.713 14.886.589 11.019 6.712 26.14 16.956 43.018 10.715 17.817 17.898 32.586 17.545 49.583C259.752 174.216 248.919 185 235.73 185c-7.3 0-13.894-4.337-17.898-9.26 0 0-4.003 4.337-6.594 7.033-.824.82-1.53 1.875-2.826 1.406-.471-.234-.824-.82-.824-1.875v-50.168c0-1.29.235-2.58 1.413-2.696 2.12-.235 2.12 1.992 2.355 3.282 4.239 21.216 12.364 42.9 22.019 42.55 7.065-.235 8.949-8.675 8.714-13.95-.825-16.175-11.54-32.117-19.194-46.065C212.77 96.854 207 81.498 207 65.557c0-16.996 12.482-27.194 21.902-27.546 6.594-.234 13.305 3.165 17.78 9.378l7.065-7.737c.47-.468 1.413-1.055 2.12-.82.824.352 1.059 1.29 1.059 2.579l.118 49.113zM130.052 184c1.054 0 1.522-.234 1.522-1.054 0-.469-.234-1.055-1.054-1.875l-8.079-9.138c-.468-.469-.585-1.289-.585-2.343V80.785c0-12.302.468-18.394 3.864-23.432 2.927-3.866 6.44-5.39 10.42-5.623 6.557-.469 10.655 3.163 13.582 10.192.468 1.289.936 3.046 1.99 3.046 1.054 0 1.288-1.054 1.288-2.343 0-8.318-3.63-24.017-14.284-24.603-7.728-.468-12.645 6.561-16.275 13.59h-.468V39.897c0-1.055-.468-1.523-1.288-1.523H93.522c-1.054 0-1.522.234-1.522 1.054 0 .469.234 1.289 1.054 2.109l7.376 7.967c.82.82 1.17 1.64 1.17 2.694V169.59c0 1.054 0 1.874-.468 2.343l-8.078 9.138c-.82.703-1.054 1.289-1.054 1.875 0 .82.468 1.054 1.522 1.054h36.53z" fill="#111"/><path d="M164 218.5c0-8.074 5.098-16.5 11.381-16.5 6.64 0 11.619 8.426 11.619 16.5 0 8.426-5.098 16.5-11.619 16.5-6.283 0-11.381-8.074-11.381-16.5" fill="#F60"/></g></svg>