<svg width="141" height="29" viewBox="0 0 141 29" xmlns="http://www.w3.org/2000/svg" xmlns:xlink="http://www.w3.org/1999/xlink"><defs><path id="a" d="M3.244.482c1.57 0 2.842 1.258 2.842 2.81v15.102c0 1.55-1.272 2.81-2.842 2.81-1.568 0-2.84-1.26-2.84-2.81V3.292c0-1.552 1.272-2.81 2.84-2.81z"/></defs><g fill="none" fill-rule="evenodd"><path d="M140.65 16.504l.02.06-14.062 5.013a5.165 5.165 0 0 0 4.018 1.908 5.167 5.167 0 0 0 2.925-.9c.112-.075.215-.16.318-.244.263-.437 1.85-.71 3.328-.434 1.397.26 2.21.92 2.31 1.407l.134.025a10.4 10.4 0 0 1-9.056 5.25c-5.735 0-10.385-4.6-10.385-10.27 0-5.672 4.65-10.27 10.384-10.27 3.766 0 7.054 1.987 8.872 4.955l.035-.01.045.132a10.12 10.12 0 0 1 1.263 3.376l-.148.004zm-10.024-3.2c-2.466 0-4.525 1.713-5.03 4l8.52-2.644a5.149 5.149 0 0 0-3.49-1.356zM86.238.482c1.57 0 2.84 1.258 2.84 2.81V25.77c0 1.55-1.27 2.81-2.84 2.81-1.57 0-2.84-1.26-2.84-2.81V3.29c0-1.552 1.27-2.81 2.84-2.81zm7.635 7.551c1.57 0 2.84 1.258 2.84 2.81V25.77c0 1.55-1.27 2.81-2.84 2.81-1.57 0-2.84-1.26-2.84-2.81V10.842c0-1.552 1.27-2.81 2.84-2.81zM94.05.482c1.57 0 2.84 1.258 2.84 2.81v.175c0 1.552-1.27 2.81-2.84 2.81-1.57 0-2.84-1.258-2.84-2.81v-.175c0-1.552 1.27-2.81 2.84-2.81zM78.603 8.033c1.57 0 2.84 1.258 2.84 2.81V25.77c0 1.55-1.27 2.81-2.84 2.81-1.57 0-2.84-1.26-2.84-2.81V10.842c0-1.552 1.27-2.81 2.84-2.81zm0-7.551c1.57 0 2.84 1.258 2.84 2.81v.175c0 1.552-1.27 2.81-2.84 2.81-1.57 0-2.84-1.258-2.84-2.81v-.175c0-1.552 1.27-2.81 2.84-2.81z" fill="#00beb7"/><g transform="translate(52.454)"><mask id="b" fill="#fff"><use xlink:href="#a"/></mask><use fill="#00beb7" xlink:href="#a"/><path d="M8.658 28.898c-5.736 0-10.386-4.598-10.386-10.27 0-5.67 4.65-10.268 10.386-10.268 5.736 0 10.385 4.597 10.385 10.27 0 5.67-4.65 10.268-10.385 10.268zm.04-14.757c-2.55 0-4.617 2.044-4.617 4.565 0 2.522 2.07 4.564 4.62 4.564 2.55 0 4.618-2.043 4.618-4.565 0-2.52-2.068-4.564-4.62-4.564z" opacity=".25" fill="#007571" mask="url(#b)"/></g><path d="M63.29 28.587c-5.735 0-10.384-4.598-10.384-10.27 0-5.67 4.65-10.268 10.385-10.268 5.737 0 10.387 4.596 10.387 10.268 0 5.67-4.65 10.27-10.386 10.27zm.043-14.756c-2.55 0-4.62 2.043-4.62 4.564 0 2.522 2.07 4.564 4.62 4.564 2.55 0 4.62-2.042 4.62-4.564 0-2.52-2.07-4.563-4.62-4.563zM40.744 28.587c-5.736 0-10.386-4.598-10.386-10.27 0-5.67 4.65-10.268 10.386-10.268 5.736 0 10.386 4.596 10.386 10.268 0 5.67-4.65 10.27-10.386 10.27zm.042-14.756c-2.55 0-4.62 2.043-4.62 4.564 0 2.522 2.07 4.564 4.62 4.564 2.55 0 4.618-2.042 4.618-4.564 0-2.52-2.067-4.563-4.618-4.563zM25.692 28.58c-1.57 0-2.84-1.26-2.84-2.81v-9.747c0-1.503-1.233-2.722-2.753-2.722s-2.753 1.22-2.753 2.723v9.747c0 1.55-1.272 2.81-2.84 2.81-1.57 0-2.842-1.26-2.842-2.81v-9.747c0-1.503-1.232-2.722-2.752-2.722-1.52 0-2.752 1.22-2.752 2.723v9.747c0 1.55-1.27 2.81-2.84 2.81-1.57 0-2.84-1.26-2.84-2.81V14.88c0-3.783 3.775-6.85 8.433-6.85 2.15 0 4.104.66 5.593 1.734 1.49-1.075 3.444-1.733 5.593-1.733 4.657 0 8.433 3.066 8.433 6.85v10.886c0 1.55-1.272 2.81-2.84 2.81zm92.785-15.708l-10.2 10.087h8.145c1.57 0 2.84 1.257 2.84 2.81 0 1.55-1.27 2.81-2.84 2.81h-14.915a2.846 2.846 0 0 1-2.022-.84c-.01-.01-.022-.016-.032-.027a2.786 2.786 0 0 1 0-3.973l10.2-10.087h-8.146c-1.568 0-2.84-1.258-2.84-2.81s1.272-2.81 2.84-2.81h14.915c.792 0 1.506.322 2.02.84.012.01.024.016.035.026a2.785 2.785 0 0 1 0 3.972z" fill="#00beb7"/></g></svg>