<svg width="111" height="50" viewBox="0 0 111 50" xmlns="http://www.w3.org/2000/svg"><title>Shape</title><path d="M47.459 43.006l-3.438-.855-.04-.016c-.411-.137-.658-.429-.658-.912 0-.014-.002-.022-.003-.034V24.755c0-13.496-10.97-16.413-18.146-16.413-3.353 0-7.496.868-11.032 2.916l-.88-2.143L0 10.543v5.202l5.877 1.005c.321.134.525.373.564.743v10.003l.01-.012v13.752c0 .484-.247.776-.659.913a1.08 1.08 0 0 0-.078.032l-3.25.825v6.16h18.789v-6.16l-3.143-.878c-.378-.146-.605-.43-.605-.892l-.002-.021v-16.71c0-6.998 6.311-6.998 7.64-6.998h.032c1.143 0 3.224.207 4.852 1.384 1.317.946 2.338 2.517 2.338 5.114v10.263h-.002v6.865a.47.47 0 0 0-.009.09c0 .483-.246.775-.657.912l-.007.004-3.107.867v6.16H47.46v-6.16zm10.114-18.5c0-6.999 6.268-6.999 7.588-6.999 2.062 0 7.175.666 7.175 6.498v.526l-14.763-.026zm0 8.414h25.734v-8.165c0-13.496-10.97-16.413-18.146-16.413-7.424 0-18.724 3.666-18.724 15.58v10.414C46.438 46.25 57.986 50 65.409 50c8.991 0 13.927-2.809 17.556-4.975v-6.523h-10.05s-2.887 2.75-7.506 2.75c-1.32 0-7.835-.5-7.835-7.498v-.834zm41.054 5.416V17.429h10.33V9.176h-10.33V0L87.379 1.207v7.969H83.62v8.253h3.759v21.073c0 10.914 9.998 10.914 13.414 10.914 4.582 0 9.83-2.5 9.83-2.5v-7.498h-5.914s-1 1.25-3.584 1.25c-1.666 0-2.498-.666-2.498-2.332z" fill="#333" fill-rule="evenodd"/></svg>