<svg xmlns="http://www.w3.org/2000/svg" xmlns:xlink="http://www.w3.org/1999/xlink" width="225.5" height="47.6" viewBox="0 0 225.5 47.6"><defs><path id="a" d="M37.7 8.5v39.1H0V0h29.2"/></defs><use xlink:href="#a" overflow="visible" fill="#E6E6E6"/><clipPath id="b"><use xlink:href="#a" overflow="visible"/></clipPath><g clip-path="url(#b)"><path opacity=".65" fill="#E6E6E6" d="M29.1 8.5l8.5 3.5 1.3-3.4-3-2.3z"/></g><path fill="#F2F2F2" d="M29.1 0v8.5h8.6z"/><path fill="#2B272D" d="M26.1 21.9c-.1 0-.1-.1-.2-.2l-.1-.1.1-.1c.1 0 .1-.1.1-.1l.2.1-.1.1.1.1-.1.2zm.6.5c-.1-.1-.2-.2-.3-.2l.1-.2c.1.1.2.2.3.2l-.1.2zm.5.5l-.2-.1v-.1l-.1-.1.1-.2c.1 0 .1.1.2.1h.1l-.1.4zm-.1.3h-.3V23h.2v-.1h.2zm-.7-.1H26v-.2h.4v.2zm-.7-.1h-.4v-.2h.4v.2zm-.7-.3l-.1-.1s-.1 0-.1.1l-.1-.2c.1 0 .1-.1.2-.1h.1l.1.1c.1 0 .1.1.2.1l-.3.1zm-1.9.4H23v-.2h.4v.2h-.3zm-.5 0c-.1 0-.3-.1-.4-.1l.1-.2c.1 0 .3.1.4.1l-.1.2zm1.3-.1v-.2c.1 0 .3-.1.4-.1l.1.2c-.2 0-.4.1-.5.1zm-2.1-.2c-.1-.1-.3-.2-.4-.2l.1-.2c.1.1.2.2.3.2v.2zm-.7-.6c-.1-.1-.2-.2-.2-.4l.2-.1c.1.1.1.2.2.3l-.2.2zm-.4-.8V21h.2v.4h-.2zm.2-.8l-.2-.1c0-.1.1-.3.2-.4l.2.1c-.1.1-.1.2-.2.4zm.4-.7l-.2-.1.3-.3.1.2-.2.2zm.7-.5l-.1-.2h.1v-.1l.2-.1c0 .1.1.1.1.2l.1.1h-.1c-.2.1-.3.1-.3.1zm2.6-.4l-.1-.2c.1-.1.2-.1.4-.2l.1.2c-.2 0-.3.1-.4.2zm-2.8-.3c-.1-.1-.1-.3-.1-.4h.2c0 .1.1.3.1.4h-.2zm3.5-.3l-.2-.1c.1-.1.2-.2.2-.3l.2.1c0 .1-.1.2-.2.3zm-3.7-.6v-.5l.2.1v.4h-.2zm4.1-.1l-.2-.1v-.4l.2-.1c0 .1 0 .2.1.4l-.1.2c0-.1 0-.1 0 0zm-3.7-.6l-.2-.1.3-.3.1.2-.2.2zm3.3-.2l-.3-.3.1-.2c.1.1.3.2.3.3l-.1.2zm-2.7-.3l-.1-.2c.1-.1.3-.1.4-.1v.2s-.2 0-.3.1zm2.1-.1c-.1 0-.3-.1-.4-.1v-.2c.2 0 .3 0 .4.1v.2zm-1.3-.1v-.2h.4v.2h-.4zm.6 3c0-.1-.1-.1-.1-.2l-.1-.1h.1c.1 0 .1-.1.2-.1l.1.2h-.1v.1l-.1.1zm1.1 1.4l-.3-.3.2-.1.3.3-.2.1zm-.6-.7c-.1-.1-.2-.2-.3-.4l.2-.1c.1.1.2.2.3.4l-.2.1zm1.2 1.3l-.2-.2.2-.1.1.1v-.1l.2.1c0 .1-.1.1-.1.2h-.2zm.3-.7h-.2v-.4h.2v.4zm-.3-.8c-.1-.1-.1-.2-.2-.3l.2-.1c.1.1.2.2.2.4h-.2zm-.5-.6c-.1 0-.1-.1-.2-.1h-.1v-.1c0-.1.1-.1.1-.2l.2.1v.1s.1 0 .1.1l-.1.1zm1.4 1.9l-.2-.1c.1-.1.1-.2.2-.4l.2.1c-.1.2-.2.3-.2.4zm.3-.8l-.2-.1c0-.1.1-.3.1-.4h.2c0 .2 0 .4-.1.5zm-.1-.8c0-.1 0-.3-.1-.4l.2-.1c0 .1.1.3.1.4l-.2.1zm-.3-.8l-.1-.1c-.1 0-.1 0-.2-.1v-.2c.1 0 .1 0 .2.1l.2.2-.1.1zm-1-.1l-.1-.2c.1-.1.3-.1.4-.1v.2c-.1 0-.2.1-.3.1zm-1.3 3.5V22l.2-.2c.1.1.1.1.2.1l.1.1h-.2c-.2.2-.3.2-.3.2zm-.4-.6c-.1-.1-.2-.2-.3-.4l.2-.1c.1.1.2.2.3.4l-.2.1zm-.7-.7c-.1-.1-.2-.3-.3-.4l.2-.1c.1.1.2.3.3.4l-.2.1zm-.6-.8s0-.1 0 0c0-.1 0 0 0 0l-.2-.1c0-.1.1-.1.1-.2l.1-.1.1.1c0 .1.1.1.1.2l-.2.1zm1.1 2.1c-.2 0-.3-.1-.5-.1l.1-.2c.1.1.3.1.4.1v.2zm-.9-.4c-.1-.1-.3-.2-.3-.4l.2-.1.3.3-.2.2zm-.5-.8v-.5h.2v.4l-.2.1zm1.4-2.2c-.1-.2-.1-.2-.2-.3l.2-.1v.1l.1-.1.1.2c0 .1-.1.1-.2.2zm.6-.5l-.2-.2c.1-.1.1-.2.2-.4h.2c-.1.3-.1.4-.2.6zm-1-.2c-.1-.2-.1-.3-.1-.5h.2c0 .1.1.3.1.4l-.2.1zm1-.8c0-.1-.1-.2-.2-.3l.1-.2c.2.1.3.2.3.4l-.2.1zm-.9-.1l-.2-.1c.1-.2.2-.3.4-.3v.2l-.2.2zm-6.1 4c.6.6 1.1 1 1.5 1.3l-.2.6-2.3-.3c-.2-.1-.4-.3-.6-.5-.6.4-1.5.6-2.3.6-1.9 0-3.1-1-3.1-2.7 0-1 .6-1.8 1.8-2.3-.4-.7-.6-1.3-.6-2 0-1 .8-2 2.7-2 1.5 0 2.5.5 2.5 1.7-.2.9-.9 1.5-2.3 2.1.6.9 1.4 1.9 2.3 2.7.2-.3.3-.6.3-1 0-.8-.4-1.4-1.1-1.7.2-.5.7-.8 1.2-.8.2 0 .4 0 .6.1.4.4.6.9.6 1.5.1 1.1-.2 2-1 2.7zm-2.2.5c-.9-.9-1.8-1.9-2.4-2.9-.2.3-.3.6-.3 1.1 0 1 .9 1.9 2 1.9.3 0 .5 0 .7-.1zm-1.6-5.9c0 .4.2.9.6 1.5.6-.4.9-.9.9-1.6 0-.4-.2-.8-.8-.8-.4 0-.7.4-.7.9z"/><path fill="#C2C0C4" d="M5.8 28.8h26v1h-26zm0 4h26v1h-26zm0 4h26v1h-26z"/><path d="M59.2 34.5c0 1.4.1 1.8 1.9 1.9l1.6.1v1.1H52.3v-1.1l1.6-.1c1.8-.1 1.9-.5 1.9-1.9V16.6H54c-3.7 0-4.2.8-4.7 4.5h-1.1v-5.7h18.7V21h-1.1c-.4-3.7-1-4.5-4.7-4.5h-1.9v18zm24.5-12.6v1c-1.6.1-1.8.4-2.4 1.7-1 2.2-3.8 10.1-5.8 15.7-1.6 4.7-3.3 5.1-4.6 5.1-1.4 0-2.2-.8-2.2-1.6 0-1 .8-1.8 1.4-1.8.4 0 .6.1 1 .4.5.5.8.6 1.2.6 1.1 0 2-2.6 2.2-4.1.1-.5-.1-1.1-.2-1.6-.8-2.3-3.6-9-5.2-12.8-.6-1.4-.9-1.6-2.4-1.7v-1h7.5v1l-1.4.2c-.7.1-.7.4-.5 1 1.3 3.3 2.6 6.6 4 10.4h.1c1.4-3.7 2.9-8.4 3.4-10.3.2-.6.1-1-.4-1.1l-1.7-.2v-1h6zm3.7 3c0-1.2-.2-1.3-1-1.5l-1.2-.2v-.9l4.9-.8.4 2.3c1.3-.8 3.1-2.3 5.4-2.3 5.6 0 6.2 5.4 6.2 7.9 0 6.6-3.7 8.6-8.1 8.6-1.4 0-2.9-.3-3.6-.7v4.9c0 1.6.2 1.7 2.9 1.8v1.1H85V44c2.2-.2 2.3-.2 2.3-1.8V24.9zm3.1 7.7c0 .7 0 1.4.2 1.9.5 1.5 1.8 2.2 3.4 2.2 3.1 0 4.6-2.5 4.6-7.2 0-5.5-2.8-6.3-4-6.3-1.7 0-3 .8-3.7 2.2-.3.6-.4 1-.4 1.8v5.4zm28.5-2.9c0 5.2-2.5 8.2-7.7 8.2-5.1 0-7.7-3.1-7.7-8.2 0-5.2 2.5-8.3 7.7-8.3s7.7 3.1 7.7 8.3zm-7.7 7.1c2.9 0 4.3-2.7 4.3-7 0-4.4-1.4-7.1-4.3-7.1s-4.2 2.7-4.2 7.1c-.1 4.3 1.3 7 4.2 7zm24-15.4l.3.3-.6 2h-2.5c.5.5 1 1.8 1 3.1 0 4-3.4 5.2-6.5 5.2-.4 0-1.2 0-1.8-.1-.4.1-1.5.5-1.5 1.5 0 .6.3 1.4 2.6 1.4h2.9c3.4 0 5.8 1.2 5.8 4.7 0 2.2-1.2 3.8-2.7 4.8-1.6 1-3.2 1.3-5.4 1.3-3.8 0-7-1.5-7-4.8 0-2.3 2.3-3.1 3.7-3.6v-.1c-1.6-.2-2.8-1.4-2.8-2.6 0-1.3 1.1-2.2 2.9-2.9v-.1c-1.4-.4-3.3-1.7-3.3-4.8 0-2.4 1.7-5.3 6.7-5.3 1.5 0 3.2.4 4.1 1l4.1-1zm-3.1 19.2c0-2.3-1.7-3.1-4.9-3.1-1.8 0-2.8.2-3.5.7-.6.5-1.1 1.2-1.1 2.3 0 2.3 2.1 3.8 5 3.8 2.3 0 4.5-1.2 4.5-3.7zm-8.5-13.7c0 2.7 1.5 4 3.2 4 1.8 0 3.2-1.4 3.2-4 0-3.1-1.6-4.2-3.2-4.2s-3.2 1-3.2 4.2zm18.4 7.8c0 1.6.2 1.7 3 1.8v1.1h-8.5v-1.1c2.2-.2 2.4-.2 2.4-1.8v-9.8c0-1.2-.2-1.4-1-1.5l-1.2-.2v-.9l5-.8.4 2.6c2.1-1.9 3-2.7 4.2-2.7 1.3 0 1.7.9 1.7 1.6 0 1-.7 2-1.5 2-.2 0-.4 0-.7-.2-.8-.6-1.3-.8-1.8-.8-.7 0-1.9.9-1.9 3.3v7.4zm19-1.3c0 2 .5 2.5 1.1 2.7.3.1.8.1 1.3 0l.1 1c-.8.5-2.2.9-3.4.9-1.1 0-1.7-.6-2.1-1.9-1 .7-2.8 1.9-4.7 1.9-3.1 0-4.7-2.1-4.7-4.5 0-1.5.7-3.2 3-3.9 2.5-.8 5.6-1.6 6.4-2.4V26c0-2.5-1.3-3.3-2.8-3.3-1.3 0-2.4.7-3.1 3.1-.2.5-.4.9-1.1.9-.7 0-1.8-.5-1.8-1.5 0-1.8 2.6-3.7 6.3-3.7 4.9 0 5.5 2.5 5.5 4.4v7.5zm-3-4.9c-.7.4-2.4 1.1-3.6 1.5-1.7.7-2.4 1.5-2.4 3 0 1.9 1 3.2 2.9 3.2 1.2 0 3.1-.6 3.1-3.2v-4.5zm8.1-3.6c0-1.2-.2-1.3-1-1.5l-1.2-.2v-.9l4.9-.8.4 2.3c1.3-.8 3.1-2.3 5.4-2.3 5.6 0 6.2 5.4 6.2 7.9 0 6.6-3.7 8.6-8.1 8.6-1.4 0-2.9-.3-3.6-.7v4.9c0 1.6.2 1.7 2.9 1.8v1.1h-8.3V44c2.2-.2 2.3-.2 2.3-1.8V24.9zm3.2 7.7c0 .7 0 1.4.2 1.9.5 1.5 1.8 2.2 3.4 2.2 3.1 0 4.6-2.5 4.6-7.2 0-5.5-2.8-6.3-4-6.3-1.7 0-3 .8-3.7 2.2-.3.6-.4 1-.4 1.8v5.4zM184.8 17c0-1.2-.2-1.3-1-1.5l-1.2-.2v-.9l5.1-.8.2.2v10.1c2-1.3 3.5-2.4 5.8-2.4 3 0 4.7 1.9 4.7 5.1v8.1c0 1.5.2 1.7 2.4 1.8v1.1H193v-1.1c2.2-.2 2.4-.3 2.4-1.8v-7.5c0-2.7-1.2-3.8-3.3-3.8-1.7 0-3.1 1-3.8 2.3-.2.4-.3.9-.3 1.7v7.3c0 1.6.2 1.7 2.3 1.8v1.1h-7.8v-1.1c2.2-.2 2.3-.3 2.3-1.8V17zm20.2 7.9c0-1.2-.2-1.4-1-1.5l-1.2-.2v-.9l5.1-.8.2.2v13c0 1.6.1 1.7 2.4 1.8v1.1h-7.9v-1.1c2.3-.2 2.4-.2 2.4-1.8v-9.8zm3.5-7.9c0 1.1-.8 1.9-2 1.9s-2-.8-2-1.9c0-1.2.8-2.1 2-2.1s2 .9 2 2.1zm17 16.4c-.9 3.5-3.9 4.6-6.2 4.6-4.8 0-7.4-2.7-7.4-8.1 0-4.3 2-8.4 7.8-8.4 3.4 0 5.6 1.6 5.6 3.1 0 1.2-1.3 1.6-1.9 1.6-.6 0-.8-.3-1-.8-.6-1.7-1.5-2.8-3-2.8-2.1 0-4 1.9-4 6.6 0 3.1 1 6.9 4.7 6.9 2.3 0 3.5-1.1 4.5-3.4l.9.7z" fill="#2B272D"/></svg>