<svg xmlns="http://www.w3.org/2000/svg" width="61.384" height="24.052"><defs><clipPath id="a"><path d="M525.654 24.139h55.086v23.105h-55.086V24.139z"/></clipPath></defs><g clip-path="url(#a)" transform="matrix(1.25 0 0 -1.25 -664.54 59.055)"><path d="M541.355 35.37v-3.088h.854v2.512c.287.247.492.164 1.059-.303l.345.771a1.704 1.704 0 0 1-.714.156.884.884 0 0 1-.674-.295l-.041-.05-.008.01.008.286h-.83zm3.457 1.633h-.854v-4.72h.854v4.72zm-7.472-3.178c0-.862.64-1.576 1.675-1.576 1.034 0 1.675.714 1.675 1.576 0 .862-.641 1.577-1.675 1.577-1.035 0-1.675-.715-1.675-1.577m17.883 1.544h-.854v-3.087h.854v3.087zm3.662 0v-1.733c0-.886.378-1.453 2.168-1.453 2.094 0 2.833.805 2.833 1.692 0 .87-.698 1.552-1.66 1.552-1.05 0-1.65-.699-1.65-1.405 0-.509.313-1.026.986-1.305l.205.238a1.52 1.52 0 0 0-.377 1.01c0 .616.377 1.141.82 1.141.559 0 .813-.624.813-1.272 0-.649-.23-1.38-1.75-1.38-1.205 0-1.534.246-1.534.977v1.938h-.854zm.444 1.396a.445.445 0 0 1-.452-.452c0-.254.197-.45.452-.45.254 0 .45.196.45.45a.445.445 0 0 1-.45.452m-4.426 0a.445.445 0 0 1-.452-.452c0-.254.197-.45.452-.45s.452.196.452.45a.445.445 0 0 1-.452.452m1.01-2.242c-.082-1.174 1.642-.895 1.593-1.609-.025-.287-.271-.386-.534-.378-.427.033-.69.28-.92.55l-.254-.566a2.527 2.527 0 0 1 1.05-.32c.74-.05 1.364.271 1.405.985.074 1.108-1.708.97-1.675 1.535.016.247.295.37.583.353.295-.024.525-.189.78-.418l.23.51c-.32.138-.624.204-.895.23-.797.048-1.33-.37-1.363-.872m-8.893-2.307c.403 0 .73.14 1.027.37l.016-.009v-.295h.789v4.721h-.854v-1.88c-.24.18-.6.295-.97.295-.467 0-1.584-.287-1.584-1.642 0-1.01.887-1.56 1.576-1.56m5.017.066h.362l1.806 4.146h-.468l-1.256-2.915-1.24 2.915h-1.035l1.83-4.146zm15.675 0v1.7c0 1.15-.88 1.436-1.396 1.436-.37 0-.682-.139-.994-.353l-.016.008v.296h-.788v-3.087h.854v2.488c.254.221.5.312.714.312.452 0 .764-.436.764-.912v-1.888h.862zm-32.597 3.752h-.485l-.97-2.504-1.033 2.882h-.994l1.536-4.122h.468l.993 2.545.985-2.545h.469l1.535 4.113h-.468l-1.076-2.873-.96 2.504zm4.672-2.209c0-.714-.238-1.28-.772-1.28s-.772.566-.772 1.28c0 .715.238 1.281.772 1.281s.772-.566.772-1.28m8.21.927V32.89c-.221-.189-.426-.328-.738-.328-.378 0-.871.32-.871 1.248 0 1.002.78 1.724 1.61.944"/><path d="M549.043 47.14c-.03.004-.052.023-.052.052 0 .03.023.052.052.052h31.698V28.002c-7.272 10.27-18.638 17.42-31.698 19.138" fill="#f3912d"/><path d="M575.281 34.993c.328 4.847.58 4.655 1.541 5.547.6.556.09 1.221 2.62 1.407-2.7.2-1.624.531-2.69 1.51-.978.893-1.297 0-1.47 2.574-.175-2.58-.356-1.46-1.408-2.547-1.143-1.179.15-1.323-2.753-1.537 2.86-.21 1.744-.645 2.642-1.478 1.112-1.03 1.183-.522 1.518-5.476" fill="#f3912d"/><path d="M575.281 34.994c.327 4.84.577 4.66 1.537 5.55.598.555.097 1.217 2.622 1.404-2.696.198-1.629.529-2.693 1.504-.974.891-1.292.007-1.466 2.579-.174-2.578-.354-1.468-1.404-2.551-1.139-1.176.144-1.319-2.755-1.532 2.855-.211 1.75-.644 2.646-1.475 1.108-1.027 1.18-.532 1.513-5.479" fill="#f3912e"/><path d="M575.281 34.995c.327 4.834.575 4.666 1.533 5.553.597.554.104 1.214 2.626 1.4-2.693.198-1.636.528-2.697 1.5-.972.889-1.288.014-1.462 2.582-.174-2.573-.353-1.474-1.4-2.554-1.136-1.173.136-1.315-2.759-1.528 2.85-.211 1.755-.642 2.65-1.47 1.105-1.025 1.175-.543 1.51-5.483" fill="#f3922f"/><path d="M575.281 34.996c.326 4.827.573 4.67 1.528 5.556.597.553.112 1.21 2.63 1.396-2.689.198-1.64.526-2.7 1.496-.969.887-1.285.02-1.458 2.585-.174-2.57-.352-1.48-1.396-2.557-1.133-1.17.128-1.311-2.762-1.524 2.845-.21 1.76-.64 2.653-1.466 1.102-1.022 1.172-.554 1.505-5.486" fill="#f39231"/><path d="M575.281 34.996c.326 4.82.571 4.676 1.524 5.56.596.551.12 1.206 2.633 1.391-2.685.198-1.647.525-2.703 1.492-.967.885-1.28.027-1.454 2.59-.173-2.567-.352-1.487-1.392-2.562-1.13-1.166.12-1.307-2.765-1.52 2.84-.209 1.765-.637 2.655-1.462 1.101-1.019 1.17-.564 1.502-5.489" fill="#f39332"/><path d="M575.281 34.997c.325 4.813.57 4.681 1.52 5.562.595.551.126 1.203 2.636 1.388-2.68.198-1.653.524-2.706 1.488-.964.882-1.277.034-1.45 2.592-.173-2.562-.35-1.492-1.389-2.564-1.126-1.163.114-1.303-2.767-1.516 2.834-.209 1.77-.635 2.66-1.457 1.096-1.017 1.164-.575 1.496-5.493" fill="#f39332"/><path d="M575.281 34.998c.325 4.806.568 4.687 1.516 5.565.594.55.134 1.2 2.64 1.384-2.677.198-1.66.522-2.71 1.484-.962.88-1.273.041-1.446 2.595-.173-2.558-.35-1.498-1.385-2.567-1.123-1.159.106-1.299-2.77-1.512 2.828-.208 1.776-.632 2.662-1.453 1.094-1.014 1.161-.586 1.493-5.496" fill="#f39433"/><path d="M575.281 34.999c.324 4.799.566 4.692 1.512 5.568.593.55.141 1.196 2.642 1.38-2.672.198-1.665.52-2.712 1.48-.959.878-1.27.048-1.442 2.599-.173-2.555-.349-1.505-1.38-2.571-1.12-1.156.097-1.296-2.774-1.507 2.823-.21 1.781-.631 2.664-1.45 1.092-1.011 1.16-.596 1.49-5.5" fill="#f49534"/><path d="M575.281 35c.324 4.792.564 4.697 1.508 5.572.592.548.148 1.192 2.645 1.376-2.668.197-1.67.519-2.715 1.475-.956.876-1.266.055-1.438 2.602-.172-2.551-.348-1.511-1.377-2.574-1.117-1.153.09-1.292-2.776-1.503 2.817-.208 1.786-.63 2.667-1.445 1.09-1.01 1.155-.607 1.486-5.503" fill="#f49535"/><path d="M575.281 35c.323 4.786.562 4.703 1.504 5.576.59.547.155 1.188 2.65 1.372-2.666.197-1.678.517-2.72 1.47-.954.874-1.262.063-1.434 2.606-.172-2.548-.347-1.518-1.373-2.577-1.114-1.15.083-1.289-2.78-1.5 2.813-.207 1.792-.626 2.671-1.44 1.086-1.007 1.152-.619 1.482-5.507" fill="#f49636"/><path d="M575.281 35.001c.323 4.78.561 4.708 1.5 5.578.59.546.162 1.185 2.652 1.368-2.66.196-1.683.516-2.722 1.467-.95.871-1.258.068-1.43 2.61-.172-2.545-.346-1.525-1.37-2.58-1.11-1.148.076-1.286-2.782-1.497 2.808-.207 1.797-.624 2.674-1.437 1.083-1.003 1.148-.628 1.478-5.509" fill="#f49637"/><path d="M575.281 35.002c.323 4.772.56 4.713 1.495 5.581.59.545.17 1.181 2.656 1.364-2.656.196-1.689.515-2.725 1.463-.949.87-1.255.075-1.426 2.612-.172-2.54-.345-1.53-1.366-2.583-1.107-1.143.068-1.28-2.785-1.492 2.802-.206 1.802-.622 2.677-1.432 1.08-1 1.144-.639 1.474-5.513" fill="#f49738"/><path d="M575.281 35.003c.322 4.765.557 4.718 1.491 5.584.588.545.178 1.178 2.66 1.36-2.653.196-1.696.513-2.729 1.459-.946.867-1.25.082-1.422 2.615-.17-2.536-.344-1.536-1.362-2.586-1.104-1.14.061-1.277-2.788-1.487 2.797-.207 1.807-.62 2.68-1.43 1.077-.997 1.141-.65 1.47-5.515" fill="#f49739"/><path d="M575.281 35.004c.322 4.758.555 4.723 1.487 5.587.587.544.185 1.174 2.662 1.357-2.648.195-1.7.51-2.73 1.454-.945.865-1.248.089-1.419 2.619-.17-2.533-.344-1.543-1.358-2.59-1.1-1.137.053-1.273-2.79-1.483 2.79-.206 1.812-.618 2.682-1.424 1.074-.995 1.138-.661 1.466-5.52" fill="#f49839"/><path d="M575.281 35.004c.321 4.751.554 4.73 1.483 5.59.586.543.192 1.171 2.665 1.353-2.644.195-1.706.51-2.734 1.45-.94.862-1.243.096-1.414 2.622-.17-2.528-.343-1.549-1.354-2.593-1.098-1.133.045-1.27-2.794-1.479 2.786-.205 1.818-.615 2.686-1.42 1.071-.992 1.134-.67 1.462-5.523" fill="#f4983a"/><path d="M575.281 35.005c.321 4.744.552 4.734 1.48 5.593.584.542.198 1.167 2.667 1.35-2.64.194-1.712.507-2.736 1.445-.94.86-1.24.103-1.41 2.626-.172-2.525-.343-1.556-1.352-2.597-1.094-1.13.038-1.266-2.796-1.475 2.78-.205 1.823-.613 2.69-1.416 1.067-.989 1.13-.68 1.457-5.526" fill="#f4993b"/><path d="M575.281 35.006c.32 4.737.55 4.739 1.475 5.596.584.541.206 1.164 2.671 1.346-2.636.194-1.718.506-2.739 1.441-.937.858-1.237.109-1.407 2.629-.17-2.521-.34-1.562-1.347-2.6-1.09-1.127.031-1.262-2.799-1.47 2.775-.205 1.828-.612 2.692-1.412 1.065-.987 1.127-.693 1.454-5.53" fill="#f4993c"/><path d="M575.281 35.007c.32 4.73.548 4.745 1.471 5.6.583.539.214 1.159 2.675 1.34-2.632.195-1.725.506-2.743 1.438-.935.856-1.233.116-1.403 2.632-.17-2.517-.34-1.568-1.343-2.603-1.088-1.123.023-1.258-2.803-1.466 2.77-.205 1.834-.61 2.696-1.408 1.062-.984 1.123-.703 1.45-5.533" fill="#f49a3d"/><path d="M575.281 35.008c.32 4.723.546 4.75 1.467 5.603.582.539.221 1.156 2.678 1.337-2.628.194-1.73.503-2.746 1.433-.932.853-1.229.123-1.399 2.636-.17-2.514-.339-1.575-1.339-2.607-1.085-1.12.015-1.254-2.806-1.462 2.765-.204 1.84-.607 2.7-1.403 1.06-.982 1.12-.714 1.445-5.537" fill="#f49a3e"/><path d="M575.281 35.008c.32 4.717.544 4.755 1.463 5.606.58.539.228 1.153 2.681 1.334-2.624.193-1.737.501-2.749 1.428-.93.852-1.225.13-1.395 2.64-.17-2.51-.338-1.581-1.335-2.61-1.082-1.116.008-1.25-2.809-1.458 2.76-.203 1.845-.604 2.702-1.4 1.057-.978 1.116-.724 1.442-5.54" fill="#f49b3f"/><path d="M575.281 35.01c.318 4.71.543 4.76 1.46 5.608.578.537.234 1.15 2.683 1.33-2.62.193-1.743.5-2.752 1.424-.927.85-1.222.137-1.39 2.643-.17-2.507-.338-1.588-1.333-2.614-1.078-1.113.001-1.246-2.81-1.454 2.753-.203 1.85-.602 2.704-1.395 1.054-.976 1.113-.735 1.438-5.543" fill="#f49b40"/><path d="M575.281 35.01c.318 4.703.541 4.765 1.454 5.612.58.536.243 1.145 2.688 1.325-2.616.193-1.748.5-2.755 1.421-.925.847-1.218.144-1.387 2.646-.169-2.503-.336-1.593-1.328-2.617-1.075-1.11-.007-1.243-2.814-1.45 2.748-.202 1.855-.6 2.708-1.39 1.051-.974 1.11-.746 1.434-5.547" fill="#f59b40"/><path d="M575.281 35.01c.317 4.697.54 4.772 1.45 5.616.578.535.25 1.142 2.691 1.322-2.612.192-1.754.497-2.758 1.416-.922.844-1.214.15-1.383 2.649-.169-2.5-.335-1.6-1.324-2.62-1.072-1.106-.015-1.24-2.817-1.445 2.743-.203 1.86-.598 2.711-1.387 1.048-.971 1.106-.757 1.43-5.55" fill="#f59c41"/><path d="M575.281 35.012c.317 4.689.537 4.776 1.446 5.618.577.534.257 1.138 2.694 1.318-2.608.192-1.76.496-2.76 1.412-.92.842-1.21.157-1.38 2.653-.169-2.496-.335-1.606-1.32-2.624-1.069-1.103-.022-1.235-2.82-1.441 2.737-.202 1.865-.596 2.714-1.383 1.045-.968 1.103-.767 1.426-5.553" fill="#f59c42"/><path d="M575.281 35.013c.317 4.682.536 4.78 1.442 5.62.576.535.265 1.136 2.697 1.315-2.603.192-1.766.494-2.764 1.408-.917.84-1.206.164-1.375 2.656-.168-2.492-.334-1.612-1.317-2.627-1.065-1.1-.029-1.231-2.823-1.437 2.733-.201 1.871-.594 2.718-1.378 1.042-.966 1.1-.778 1.422-5.557" fill="#f59c43"/><path d="M575.281 35.013c.316 4.675.534 4.786 1.438 5.624.575.533.272 1.131 2.701 1.31-2.6.192-1.773.493-2.768 1.404-.914.838-1.203.171-1.37 2.66-.169-2.488-.334-1.619-1.314-2.63-1.062-1.097-.037-1.228-2.826-1.434 2.728-.2 1.876-.59 2.721-1.374 1.04-.963 1.095-.788 1.418-5.56" fill="#f59d44"/><path d="M575.281 35.014c.316 4.668.532 4.792 1.434 5.627.574.532.28 1.128 2.704 1.307-2.596.191-1.778.491-2.77 1.399-.913.836-1.2.178-1.368 2.663-.168-2.484-.332-1.625-1.309-2.634-1.059-1.093-.044-1.223-2.829-1.428 2.722-.201 1.881-.59 2.724-1.37 1.036-.96 1.092-.8 1.414-5.564" fill="#f59d45"/><path d="M575.281 35.015c.315 4.66.53 4.797 1.43 5.63.573.53.286 1.124 2.707 1.303-2.592.19-1.784.49-2.774 1.395-.909.833-1.195.185-1.363 2.666-.168-2.48-.33-1.631-1.305-2.637-1.056-1.09-.052-1.22-2.832-1.424 2.717-.201 1.887-.588 2.727-1.366 1.033-.957 1.09-.81 1.41-5.567" fill="#f59e46"/><path d="M575.281 35.016c.315 4.655.53 4.802 1.426 5.634.571.529.293 1.12 2.71 1.298-2.588.19-1.79.488-2.777 1.392-.907.83-1.192.19-1.359 2.669-.167-2.477-.33-1.638-1.3-2.641-1.054-1.086-.06-1.215-2.836-1.42 2.711-.2 1.892-.585 2.73-1.362 1.03-.954 1.085-.82 1.406-5.57" fill="#f59e47"/><path d="M575.281 35.016c.314 4.648.527 4.807 1.422 5.637.57.53.301 1.116 2.713 1.294-2.584.191-1.796.487-2.779 1.388-.905.828-1.189.197-1.356 2.672-.167-2.473-.329-1.644-1.298-2.643-1.049-1.084-.067-1.213-2.837-1.417 2.706-.199 1.897-.583 2.733-1.357 1.027-.952 1.081-.832 1.402-5.574" fill="#f59f47"/><path d="M575.281 35.017c.314 4.641.525 4.813 1.418 5.64.57.528.308 1.113 2.716 1.29-2.579.191-1.802.486-2.782 1.383-.903.827-1.185.205-1.352 2.676-.167-2.469-.328-1.65-1.294-2.647-1.046-1.079-.074-1.208-2.84-1.412 2.7-.199 1.902-.58 2.736-1.353 1.024-.949 1.078-.842 1.398-5.577" fill="#f59f48"/><path d="M575.281 35.018c.313 4.634.523 4.818 1.414 5.643.568.527.315 1.109 2.72 1.287-2.576.189-1.808.483-2.787 1.379-.899.823-1.18.211-1.347 2.679-.167-2.466-.328-1.657-1.29-2.65-1.043-1.077-.082-1.205-2.843-1.408 2.695-.199 1.907-.579 2.74-1.349 1.02-.947 1.073-.853 1.393-5.581" fill="#f5a049"/><path d="M575.281 35.019c.313 4.627.521 4.823 1.41 5.646.567.526.322 1.106 2.723 1.283-2.572.189-1.814.482-2.789 1.375-.898.82-1.177.218-1.344 2.682-.166-2.462-.327-1.663-1.286-2.653-1.04-1.074-.09-1.201-2.847-1.404 2.69-.2 1.914-.577 2.743-1.345 1.02-.944 1.071-.864 1.39-5.584" fill="#f5a049"/><path d="M575.281 35.02c.312 4.62.52 4.828 1.405 5.649.567.525.33 1.102 2.727 1.279-2.568.189-1.82.48-2.792 1.37-.895.82-1.174.226-1.34 2.686-.166-2.458-.326-1.67-1.282-2.656-1.037-1.07-.097-1.197-2.85-1.4 2.685-.198 1.92-.574 2.746-1.341 1.016-.941 1.067-.874 1.386-5.587" fill="#f5a14a"/><path d="M575.281 35.02c.312 4.613.518 4.834 1.401 5.652.566.525.337 1.1 2.73 1.276-2.564.188-1.826.478-2.795 1.366-.892.817-1.17.232-1.336 2.69-.166-2.456-.325-1.677-1.279-2.66-1.033-1.068-.104-1.194-2.852-1.397 2.68-.197 1.924-.572 2.75-1.336 1.012-.939 1.063-.885 1.381-5.59" fill="#f5a14b"/><path d="M575.281 35.021c.311 4.606.516 4.84 1.397 5.655.565.524.344 1.095 2.733 1.271-2.56.19-1.832.478-2.798 1.363-.89.814-1.166.238-1.332 2.692-.166-2.45-.324-1.682-1.275-2.663-1.03-1.064-.112-1.189-2.855-1.392 2.674-.197 1.93-.57 2.752-1.332 1.01-.936 1.06-.896 1.378-5.594" fill="#f6a24c"/><path d="M575.281 35.022c.311 4.6.514 4.844 1.393 5.658.563.523.352 1.092 2.736 1.267-2.556.19-1.838.476-2.8 1.36-.889.811-1.163.244-1.329 2.694-.165-2.446-.323-1.688-1.27-2.666-1.028-1.06-.12-1.186-2.859-1.388 2.67-.196 1.934-.567 2.755-1.328 1.007-.933 1.057-.906 1.374-5.597" fill="#f6a24c"/><path d="M575.281 35.023c.31 4.593.512 4.849 1.39 5.662.561.52.358 1.087 2.738 1.263-2.55.188-1.843.474-2.804 1.354-.885.81-1.159.252-1.324 2.699-.165-2.443-.322-1.694-1.267-2.67-1.024-1.057-.127-1.182-2.86-1.383 2.662-.197 1.938-.566 2.757-1.324 1.004-.931 1.053-.917 1.37-5.601" fill="#f6a34d"/><path d="M575.281 35.024c.31 4.586.511 4.855 1.385 5.665.561.52.366 1.084 2.742 1.259-2.547.188-1.849.473-2.807 1.35-.882.808-1.155.259-1.32 2.702-.165-2.44-.32-1.7-1.263-2.673-1.02-1.054-.135-1.178-2.864-1.38 2.658-.195 1.944-.563 2.761-1.32 1.001-.927 1.05-.926 1.366-5.603" fill="#f6a34e"/><path d="M575.281 35.025c.31 4.579.51 4.86 1.38 5.668.561.519.374 1.08 2.746 1.255-2.543.188-1.855.472-2.81 1.346-.88.805-1.15.266-1.316 2.706-.165-2.436-.32-1.707-1.26-2.677-1.017-1.05-.142-1.174-2.866-1.375 2.652-.195 1.95-.561 2.763-1.315 1-.926 1.047-.94 1.363-5.608" fill="#f6a44f"/><path d="M575.281 35.025c.31 4.572.507 4.865 1.376 5.671.56.518.381 1.077 2.75 1.251-2.54.188-1.862.47-2.814 1.342-.877.803-1.147.273-1.312 2.71-.164-2.433-.319-1.714-1.256-2.68-1.014-1.048-.149-1.17-2.87-1.372 2.648-.195 1.956-.559 2.767-1.31.996-.924 1.044-.95 1.36-5.612" fill="#f6a450"/><path d="M575.281 35.026c.31 4.565.505 4.87 1.372 5.674.56.518.388 1.073 2.753 1.248-2.536.187-1.868.468-2.817 1.337-.875.801-1.144.279-1.308 2.712-.164-2.428-.319-1.719-1.252-2.683-1.01-1.043-.157-1.166-2.873-1.366 2.642-.195 1.961-.557 2.771-1.308.992-.919 1.04-.959 1.354-5.614" fill="#f6a551"/><path d="M575.281 35.027c.308 4.558.503 4.876 1.368 5.677.558.517.396 1.07 2.756 1.244-2.532.186-1.874.467-2.82 1.333-.872.799-1.14.286-1.304 2.716-.164-2.425-.318-1.726-1.248-2.687-1.008-1.04-.165-1.162-2.876-1.362 2.637-.195 1.966-.555 2.773-1.303.99-.917 1.037-.971 1.351-5.618" fill="#f6a552"/><path d="M575.281 35.028c.308 4.55.502 4.88 1.364 5.68.557.516.403 1.066 2.76 1.24-2.528.186-1.88.465-2.824 1.329-.87.796-1.136.293-1.3 2.719-.164-2.421-.317-1.732-1.245-2.69-1.004-1.037-.172-1.158-2.878-1.358 2.631-.194 1.971-.553 2.776-1.3.987-.913 1.033-.98 1.347-5.62" fill="#f6a653"/><path d="M575.281 35.028c.307 4.544.5 4.886 1.36 5.683.556.515.41 1.063 2.762 1.236-2.523.186-1.885.464-2.825 1.325-.868.794-1.133.3-1.297 2.722-.163-2.417-.316-1.738-1.24-2.693-1.002-1.033-.18-1.155-2.882-1.354 2.626-.193 1.976-.55 2.78-1.294.983-.912 1.03-.992 1.342-5.625" fill="#f6a653"/><path d="M575.281 35.03c.307 4.537.498 4.89 1.356 5.685.554.514.417 1.06 2.765 1.232-2.519.186-1.89.463-2.829 1.321-.865.792-1.128.307-1.292 2.726-.163-2.414-.315-1.745-1.237-2.697-.998-1.03-.187-1.15-2.884-1.35 2.62-.193 1.981-.548 2.782-1.29.981-.909 1.026-1.003 1.34-5.628" fill="#f6a754"/><path d="M575.281 35.03c.306 4.531.496 4.897 1.352 5.69.553.513.424 1.055 2.768 1.228-2.515.185-1.897.46-2.83 1.316-.864.79-1.127.314-1.29 2.729-.163-2.409-.314-1.751-1.233-2.7-.995-1.027-.195-1.147-2.887-1.345 2.615-.193 1.987-.547 2.785-1.287.978-.906 1.023-1.013 1.335-5.631" fill="#f6a755"/><path d="M575.281 35.03c.306 4.525.494 4.903 1.348 5.694.552.512.432 1.05 2.771 1.224-2.51.185-1.903.459-2.834 1.312-.86.787-1.122.32-1.285 2.733-.163-2.406-.313-1.758-1.229-2.704-.992-1.023-.203-1.143-2.89-1.341 2.61-.193 1.992-.544 2.788-1.282.976-.904 1.02-1.024 1.331-5.635" fill="#f6a756"/><path d="M575.281 35.032c.305 4.517.493 4.907 1.344 5.696.551.51.44 1.048 2.775 1.22-2.508.185-1.91.458-2.838 1.308-.858.785-1.118.327-1.28 2.736-.163-2.402-.313-1.764-1.227-2.707-.988-1.02-.209-1.14-2.893-1.337 2.605-.192 1.998-.542 2.792-1.278.973-.901 1.016-1.034 1.327-5.638" fill="#f6a857"/><path d="M575.281 35.032c.305 4.51.491 4.913 1.34 5.7.55.51.446 1.043 2.778 1.215-2.503.185-1.915.456-2.84 1.304-.856.784-1.116.335-1.278 2.74-.162-2.399-.31-1.77-1.222-2.71-.985-1.017-.217-1.136-2.896-1.334 2.6-.192 2.003-.54 2.795-1.274.97-.898 1.012-1.045 1.323-5.64" fill="#f6a858"/><path d="M575.281 35.033c.304 4.503.49 4.918 1.335 5.702.55.51.454 1.041 2.782 1.212-2.499.185-1.92.455-2.844 1.3-.853.781-1.11.341-1.273 2.743-.162-2.395-.31-1.777-1.218-2.713-.982-1.014-.225-1.132-2.899-1.33 2.594-.19 2.008-.537 2.798-1.269.967-.896 1.01-1.056 1.32-5.645" fill="#f6a859"/><path d="M575.281 35.034c.304 4.496.487 4.923 1.331 5.705.55.508.461 1.037 2.785 1.208-2.495.184-1.927.454-2.847 1.296-.85.78-1.107.348-1.269 2.746-.162-2.39-.31-1.783-1.214-2.716-.979-1.01-.232-1.129-2.902-1.326 2.59-.19 2.013-.535 2.801-1.265.964-.893 1.005-1.066 1.315-5.648" fill="#f7a95a"/><path d="M575.281 35.035c.304 4.489.485 4.928 1.327 5.708.548.508.468 1.034 2.788 1.205-2.49.184-1.933.45-2.85 1.29-.848.777-1.103.356-1.265 2.75-.16-2.387-.309-1.788-1.21-2.72-.976-1.006-.24-1.124-2.905-1.32 2.583-.191 2.018-.533 2.804-1.261.961-.891 1.002-1.078 1.311-5.652" fill="#f7a95a"/><path d="M575.281 35.036c.303 4.482.484 4.933 1.323 5.71.547.508.475 1.03 2.791 1.202-2.487.183-1.939.45-2.853 1.287-.845.774-1.099.362-1.26 2.753-.162-2.384-.309-1.795-1.208-2.723-.972-1.004-.247-1.121-2.907-1.317 2.578-.19 2.024-.531 2.807-1.257.958-.888.998-1.088 1.307-5.655" fill="#f7aa5b"/><path d="M575.281 35.036c.303 4.476.482 4.94 1.32 5.714.545.506.482 1.027 2.793 1.197-2.483.183-1.944.45-2.856 1.283-.843.772-1.096.37-1.257 2.756-.16-2.38-.307-1.8-1.203-2.726-.969-1-.255-1.117-2.91-1.313 2.572-.19 2.03-.529 2.81-1.253.955-.885.995-1.098 1.303-5.658" fill="#f7aa5c"/><path d="M575.281 35.037c.302 4.47.48 4.944 1.315 5.717.544.505.49 1.023 2.797 1.193-2.479.183-1.95.447-2.859 1.28-.84.77-1.092.374-1.253 2.758-.16-2.376-.306-1.807-1.199-2.729-.966-.997-.262-1.113-2.914-1.309 2.568-.189 2.035-.526 2.814-1.248.952-.882.991-1.109 1.3-5.662" fill="#f7ab5d"/><path d="M575.281 35.038c.302 4.462.478 4.949 1.311 5.721.543.503.497 1.019 2.801 1.189-2.475.182-1.957.445-2.863 1.274-.838.767-1.088.382-1.249 2.763-.16-2.373-.305-1.814-1.195-2.733-.963-.994-.27-1.109-2.917-1.304 2.562-.189 2.04-.525 2.817-1.245.95-.879.988-1.12 1.295-5.665" fill="#f7ac5e"/><path d="M575.281 35.039c.301 4.455.476 4.954 1.307 5.724.542.502.504 1.015 2.804 1.185-2.47.182-1.963.444-2.866 1.27-.835.765-1.084.389-1.245 2.766-.16-2.368-.304-1.82-1.19-2.736-.96-.991-.279-1.105-2.92-1.3 2.556-.19 2.044-.523 2.82-1.241.945-.876.983-1.13 1.29-5.668" fill="#f7ac5f"/><path d="M575.281 35.04c.301 4.448.475 4.96 1.303 5.727.541.502.511 1.012 2.807 1.18-2.467.183-1.969.443-2.869 1.267-.833.763-1.08.396-1.24 2.77-.16-2.365-.304-1.827-1.189-2.74-.956-.987-.284-1.102-2.922-1.296 2.551-.188 2.05-.52 2.823-1.236.943-.874.981-1.141 1.287-5.672" fill="#f7ad60"/><path d="M575.281 35.04c.3 4.441.473 4.965 1.3 5.73.54.501.518 1.008 2.81 1.177-2.464.182-1.976.441-2.873 1.262-.83.761-1.077.403-1.237 2.773-.16-2.36-.302-1.833-1.184-2.743-.953-.984-.292-1.098-2.925-1.292 2.546-.188 2.055-.518 2.826-1.232.94-.87.977-1.152 1.283-5.675" fill="#f7ad60"/><path d="M575.281 35.041c.3 4.434.471 4.97 1.294 5.733.54.5.527 1.005 2.814 1.173-2.459.182-1.98.44-2.875 1.258-.828.758-1.073.41-1.233 2.776-.159-2.357-.302-1.839-1.18-2.746-.95-.98-.3-1.094-2.928-1.288 2.54-.187 2.061-.516 2.83-1.227.937-.869.973-1.163 1.278-5.679" fill="#f7ae61"/><path d="M575.281 35.042c.3 4.427.47 4.975 1.29 5.736.54.499.534 1.001 2.817 1.17-2.455.181-1.986.437-2.877 1.253-.826.756-1.07.416-1.23 2.78-.159-2.354-.3-1.846-1.176-2.75-.947-.977-.307-1.09-2.93-1.283 2.534-.187 2.065-.514 2.831-1.224.935-.866.97-1.173 1.275-5.682" fill="#f7ae62"/><path d="M575.281 35.043c.3 4.42.467 4.98 1.286 5.739.538.498.541.998 2.82 1.166-2.45.18-1.992.436-2.88 1.249-.823.754-1.066.423-1.226 2.783-.159-2.35-.3-1.852-1.173-2.753-.943-.974-.314-1.086-2.934-1.28 2.53-.186 2.072-.511 2.836-1.22.932-.862.967-1.183 1.271-5.684" fill="#f7af63"/><path d="M575.281 35.044c.298 4.414.466 4.986 1.282 5.742.537.497.548.994 2.824 1.162-2.447.18-1.999.435-2.884 1.245-.82.752-1.063.43-1.222 2.786-.159-2.346-.299-1.858-1.169-2.756-.94-.97-.322-1.082-2.937-1.275 2.525-.186 2.077-.51 2.84-1.215.928-.861.962-1.195 1.266-5.69" fill="#f7af63"/><path d="M575.281 35.044c.298 4.407.464 4.991 1.278 5.745.535.497.555.991 2.827 1.158-2.443.18-2.005.433-2.887 1.242-.818.75-1.059.436-1.218 2.79-.158-2.344-.298-1.866-1.165-2.76-.937-.968-.33-1.079-2.94-1.272 2.52-.186 2.082-.507 2.842-1.21.926-.859.96-1.206 1.263-5.693" fill="#f7b064"/><path d="M575.281 35.045c.297 4.4.462 4.996 1.274 5.75.534.494.563.985 2.83 1.152-2.439.18-2.01.432-2.89 1.237-.816.747-1.055.444-1.214 2.793-.158-2.339-.297-1.87-1.16-2.763-.935-.964-.338-1.074-2.944-1.267 2.514-.185 2.088-.505 2.845-1.206.923-.856.956-1.217 1.26-5.696" fill="#f7b065"/><path d="M575.281 35.046c.297 4.393.46 5.002 1.27 5.752.533.494.57.983 2.833 1.15-2.435.179-2.016.43-2.893 1.232-.813.745-1.05.451-1.21 2.797-.158-2.335-.296-1.878-1.158-2.767-.93-.96-.344-1.071-2.945-1.262 2.508-.185 2.093-.503 2.848-1.203.92-.853.953-1.227 1.255-5.699" fill="#f8b066"/><path d="M575.281 35.047c.297 4.386.46 5.007 1.266 5.755.532.493.577.979 2.836 1.146-2.43.179-2.022.428-2.896 1.229-.81.742-1.048.456-1.206 2.799-.158-2.331-.295-1.884-1.154-2.77-.927-.957-.352-1.067-2.948-1.258 2.503-.185 2.098-.501 2.851-1.2.917-.85.95-1.236 1.251-5.701" fill="#f8b066"/><path d="M575.281 35.048c.296 4.379.457 5.012 1.261 5.758.532.492.585.976 2.84 1.142-2.427.179-2.028.427-2.899 1.225-.808.74-1.044.463-1.202 2.802-.157-2.327-.294-1.89-1.15-2.773-.924-.953-.359-1.063-2.95-1.254 2.496-.184 2.102-.498 2.853-1.194.914-.847.946-1.248 1.247-5.706" fill="#f8b167"/><path d="M575.281 35.048c.296 4.372.455 5.017 1.257 5.761.531.491.592.972 2.843 1.138-2.422.18-2.034.426-2.902 1.221-.806.737-1.04.47-1.198 2.806-.157-2.324-.293-1.896-1.146-2.777-.92-.95-.367-1.059-2.954-1.25 2.492-.184 2.108-.496 2.857-1.19.911-.844.942-1.259 1.243-5.709" fill="#f8b168"/><path d="M575.281 35.05c.295 4.364.453 5.022 1.253 5.763.53.491.6.97 2.846 1.134-2.418.18-2.04.424-2.905 1.217-.803.735-1.036.477-1.194 2.81-.157-2.32-.293-1.903-1.142-2.78-.918-.948-.375-1.056-2.958-1.247 2.488-.183 2.114-.494 2.861-1.186.908-.84.94-1.269 1.24-5.712" fill="#f8b269"/><path d="M575.281 35.05c.295 4.358.451 5.028 1.25 5.767.528.49.605.965 2.85 1.131-2.416.178-2.047.422-2.91 1.212-.8.733-1.032.484-1.19 2.812-.157-2.316-.292-1.908-1.138-2.782-.915-.944-.383-1.052-2.96-1.242 2.481-.183 2.118-.492 2.863-1.182.905-.839.935-1.28 1.235-5.716" fill="#f8b26a"/><path d="M575.281 35.05c.294 4.353.45 5.034 1.245 5.77.528.49.614.963 2.853 1.128-2.41.178-2.052.42-2.912 1.208-.798.73-1.029.49-1.186 2.816-.156-2.313-.29-1.915-1.135-2.786-.91-.941-.389-1.05-2.963-1.238 2.477-.183 2.125-.49 2.867-1.178.903-.836.932-1.291 1.231-5.72" fill="#f8b36b"/><path d="M575.281 35.052c.294 4.345.448 5.038 1.241 5.773.526.488.621.958 2.856 1.123-2.407.178-2.058.419-2.915 1.204-.796.728-1.025.498-1.182 2.819-.156-2.31-.29-1.921-1.13-2.79-.909-.937-.398-1.044-2.967-1.233 2.471-.182 2.13-.488 2.87-1.173.9-.834.928-1.302 1.227-5.723" fill="#f8b36c"/><path d="M575.281 35.052c.293 4.338.446 5.044 1.237 5.776.525.487.628.955 2.86 1.12-2.403.176-2.065.417-2.919 1.2-.793.725-1.02.503-1.178 2.821-.156-2.305-.289-1.927-1.127-2.792-.905-.934-.405-1.04-2.969-1.23 2.466-.182 2.135-.485 2.873-1.169.897-.83.925-1.312 1.223-5.726" fill="#f8b46d"/><path d="M575.281 35.053c.293 4.331.444 5.05 1.233 5.78.524.485.635.95 2.862 1.114-2.398.177-2.07.417-2.92 1.196-.792.724-1.019.511-1.175 2.826-.156-2.302-.288-1.934-1.123-2.796-.902-.93-.412-1.037-2.972-1.226 2.46-.18 2.14-.483 2.876-1.165.894-.828.921-1.323 1.22-5.729" fill="#f8b46d"/><path d="M575.281 35.054c.292 4.324.443 5.054 1.23 5.783.522.485.641.947 2.864 1.11-2.394.177-2.076.415-2.923 1.192-.789.722-1.015.518-1.17 2.829-.156-2.297-.288-1.94-1.12-2.8-.899-.926-.42-1.032-2.975-1.22 2.455-.181 2.145-.482 2.88-1.161.89-.826.917-1.334 1.214-5.733" fill="#f8b56e"/><path d="M575.281 35.055c.292 4.317.441 5.059 1.224 5.786.523.484.651.943 2.87 1.107-2.39.176-2.082.413-2.927 1.187-.787.719-1.01.525-1.167 2.833-.155-2.295-.286-1.947-1.116-2.803-.895-.924-.427-1.03-2.978-1.217 2.45-.181 2.151-.48 2.883-1.157.888-.823.914-1.344 1.211-5.736" fill="#f8b56f"/><path d="M575.281 35.056c.291 4.31.44 5.065 1.22 5.789.522.483.658.94 2.873 1.103-2.387.176-2.088.412-2.93 1.183-.784.717-1.007.532-1.163 2.836-.155-2.29-.286-1.953-1.112-2.806-.892-.921-.435-1.025-2.98-1.213 2.444-.18 2.155-.477 2.885-1.152.885-.821.91-1.355 1.207-5.74" fill="#f8b670"/><path d="M575.281 35.056c.291 4.304.437 5.07 1.216 5.792.521.482.665.936 2.876 1.1-2.383.175-2.094.41-2.933 1.178-.78.715-1.003.54-1.159 2.84-.155-2.287-.285-1.96-1.108-2.81-.889-.917-.443-1.02-2.984-1.209 2.44-.18 2.162-.474 2.89-1.148.881-.818.906-1.366 1.202-5.743" fill="#f8b671"/><path d="M575.281 35.057c.29 4.297.435 5.075 1.212 5.795.52.481.672.933 2.88 1.095-2.38.176-2.1.41-2.937 1.175-.779.713-1 .545-1.155 2.843-.154-2.283-.284-1.966-1.104-2.813-.886-.914-.45-1.018-2.987-1.205 2.434-.179 2.167-.472 2.891-1.144.88-.815.905-1.376 1.2-5.746" fill="#f8b772"/><path d="M575.281 35.058c.29 4.29.434 5.08 1.208 5.798.52.481.68.929 2.882 1.092-2.374.175-2.106.407-2.939 1.17-.776.711-.996.552-1.15 2.846-.155-2.279-.284-1.972-1.102-2.816-.882-.911-.457-1.014-2.989-1.2 2.43-.179 2.172-.471 2.895-1.14.876-.813.9-1.387 1.195-5.75" fill="#f8b773"/><path d="M575.281 35.059c.29 4.283.432 5.086 1.204 5.8.517.48.687.927 2.885 1.089-2.37.175-2.112.405-2.942 1.166-.774.708-.992.559-1.147 2.849-.154-2.275-.282-1.978-1.097-2.82-.879-.906-.465-1.01-2.992-1.195 2.423-.18 2.177-.47 2.898-1.136.873-.81.897-1.398 1.191-5.753" fill="#f8b773"/><path d="M575.281 35.06c.29 4.276.43 5.09 1.2 5.804.516.479.694.922 2.888 1.084-2.366.174-2.117.404-2.945 1.162-.77.706-.988.566-1.143 2.853-.154-2.272-.28-1.985-1.093-2.823-.876-.904-.472-1.006-2.995-1.192 2.418-.178 2.182-.466 2.9-1.132.871-.806.894-1.408 1.188-5.756" fill="#f8b774"/><path d="M575.281 35.06c.29 4.27.428 5.096 1.196 5.807.515.478.701.92 2.891 1.08-2.362.174-2.123.403-2.948 1.158-.769.704-.985.573-1.139 2.856-.153-2.268-.28-1.99-1.089-2.826-.873-.9-.48-1.002-2.998-1.188 2.412-.178 2.187-.464 2.903-1.127.868-.804.891-1.419 1.184-5.76" fill="#f9b875"/><path d="M575.281 35.061c.288 4.262.426 5.101 1.192 5.811.514.476.708.914 2.894 1.075-2.358.174-2.129.402-2.95 1.154-.767.702-.982.58-1.136 2.86-.153-2.265-.279-1.997-1.085-2.83-.87-.897-.488-.998-3-1.184 2.406-.177 2.191-.46 2.905-1.123.865-.8.887-1.43 1.18-5.763" fill="#f9b876"/><path d="M575.281 35.062c.288 4.255.424 5.107 1.188 5.814.513.475.715.91 2.898 1.072-2.355.173-2.136.399-2.955 1.149-.764.699-.977.587-1.13 2.863-.154-2.261-.279-2.003-1.083-2.833-.866-.894-.494-.994-3.004-1.18 2.402-.176 2.2-.46 2.91-1.118.863-.8.884-1.441 1.176-5.767" fill="#f9b977"/><path d="M575.281 35.063c.287 4.248.423 5.112 1.183 5.817.513.475.723.907 2.902 1.068-2.35.173-2.142.398-2.958 1.145-.76.697-.973.593-1.127 2.866-.153-2.257-.277-2.01-1.078-2.836-.863-.89-.502-.99-3.007-1.175 2.397-.177 2.204-.458 2.913-1.115.86-.796.88-1.451 1.172-5.77" fill="#f9b977"/><path d="M575.281 35.063c.287 4.241.421 5.117 1.18 5.82.511.474.73.904 2.904 1.064-2.346.173-2.147.397-2.96 1.141-.76.695-.97.6-1.124 2.87-.152-2.253-.277-2.016-1.074-2.84-.86-.887-.51-.987-3.01-1.17 2.391-.177 2.21-.456 2.916-1.112.857-.792.877-1.461 1.168-5.772" fill="#f9ba79"/><path d="M575.281 35.064c.286 4.235.42 5.122 1.175 5.823.511.473.737.9 2.908 1.06-2.342.173-2.153.395-2.964 1.137-.756.693-.966.607-1.119 2.873-.152-2.249-.276-2.022-1.07-2.843-.857-.884-.518-.983-3.013-1.167 2.386-.176 2.214-.453 2.92-1.106.853-.79.872-1.473 1.163-5.777" fill="#f9ba79"/><path d="M575.281 35.065c.286 4.228.417 5.128 1.171 5.826.51.472.745.897 2.911 1.056-2.338.173-2.159.394-2.966 1.133-.755.69-.963.614-1.116 2.876-.152-2.245-.275-2.028-1.067-2.846-.853-.88-.524-.979-3.015-1.163 2.38-.175 2.22-.45 2.922-1.102.851-.788.87-1.483 1.16-5.78" fill="#f9bb7a"/><path d="M575.281 35.066c.285 4.22.416 5.133 1.167 5.829.508.47.752.893 2.914 1.053-2.334.172-2.165.392-2.969 1.128-.752.688-.959.62-1.112 2.88-.15-2.242-.274-2.035-1.063-2.85-.85-.877-.532-.975-3.018-1.158 2.375-.175 2.224-.45 2.925-1.098.848-.786.866-1.494 1.156-5.784" fill="#f9bb7a"/><path d="M575.281 35.067c.285 4.214.414 5.138 1.163 5.832.507.47.76.89 2.917 1.049-2.33.172-2.17.39-2.972 1.124-.749.686-.955.628-1.108 2.883-.15-2.238-.273-2.041-1.059-2.852-.847-.874-.54-.972-3.02-1.155 2.368-.175 2.23-.447 2.927-1.094.845-.783.862-1.505 1.152-5.787" fill="#f9bc7b"/><path d="M575.281 35.068c.284 4.207.412 5.143 1.16 5.836.505.468.765.884 2.92 1.043-2.327.172-2.178.39-2.976 1.12-.747.684-.952.634-1.104 2.887-.15-2.235-.272-2.048-1.055-2.856-.844-.87-.547-.968-3.024-1.15 2.364-.175 2.235-.445 2.931-1.09.842-.78.86-1.516 1.148-5.79" fill="#f9bc7c"/><path d="M575.281 35.068c.284 4.2.41 5.15 1.155 5.84.505.467.773.881 2.924 1.04-2.322.171-2.183.387-2.979 1.115-.744.682-.948.641-1.1 2.89-.15-2.23-.27-2.054-1.05-2.859-.842-.868-.556-.964-3.029-1.147 2.36-.174 2.241-.442 2.935-1.085.84-.778.856-1.526 1.144-5.794" fill="#f9bd7d"/><path d="M575.281 35.07c.283 4.192.408 5.153 1.151 5.841.504.467.781.878 2.927 1.037-2.318.17-2.189.385-2.982 1.111-.742.68-.944.648-1.096 2.893-.15-2.227-.27-2.06-1.047-2.862-.838-.864-.563-.96-3.03-1.142 2.353-.174 2.245-.44 2.937-1.082.836-.775.852-1.537 1.14-5.797" fill="#f9bd7e"/><path d="M575.281 35.07c.283 4.186.407 5.159 1.146 5.845.504.466.79.875 2.931 1.033-2.314.17-2.195.384-2.985 1.107-.739.677-.94.655-1.092 2.897-.15-2.224-.269-2.067-1.044-2.866-.834-.861-.57-.957-3.033-1.138 2.348-.173 2.251-.438 2.941-1.078.833-.771.848-1.547 1.136-5.8" fill="#f9bd7f"/><path d="M575.281 35.07c.283 4.18.405 5.165 1.142 5.849.503.465.796.87 2.934 1.029-2.31.17-2.2.383-2.988 1.103-.737.675-.937.662-1.088 2.9-.15-2.22-.268-2.073-1.04-2.87-.83-.857-.577-.952-3.036-1.133 2.343-.173 2.256-.436 2.944-1.073.83-.77.845-1.558 1.132-5.804" fill="#f9be80"/><path d="M575.281 35.072c.282 4.172.403 5.17 1.138 5.85.502.466.803.869 2.937 1.026-2.306.17-2.207.38-2.99 1.098-.735.673-.934.67-1.085 2.904-.15-2.216-.268-2.08-1.036-2.873-.828-.854-.585-.949-3.039-1.13 2.337-.172 2.262-.434 2.947-1.069.827-.766.842-1.569 1.128-5.807" fill="#f9be80"/><path d="M575.281 35.072c.282 4.166.401 5.175 1.134 5.854.5.464.81.864 2.94 1.021-2.302.17-2.212.38-2.994 1.095-.732.67-.929.675-1.08 2.907-.149-2.212-.267-2.086-1.032-2.876-.825-.85-.593-.945-3.042-1.126 2.332-.172 2.267-.43 2.95-1.064.824-.764.838-1.58 1.124-5.81" fill="#f9be81"/><path d="M575.281 35.073c.281 4.16.4 5.18 1.13 5.857.5.463.817.861 2.943 1.018-2.297.17-2.218.378-2.997 1.091-.729.667-.925.681-1.076 2.91-.149-2.209-.266-2.092-1.029-2.88-.82-.848-.599-.94-3.044-1.12 2.327-.173 2.272-.43 2.953-1.062.821-.76.834-1.59 1.12-5.814" fill="#f9bf82"/><path d="M575.281 35.074c.281 4.152.398 5.185 1.126 5.86.498.462.825.857 2.947 1.014-2.294.169-2.225.376-3 1.087-.728.665-.923.688-1.073 2.913-.149-2.205-.265-2.098-1.025-2.883-.818-.844-.607-.937-3.048-1.117 2.322-.171 2.278-.427 2.957-1.057.82-.758.831-1.601 1.116-5.817" fill="#f9bf83"/><path d="M575.281 35.075c.28 4.145.396 5.19 1.122 5.863.497.46.832.854 2.95 1.01-2.29.169-2.23.375-3.004 1.082-.724.664-.918.696-1.068 2.917-.149-2.201-.264-2.104-1.02-2.886-.816-.841-.616-.933-3.052-1.113 2.317-.171 2.283-.425 2.96-1.052.816-.756.827-1.612 1.112-5.821" fill="#fac084"/><path d="M575.281 35.075c.28 4.138.394 5.196 1.118 5.866.496.46.84.85 2.953 1.006-2.286.17-2.237.374-3.007 1.08-.72.66-.914.701-1.064 2.918-.149-2.197-.263-2.11-1.017-2.889-.812-.837-.622-.93-3.054-1.108 2.311-.17 2.288-.424 2.963-1.049.813-.753.824-1.622 1.108-5.824" fill="#fac085"/><path d="M575.281 35.076c.28 4.131.392 5.201 1.114 5.87.495.46.846.846 2.956 1.001-2.282.17-2.243.372-3.01 1.075-.719.658-.91.71-1.06 2.923-.148-2.194-.262-2.117-1.014-2.893-.808-.834-.629-.926-3.056-1.105 2.306-.17 2.293-.42 2.966-1.043.81-.75.82-1.633 1.104-5.828" fill="#fac186"/><path d="M575.281 35.077c.28 4.125.39 5.206 1.11 5.873.494.458.853.842 2.96.998-2.279.168-2.25.37-3.014 1.07-.716.656-.907.716-1.056 2.926-.148-2.19-.26-2.123-1.01-2.896-.805-.83-.637-.922-3.059-1.1 2.3-.17 2.298-.419 2.97-1.04.806-.748.816-1.644 1.1-5.83" fill="#fac287"/><path d="M575.281 35.078c.278 4.118.39 5.212 1.105 5.876.494.457.861.839 2.963.994-2.273.167-2.254.369-3.016 1.066-.714.654-.903.722-1.052 2.929-.148-2.186-.26-2.13-1.006-2.9-.802-.826-.645-.917-3.062-1.095 2.295-.17 2.304-.417 2.972-1.036.804-.745.813-1.654 1.096-5.834" fill="#fac287"/><path d="M575.281 35.079c.278 4.11.387 5.217 1.101 5.879.493.456.87.835 2.966.99-2.269.167-2.26.367-3.018 1.062-.712.652-.9.729-1.049 2.933-.148-2.183-.259-2.136-1.002-2.903-.799-.824-.652-.914-3.065-1.092 2.29-.17 2.31-.414 2.975-1.031.801-.743.81-1.665 1.092-5.838" fill="#fac388"/><path d="M575.281 35.08c.277 4.104.385 5.222 1.097 5.882.491.454.876.831 2.97.985-2.266.168-2.267.367-3.022 1.059-.71.649-.896.736-1.045 2.936-.147-2.18-.259-2.142-.998-2.906-.796-.821-.66-.91-3.068-1.088 2.284-.168 2.314-.412 2.978-1.027.798-.74.806-1.676 1.088-5.841" fill="#fac389"/><path d="M575.281 35.08c.277 4.097.383 5.227 1.093 5.885.49.455.883.828 2.973.982-2.262.167-2.273.365-3.025 1.054-.707.647-.892.743-1.04 2.94-.148-2.175-.259-2.149-.996-2.91-.792-.817-.667-.906-3.07-1.084 2.28-.168 2.32-.41 2.981-1.022.795-.738.803-1.687 1.084-5.845" fill="#fac38a"/><path d="M575.281 35.081c.276 4.09.382 5.233 1.09 5.888.488.454.89.825 2.975.98-2.258.165-2.279.361-3.028 1.048-.705.645-.889.75-1.037 2.943-.147-2.17-.257-2.155-.99-2.912-.79-.815-.675-.904-3.075-1.08 2.274-.168 2.325-.408 2.985-1.019.792-.735.8-1.697 1.08-5.848" fill="#fac38b"/><path d="M575.281 35.082c.276 4.083.38 5.238 1.085 5.89.488.454.897.822 2.98.976-2.255.166-2.285.36-3.032 1.045-.702.643-.885.757-1.033 2.946-.147-2.167-.256-2.161-.987-2.915-.786-.812-.682-.9-3.077-1.076 2.268-.168 2.33-.406 2.988-1.015.79-.731.796-1.708 1.076-5.851" fill="#fac48c"/><path d="M575.281 35.083c.276 4.076.378 5.243 1.081 5.894.487.452.904.818 2.982.97-2.25.167-2.29.36-3.034 1.042-.7.64-.88.763-1.029 2.95-.146-2.164-.255-2.168-.983-2.92-.783-.807-.69-.895-3.08-1.071 2.263-.167 2.336-.404 2.991-1.01.786-.73.792-1.72 1.072-5.855" fill="#fac48d"/><path d="M575.281 35.084c.275 4.068.376 5.247 1.077 5.897.486.45.912.813 2.985.966-2.245.166-2.296.358-3.037 1.037-.697.638-.877.77-1.025 2.953-.146-2.16-.254-2.173-.979-2.921-.78-.805-.698-.892-3.083-1.068 2.258-.166 2.341-.401 2.994-1.006.783-.726.79-1.73 1.068-5.858" fill="#fac58d"/><path d="M575.281 35.084c.275 4.062.374 5.254 1.073 5.901.485.45.92.81 2.988.962-2.24.166-2.302.357-3.04 1.033-.695.636-.874.777-1.02 2.956-.147-2.156-.254-2.18-.977-2.925-.776-.8-.704-.888-3.085-1.064 2.252-.166 2.346-.399 2.997-1.002.78-.723.785-1.739 1.064-5.86" fill="#fac58e"/><path d="M575.281 35.085c.274 4.056.373 5.26 1.068 5.904.485.45.927.806 2.992.96-2.237.164-2.308.354-3.043 1.027-.692.634-.87.784-1.017 2.96-.145-2.153-.252-2.186-.972-2.929-.773-.798-.712-.884-3.088-1.059 2.247-.166 2.351-.397 3-.998.778-.72.782-1.75 1.06-5.865" fill="#fac68f"/><path d="M575.281 35.086c.274 4.049.371 5.264 1.064 5.907.484.448.934.803 2.995.955-2.233.164-2.314.353-3.046 1.024-.69.63-.866.79-1.013 2.963-.145-2.15-.25-2.192-.968-2.932-.77-.795-.72-.88-3.092-1.055 2.242-.166 2.357-.395 3.004-.994.775-.718.778-1.761 1.056-5.868" fill="#fac690"/><path d="M575.281 35.087c.273 4.042.37 5.269 1.06 5.91.483.447.941.799 3 .95-2.23.165-2.32.353-3.05 1.02-.688.63-.863.799-1.01 2.967-.145-2.145-.25-2.198-.964-2.935-.767-.791-.728-.877-3.095-1.051 2.237-.165 2.362-.393 3.007-.99.772-.715.775-1.771 1.052-5.871" fill="#fac791"/><path d="M575.281 35.087c.273 4.035.367 5.275 1.056 5.913.481.446.95.796 3.002.947-2.226.164-2.326.351-3.053 1.016-.684.627-.859.805-1.005 2.97-.145-2.14-.25-2.205-.96-2.939-.764-.788-.735-.873-3.098-1.047 2.231-.164 2.368-.39 3.01-.985.77-.713.771-1.783 1.048-5.875" fill="#fac792"/><path d="M575.281 35.088c.272 4.028.365 5.28 1.052 5.916.48.445.956.792 3.005.943-2.22.164-2.332.35-3.056 1.012-.682.625-.855.811-1 2.973-.146-2.137-.25-2.21-.958-2.942-.76-.785-.742-.869-3.1-1.043 2.226-.164 2.373-.388 3.013-.98.766-.71.768-1.794 1.044-5.879" fill="#fac893"/><path d="M575.281 35.09c.272 4.02.364 5.284 1.048 5.918.48.444.963.79 3.008.94-2.217.163-2.338.347-3.059 1.007-.679.622-.85.818-.997 2.977-.144-2.134-.248-2.218-.953-2.946-.757-.78-.75-.865-3.103-1.038 2.22-.164 2.378-.387 3.015-.977.764-.708.765-1.804 1.041-5.882" fill="#fac894"/><path d="M575.281 35.09c.271 4.014.362 5.29 1.044 5.922.478.444.97.785 3.011.936-2.213.163-2.344.346-3.062 1.003-.677.62-.847.825-.993 2.98-.144-2.13-.247-2.224-.949-2.95-.754-.777-.757-.86-3.106-1.033 2.215-.164 2.383-.384 3.02-.973.76-.705.76-1.815 1.035-5.885" fill="#fbc894"/><path d="M575.281 35.09c.271 4.008.36 5.297 1.04 5.926.477.443.977.782 3.014.932-2.209.163-2.349.344-3.064.999-.675.618-.845.832-.99 2.983-.144-2.126-.246-2.23-.945-2.952-.75-.774-.765-.857-3.109-1.03 2.21-.163 2.388-.382 3.021-.97.758-.701.758-1.824 1.033-5.887" fill="#fbc995"/><path d="M575.281 35.092c.271 4 .358 5.3 1.036 5.929.476.44.984.777 3.017.927-2.205.163-2.355.343-3.068.995-.672.616-.84.839-.985 2.987-.144-2.123-.245-2.237-.94-2.956-.749-.771-.774-.853-3.113-1.026 2.204-.162 2.393-.38 3.024-.964.755-.7.755-1.836 1.03-5.892" fill="#fbc996"/><path d="M575.281 35.092c.27 3.994.357 5.306 1.032 5.932.475.44.991.774 3.02.923-2.2.163-2.36.342-3.07.991-.67.613-.837.846-.982 2.99-.143-2.119-.244-2.243-.938-2.959-.744-.768-.78-.85-3.115-1.022 2.2-.162 2.4-.377 3.028-.96.752-.697.751-1.847 1.025-5.895" fill="#fbc996"/><path d="M575.281 35.093c.27 3.987.355 5.311 1.027 5.935.475.44 1 .77 3.025.92-2.197.162-2.368.34-3.074.986-.668.611-.833.852-.978 2.993-.143-2.115-.244-2.249-.934-2.962-.74-.764-.787-.846-3.118-1.017 2.194-.162 2.405-.376 3.031-.956.75-.694.748-1.858 1.021-5.899" fill="#fbca98"/><path d="M575.281 35.094c.27 3.98.353 5.317 1.023 5.938.474.438 1.007.767 3.028.916-2.193.16-2.374.338-3.077.982-.665.609-.83.859-.974 2.997-.143-2.112-.243-2.256-.93-2.966-.737-.761-.795-.842-3.12-1.013 2.188-.162 2.41-.373 3.033-.952.746-.691.744-1.868 1.017-5.902" fill="#fbca98"/><path d="M575.281 35.095c.268 3.973.351 5.322 1.02 5.94.471.439 1.013.764 3.03.913-2.189.16-2.38.337-3.08.978-.663.607-.826.866-.97 3-.143-2.108-.242-2.262-.926-2.97-.735-.757-.803-.837-3.124-1.008 2.183-.161 2.415-.371 3.037-.948.743-.688.741-1.878 1.013-5.905" fill="#fbcb99"/><path d="M575.281 35.096c.268 3.966.35 5.327 1.015 5.944.471.437 1.021.76 3.034.908-2.185.16-2.386.335-3.083.974-.66.604-.822.873-.966 3.004-.142-2.106-.24-2.27-.923-2.974-.73-.753-.809-.833-3.126-1.004 2.178-.16 2.42-.37 3.04-.944.741-.685.737-1.89 1.01-5.908" fill="#fbcb9a"/><path d="M575.281 35.096c.268 3.96.348 5.332 1.011 5.947.47.436 1.028.756 3.037.904-2.18.161-2.39.334-3.086.97-.658.602-.818.88-.962 3.007-.142-2.1-.24-2.275-.919-2.976-.727-.75-.817-.83-3.129-1 2.172-.16 2.425-.367 3.043-.94.738-.683.734-1.9 1.005-5.912" fill="#fbcc9b"/><path d="M575.281 35.097c.267 3.952.346 5.338 1.007 5.95.47.435 1.036.753 3.04.901-2.177.16-2.397.332-3.089.965-.655.6-.814.887-.958 3.01-.142-2.097-.239-2.28-.915-2.979-.724-.748-.825-.826-3.132-.996 2.167-.16 2.43-.365 3.046-.936.735-.68.73-1.91 1.001-5.915" fill="#fbcc9b"/><path d="M575.281 35.098c.267 3.946.344 5.343 1.003 5.954.468.433 1.043.748 3.043.896-2.173.16-2.403.33-3.092.96-.653.599-.81.895-.954 3.015-.14-2.093-.238-2.287-.91-2.982-.723-.745-.834-.823-3.136-.993 2.161-.16 2.436-.362 3.05-.931.731-.678.726-1.922.996-5.92" fill="#fbcd9c"/><path d="M575.281 35.099c.266 3.939.342 5.348 1 5.957.466.432 1.05.745 3.045.892-2.168.16-2.409.329-3.095.957-.65.596-.807.9-.95 3.017-.14-2.09-.237-2.293-.908-2.985-.718-.742-.839-.82-3.137-.99 2.156-.158 2.441-.36 3.052-.926.73-.675.723-1.932.993-5.922" fill="#fbcd9d"/><path d="M575.281 35.1c.266 3.931.34 5.352.995 5.96.466.431 1.057.74 3.05.887-2.165.16-2.416.328-3.099.953-.647.593-.803.907-.946 3.02-.14-2.085-.236-2.299-.904-2.988-.715-.738-.847-.816-3.14-.985 2.15-.158 2.446-.358 3.055-.922.726-.673.72-1.943.99-5.926" fill="#fbcd9e"/><path d="M575.281 35.1c.265 3.925.34 5.36.99 5.963.466.431 1.065.738 3.054.884-2.16.16-2.42.326-3.102.95-.645.59-.799.913-.942 3.023-.14-2.082-.235-2.306-.9-2.992-.71-.735-.855-.812-3.144-.98 2.146-.159 2.452-.356 3.06-.919.722-.67.715-1.953.984-5.929" fill="#fbcd9f"/><path d="M575.281 35.101c.265 3.918.337 5.364.986 5.966.465.43 1.072.734 3.057.881-2.157.16-2.427.324-3.105.944-.642.59-.796.921-.938 3.027-.14-2.078-.235-2.312-.896-2.995-.708-.732-.862-.808-3.147-.976 2.14-.158 2.457-.354 3.062-.915.72-.667.713-1.964.981-5.932" fill="#fbcea0"/><path d="M575.281 35.102c.264 3.91.335 5.369.982 5.969.463.429 1.08.73 3.06.877-2.153.159-2.433.323-3.108.94-.64.587-.792.928-.934 3.03-.14-2.074-.234-2.318-.892-2.998-.705-.728-.87-.804-3.15-.972 2.135-.158 2.462-.352 3.065-.91.717-.665.71-1.975.977-5.936" fill="#fbcea0"/><path d="M575.281 35.103c.264 3.904.333 5.374.978 5.972.462.428 1.087.727 3.063.873-2.149.158-2.439.32-3.11.937-.638.583-.789.934-.93 3.033-.14-2.071-.234-2.325-.889-3.002-.703-.725-.878-.8-3.153-.968 2.13-.157 2.467-.35 3.068-.906.714-.662.706-1.985.973-5.94" fill="#fbcfa1"/><path d="M575.281 35.103c.263 3.897.331 5.38.974 5.975.461.427 1.094.724 3.066.87-2.144.157-2.445.32-3.114.932-.635.581-.784.94-.926 3.036-.14-2.066-.232-2.33-.885-3.004-.698-.723-.885-.797-3.155-.965 2.124-.156 2.473-.347 3.071-.9.711-.66.702-1.998.97-5.944" fill="#fbcfa2"/><path d="M575.281 35.104c.263 3.89.33 5.385.97 5.978.46.427 1.101.72 3.07.865-2.14.158-2.452.32-3.117.93-.633.578-.78.946-.923 3.04-.14-2.065-.23-2.339-.88-3.01-.697-.718-.893-.793-3.159-.96 2.118-.156 2.478-.345 3.074-.897.708-.656.7-2.007.965-5.946" fill="#fbd0a3"/><path d="M575.281 35.105c.262 3.883.328 5.39.966 5.981.46.426 1.108.717 3.073.862-2.137.157-2.457.316-3.12.924-.63.577-.778.954-.919 3.043-.139-2.059-.23-2.344-.877-3.012-.693-.715-.9-.789-3.16-.955 2.112-.156 2.482-.343 3.076-.894.705-.653.695-2.017.961-5.949" fill="#fbd0a4"/><path d="M575.281 35.106c.262 3.877.326 5.395.962 5.984.458.425 1.115.713 3.076.858-2.133.157-2.463.315-3.123.92-.628.574-.774.96-.915 3.046-.139-2.055-.229-2.35-.873-3.015-.689-.711-.908-.785-3.165-.951 2.11-.156 2.49-.341 3.081-.89.702-.65.692-2.028.957-5.952" fill="#fbd1a5"/><path d="M575.281 35.107c.261 3.87.324 5.4.958 5.988.457.423 1.122.709 3.08.853-2.13.157-2.47.314-3.127.916-.626.572-.77.968-.91 3.05-.14-2.052-.229-2.357-.87-3.02-.686-.707-.915-.78-3.168-.946 2.103-.155 2.494-.338 3.084-.885.7-.648.688-2.04.953-5.956" fill="#fbd1a6"/><path d="M575.281 35.108c.261 3.863.322 5.406.953 5.99.457.423 1.131.706 3.083.85-2.125.157-2.475.312-3.129.912-.623.57-.767.975-.907 3.053-.138-2.048-.227-2.363-.866-3.022-.682-.705-.922-.777-3.17-.943 2.098-.154 2.5-.336 3.087-.881.697-.645.685-2.05.95-5.96" fill="#fcd2a7"/><path d="M575.281 35.108c.261 3.856.321 5.411.95 5.994.455.422 1.137.702 3.085.845-2.12.157-2.48.311-3.132.908-.62.568-.763.981-.903 3.056-.138-2.044-.227-2.369-.862-3.025-.68-.7-.93-.773-3.173-.939 2.092-.154 2.504-.334 3.09-.876.694-.643.681-2.06.945-5.963" fill="#fcd2a7"/><path d="M575.281 35.109c.26 3.849.32 5.416.945 5.997.454.421 1.145.698 3.09.842-2.117.156-2.487.309-3.136.903-.618.566-.759.988-.899 3.06-.138-2.041-.226-2.376-.858-3.029-.677-.698-.938-.769-3.176-.934 2.087-.154 2.51-.332 3.093-.873.691-.64.678-2.071.941-5.966" fill="#fcd2a8"/><path d="M575.281 35.11c.26 3.842.317 5.422.941 6 .453.42 1.152.695 3.092.838-2.112.156-2.492.307-3.138.899-.616.563-.755.995-.895 3.063-.138-2.037-.225-2.382-.855-3.032-.672-.695-.944-.765-3.178-.93 2.081-.154 2.515-.33 3.096-.868.688-.638.674-2.082.937-5.97" fill="#fcd2a9"/><path d="M575.281 35.11c.26 3.836.315 5.428.937 6.004.452.419 1.16.69 3.095.834-2.108.156-2.498.306-3.14.895-.614.56-.752 1.002-.892 3.067-.137-2.034-.224-2.39-.85-3.036-.67-.691-.953-.762-3.182-.926 2.076-.153 2.52-.328 3.1-.864.684-.635.67-2.093.932-5.973" fill="#fcd3aa"/><path d="M575.281 35.111c.26 3.828.314 5.432.933 6.006.451.418 1.167.688 3.098.83-2.104.155-2.504.305-3.144.891-.61.56-.748 1.01-.887 3.07-.137-2.03-.223-2.395-.847-3.039-.666-.688-.96-.758-3.185-.922 2.071-.152 2.526-.325 3.103-.86.682-.632.667-2.103.93-5.976" fill="#fcd3aa"/><path d="M575.281 35.112c.258 3.822.312 5.437.93 6.01.45.416 1.173.683 3.101.825-2.1.155-2.51.304-3.148.887-.608.557-.744 1.016-.883 3.073-.137-2.026-.222-2.4-.843-3.042-.664-.685-.967-.754-3.188-.918 2.066-.152 2.531-.323 3.106-.855.68-.63.664-2.114.925-5.98" fill="#fcd4ac"/><path d="M575.281 35.113c.258 3.815.31 5.443.925 6.012.45.417 1.181.681 3.105.823-2.097.154-2.517.301-3.15.882-.606.554-.74 1.022-.88 3.077-.137-2.023-.22-2.407-.839-3.046-.66-.68-.975-.75-3.19-.913 2.06-.152 2.535-.322 3.108-.852.676-.627.66-2.124.921-5.983" fill="#fcd4ac"/><path d="M575.281 35.114c.257 3.808.308 5.448.921 6.015.448.416 1.188.677 3.108.819-2.092.154-2.522.3-3.154.878-.603.552-.736 1.029-.875 3.08-.136-2.02-.22-2.413-.836-3.05-.657-.677-.982-.745-3.193-.908 2.055-.152 2.542-.32 3.112-.847.673-.625.657-2.136.917-5.987" fill="#fcd5ad"/><path d="M575.281 35.115c.257 3.8.306 5.453.917 6.019.447.414 1.195.673 3.111.814-2.088.154-2.528.299-3.157.874-.6.55-.733 1.036-.87 3.083-.137-2.014-.22-2.42-.833-3.051-.653-.675-.99-.743-3.196-.906 2.05-.151 2.547-.317 3.115-.843.67-.621.653-2.146.913-5.99" fill="#fcd5ad"/><path d="M575.281 35.115c.256 3.794.305 5.458.912 6.022.447.413 1.203.67 3.115.81-2.084.154-2.534.297-3.159.87-.599.548-.73 1.043-.868 3.087-.136-2.01-.218-2.426-.828-3.055-.65-.671-.997-.738-3.199-.901 2.044-.152 2.552-.315 3.118-.84.667-.617.65-2.155.91-5.992" fill="#fcd6ae"/><path d="M575.281 35.116c.256 3.787.303 5.464.908 6.025.445.412 1.21.666 3.118.806-2.08.154-2.54.296-3.162.866-.596.545-.726 1.05-.864 3.09-.136-2.007-.218-2.432-.824-3.058-.647-.669-1.005-.736-3.202-.898 2.04-.15 2.557-.312 3.121-.834.664-.616.646-2.168.905-5.997" fill="#fcd6af"/><path d="M575.281 35.117c.255 3.78.301 5.47.904 6.028.444.411 1.218.662 3.121.803-2.076.153-2.546.293-3.165.861-.594.543-.722 1.057-.86 3.093-.135-2.003-.217-2.438-.82-3.06-.644-.666-1.013-.733-3.205-.894 2.033-.15 2.562-.31 3.124-.83.661-.614.643-2.179.901-6" fill="#fcd6b0"/><path d="M575.281 35.118c.255 3.773.3 5.474.9 6.03.443.412 1.225.66 3.125.8-2.073.153-2.552.292-3.169.857-.59.54-.718 1.063-.856 3.097-.135-2-.216-2.445-.817-3.065-.64-.662-1.02-.728-3.208-.89 2.028-.15 2.568-.307 3.128-.826.66-.61.64-2.188.897-6.003" fill="#fcd7b1"/><path d="M575.281 35.119c.255 3.766.297 5.479.896 6.034.442.41 1.232.655 3.128.795-2.068.153-2.558.29-3.172.853-.589.539-.715 1.07-.852 3.1-.135-1.996-.215-2.451-.813-3.068-.638-.66-1.027-.724-3.21-.885 2.022-.15 2.572-.306 3.13-.822.656-.608.636-2.2.893-6.007" fill="#fcd7b2"/><path d="M575.281 35.12c.254 3.76.296 5.484.892 6.036.441.41 1.24.652 3.131.791-2.064.153-2.564.29-3.175.85-.586.535-.71 1.076-.848 3.103-.135-1.993-.214-2.458-.809-3.072-.634-.655-1.035-.72-3.214-.88 2.018-.149 2.58-.305 3.134-.819.653-.605.632-2.21.89-6.01" fill="#fcd8b3"/><path d="M575.281 35.12c.254 3.753.294 5.49.888 6.04.44.408 1.246.648 3.134.787-2.06.152-2.57.288-3.178.845-.583.534-.707 1.084-.844 3.107-.134-1.989-.213-2.464-.805-3.075-.63-.652-1.043-.716-3.217-.877 2.012-.148 2.584-.3 3.136-.813.651-.603.63-2.22.886-6.014" fill="#fcd8b3"/><path d="M575.281 35.121c.253 3.746.292 5.495.884 6.043.44.407 1.254.645 3.137.784-2.056.151-2.576.286-3.18.84-.582.532-.704 1.091-.84 3.11-.135-1.985-.213-2.47-.803-3.078-.628-.648-1.049-.712-3.219-.872 2.007-.148 2.59-.3 3.14-.81.647-.6.625-2.231.881-6.017" fill="#fcd9b4"/><path d="M575.281 35.122c.253 3.739.29 5.5.88 6.047.438.406 1.261.64 3.14.779-2.052.15-2.582.285-3.184.836-.579.53-.7 1.098-.836 3.114-.134-1.981-.21-2.477-.798-3.082-.624-.645-1.057-.71-3.222-.868 2.001-.148 2.594-.298 3.142-.806.645-.597.623-2.242.878-6.02" fill="#fcd9b5"/><path d="M575.281 35.123c.252 3.732.288 5.506.875 6.05.437.405 1.27.637 3.144.775-2.048.15-2.588.283-3.187.832-.576.528-.696 1.105-.832 3.117-.134-1.977-.21-2.483-.794-3.085-.62-.642-1.065-.705-3.225-.864 1.996-.147 2.6-.295 3.145-.801.642-.595.62-2.253.874-6.024" fill="#fcdab6"/><path d="M575.281 35.123c.252 3.725.287 5.511.871 6.053.436.404 1.276.633 3.147.771-2.044.151-2.593.282-3.19.828-.573.525-.692 1.111-.828 3.121-.133-1.974-.209-2.49-.79-3.089-.619-.638-1.073-.7-3.228-.86 1.99-.146 2.604-.293 3.148-.797.64-.592.615-2.263.87-6.027" fill="#fcdab7"/><path d="M575.281 35.124c.251 3.718.285 5.516.867 6.056.435.403 1.283.63 3.151.767-2.04.151-2.6.281-3.194.824-.57.523-.689 1.118-.824 3.124-.133-1.97-.209-2.495-.786-3.092-.615-.635-1.08-.697-3.232-.856 1.986-.146 2.611-.29 3.152-.793.636-.589.612-2.274.866-6.03" fill="#fddbb8"/><path d="M575.281 35.125c.251 3.711.283 5.521.863 6.059.434.402 1.29.626 3.154.764-2.036.15-2.606.278-3.197.819-.568.521-.685 1.125-.82 3.127-.133-1.966-.208-2.501-.782-3.095-.612-.632-1.088-.693-3.235-.851 1.98-.146 2.616-.289 3.155-.789.633-.587.61-2.285.862-6.034" fill="#fddbb8"/><path d="M575.281 35.126c.25 3.704.281 5.527.86 6.062.432.4 1.297.623 3.156.76-2.032.15-2.612.277-3.2.815-.566.519-.68 1.132-.816 3.13-.133-1.962-.207-2.507-.779-3.098-.609-.628-1.095-.69-3.237-.847 1.975-.146 2.621-.287 3.158-.785.63-.584.605-2.295.858-6.037" fill="#fddbb9"/><path d="M575.281 35.127c.25 3.698.28 5.532.855 6.065.432.4 1.305.619 3.16.756-2.028.15-2.618.276-3.203.81-.563.517-.677 1.14-.812 3.135-.132-1.96-.206-2.514-.775-3.102-.605-.625-1.103-.685-3.24-.843 1.97-.145 2.626-.284 3.161-.78.627-.582.601-2.307.854-6.041" fill="#fddbb9"/><path d="M575.281 35.127c.25 3.691.278 5.537.851 6.068.431.4 1.312.616 3.163.752-2.024.15-2.623.274-3.206.807-.56.514-.673 1.146-.808 3.137-.132-1.955-.205-2.52-.77-3.105-.604-.62-1.11-.68-3.244-.839 1.964-.144 2.631-.282 3.164-.776.624-.578.598-2.317.85-6.044" fill="#fddcbb"/><path d="M575.281 35.128c.25 3.684.276 5.542.847 6.071.43.4 1.32.612 3.166.748-2.02.15-2.629.273-3.208.803-.559.512-.67 1.152-.805 3.141-.132-1.952-.204-2.527-.767-3.109-.599-.618-1.118-.678-3.246-.835 1.96-.144 2.636-.28 3.167-.772.622-.575.595-2.327.846-6.047" fill="#fddcbb"/><path d="M575.281 35.129c.248 3.677.274 5.548.842 6.075.43.397 1.327.608 3.17.744-2.015.148-2.635.271-3.212.798-.556.51-.666 1.159-.8 3.144-.132-1.948-.203-2.533-.764-3.112-.595-.615-1.124-.674-3.248-.83 1.953-.144 2.641-.278 3.17-.768.62-.573.591-2.338.842-6.051" fill="#fdddbc"/><path d="M575.281 35.13c.248 3.67.272 5.553.838 6.078.43.396 1.334.604 3.173.74-2.01.148-2.64.269-3.214.794-.554.507-.663 1.166-.797 3.148-.13-1.945-.202-2.54-.76-3.116-.592-.611-1.132-.67-3.252-.826 1.95-.144 2.648-.276 3.174-.764.616-.57.588-2.35.838-6.054" fill="#fdddbd"/><path d="M575.281 35.13c.248 3.664.271 5.559.834 6.082.427.395 1.342.6 3.177.736-2.008.148-2.648.268-3.218.79-.55.505-.659 1.173-.793 3.15-.13-1.94-.202-2.545-.756-3.118-.589-.608-1.14-.666-3.255-.822 1.943-.143 2.653-.274 3.177-.76.613-.567.584-2.36.834-6.057" fill="#fddebe"/><path d="M575.281 35.131c.247 3.656.27 5.563.83 6.084.426.395 1.35.597 3.18.732-2.004.148-2.653.267-3.22.787-.55.502-.657 1.18-.79 3.153-.13-1.936-.2-2.552-.752-3.122-.587-.605-1.148-.662-3.258-.818 1.938-.142 2.658-.27 3.18-.755.61-.565.58-2.37.83-6.06" fill="#fddebf"/><path d="M575.281 35.132c.247 3.65.267 5.57.826 6.087.425.394 1.356.594 3.183.73-2 .146-2.659.263-3.224.781-.546.5-.652 1.186-.785 3.157-.13-1.933-.2-2.559-.748-3.125-.583-.602-1.155-.659-3.26-.814 1.931-.143 2.662-.27 3.182-.752.607-.562.577-2.38.826-6.064" fill="#fddfc0"/><path d="M575.281 35.133c.246 3.643.265 5.574.822 6.09.424.393 1.363.59 3.186.725-1.996.147-2.665.263-3.227.778-.544.497-.648 1.193-.78 3.16-.13-1.929-.2-2.565-.746-3.128-.579-.599-1.162-.655-3.263-.81 1.927-.142 2.668-.267 3.186-.747.604-.56.574-2.392.822-6.068" fill="#fddfc0"/><path d="M575.281 35.134c.246 3.636.263 5.579.818 6.093.423.392 1.37.587 3.19.72-1.992.148-2.672.263-3.23.775-.542.495-.645 1.199-.778 3.163-.13-1.925-.198-2.571-.74-3.131-.577-.596-1.17-.652-3.267-.806 1.921-.142 2.673-.265 3.19-.743.6-.557.57-2.402.817-6.071" fill="#fde0c1"/><path d="M575.281 35.135c.245 3.629.261 5.584.814 6.096.422.39 1.377.583 3.192.717-1.987.147-2.677.26-3.233.77-.539.493-.64 1.206-.773 3.167-.13-1.922-.197-2.578-.737-3.135-.573-.592-1.178-.648-3.269-.802 1.916-.141 2.678-.263 3.192-.74.598-.553.566-2.412.814-6.073" fill="#fde0c2"/><path d="M575.281 35.135c.245 3.622.26 5.59.81 6.1.421.39 1.385.58 3.195.712-1.983.147-2.683.26-3.236.766-.536.491-.637 1.213-.769 3.17-.13-1.918-.196-2.584-.733-3.138-.57-.589-1.185-.644-3.272-.798 1.91-.14 2.684-.26 3.195-.734.595-.552.563-2.424.81-6.078" fill="#fde0c3"/><path d="M575.281 35.136c.244 3.615.258 5.595.806 6.102.42.39 1.392.576 3.2.71-1.98.145-2.69.257-3.24.761-.535.488-.634 1.22-.766 3.173-.129-1.914-.195-2.59-.729-3.14-.567-.586-1.193-.64-3.276-.794 1.906-.14 2.69-.259 3.2-.73.591-.55.558-2.435.805-6.082" fill="#fde1c3"/><path d="M575.281 35.137c.244 3.608.256 5.6.801 6.106.42.388 1.4.572 3.203.705-1.976.145-2.695.255-3.243.757-.53.486-.629 1.227-.76 3.177-.13-1.911-.195-2.597-.727-3.145-.563-.582-1.2-.636-3.278-.789 1.9-.14 2.695-.257 3.202-.726.59-.547.556-2.446.802-6.085" fill="#fde1c4"/><path d="M575.281 35.138c.243 3.6.254 5.605.797 6.109.418.387 1.407.568 3.206.7-1.972.146-2.7.255-3.246.754-.529.484-.626 1.234-.757 3.18-.129-1.907-.193-2.602-.722-3.148-.56-.58-1.207-.632-3.28-.785 1.894-.14 2.7-.254 3.204-.722.586-.543.552-2.456.798-6.088" fill="#fde1c5"/><path d="M575.281 35.139c.243 3.594.253 5.61.793 6.112.417.386 1.414.565 3.21.697-1.969.145-2.708.253-3.249.749-.527.482-.623 1.24-.754 3.184-.129-1.904-.193-2.61-.718-3.152-.557-.575-1.215-.628-3.284-.781 1.89-.14 2.705-.252 3.208-.718.583-.54.55-2.466.794-6.091" fill="#fde2c5"/><path d="M575.281 35.14c.242 3.586.251 5.615.79 6.114.415.385 1.421.561 3.211.693-1.963.145-2.713.251-3.25.745-.526.48-.62 1.247-.75 3.187-.129-1.899-.193-2.615-.715-3.155-.554-.572-1.223-.625-3.287-.777 1.884-.139 2.711-.249 3.211-.713.581-.538.546-2.477.79-6.095" fill="#fde2c6"/><path d="M575.281 35.14c.242 3.581.25 5.621.785 6.118.415.384 1.43.558 3.215.69-1.959.144-2.719.25-3.254.74-.522.477-.615 1.254-.746 3.19-.128-1.895-.19-2.62-.71-3.158-.55-.569-1.23-.62-3.29-.772 1.878-.139 2.716-.248 3.214-.71.578-.535.542-2.488.786-6.098" fill="#fde3c7"/><path d="M575.281 35.141c.242 3.574.247 5.626.781 6.121.414.384 1.436.554 3.218.686-1.955.144-2.724.248-3.257.736-.52.475-.61 1.261-.742 3.194-.128-1.892-.19-2.628-.707-3.162-.547-.565-1.237-.617-3.292-.768 1.873-.138 2.721-.246 3.217-.705.575-.533.538-2.499.782-6.102" fill="#fde3c8"/><path d="M575.281 35.142c.241 3.567.245 5.632.777 6.124.413.383 1.443.55 3.221.682-1.95.144-2.73.246-3.26.732-.517.473-.608 1.268-.738 3.197-.128-1.888-.189-2.634-.703-3.165-.544-.562-1.245-.613-3.295-.764 1.867-.138 2.726-.243 3.22-.701.572-.53.535-2.51.778-6.105" fill="#fee4c9"/><path d="M575.281 35.143c.241 3.56.244 5.637.773 6.127.412.382 1.45.547 3.225.678-1.948.144-2.737.245-3.264.728-.515.47-.604 1.275-.734 3.2-.127-1.884-.188-2.64-.699-3.168-.54-.558-1.253-.61-3.299-.76 1.863-.137 2.732-.241 3.224-.697.57-.527.531-2.52.774-6.108" fill="#fde4ca"/><path d="M575.281 35.143c.24 3.553.242 5.642.77 6.13.41.381 1.456.544 3.227.674-1.943.144-2.743.244-3.267.724-.512.468-.6 1.281-.73 3.204-.127-1.88-.187-2.647-.695-3.172-.538-.555-1.26-.605-3.302-.756 1.858-.137 2.737-.239 3.227-.692.566-.525.528-2.53.77-6.112" fill="#fee5cb"/><path d="M575.281 35.144c.24 3.546.24 5.647.765 6.133.41.38 1.464.54 3.231.671-1.939.143-2.749.241-3.27.72-.509.465-.596 1.287-.726 3.206-.127-1.877-.186-2.653-.692-3.175-.534-.552-1.267-.6-3.304-.75 1.852-.138 2.742-.238 3.23-.69.563-.522.524-2.54.766-6.115" fill="#fee5cb"/><path d="M575.281 35.145c.24 3.539.238 5.653.76 6.137.41.378 1.473.536 3.235.666-1.935.142-2.755.24-3.273.715-.507.464-.593 1.295-.722 3.211-.127-1.874-.185-2.66-.688-3.179-.53-.548-1.275-.597-3.307-.747 1.847-.136 2.747-.235 3.233-.685.56-.519.521-2.552.762-6.118" fill="#fee5cc"/><path d="M575.281 35.146c.24 3.532.237 5.658.756 6.14.408.378 1.48.532 3.238.662-1.93.142-2.76.239-3.276.71-.504.463-.589 1.303-.718 3.215-.126-1.87-.185-2.666-.684-3.182-.528-.545-1.283-.594-3.31-.743 1.841-.136 2.753-.233 3.236-.68.557-.517.517-2.563.758-6.122" fill="#fee5cc"/><path d="M575.281 35.147c.238 3.526.235 5.663.752 6.143.407.377 1.487.529 3.241.658-1.927.142-2.766.237-3.279.707-.502.459-.585 1.309-.714 3.217-.126-1.866-.184-2.672-.68-3.184-.525-.543-1.29-.591-3.313-.74 1.836-.135 2.758-.23 3.24-.676.553-.514.513-2.573.753-6.125" fill="#fee6cd"/><path d="M575.281 35.147c.238 3.518.233 5.668.748 6.146.406.376 1.494.525 3.244.654-1.923.142-2.772.236-3.282.703-.499.457-.58 1.316-.71 3.221-.126-1.863-.183-2.679-.677-3.189-.52-.538-1.297-.586-3.315-.735 1.83-.135 2.763-.228 3.242-.67.551-.513.51-2.586.75-6.13" fill="#fee6ce"/><path d="M575.281 35.148c.237 3.512.231 5.674.744 6.15.405.374 1.501.521 3.248.65-1.92.141-2.779.234-3.286.698-.497.455-.577 1.322-.706 3.224-.126-1.858-.182-2.685-.673-3.19-.518-.537-1.305-.584-3.319-.733 1.826-.134 2.77-.226 3.246-.667.548-.509.507-2.595.746-6.132" fill="#fee7cf"/><path d="M575.281 35.149c.237 3.505.23 5.679.74 6.152.404.374 1.508.518 3.251.647-1.915.141-2.785.232-3.289.694-.494.453-.574 1.329-.702 3.227-.125-1.854-.18-2.691-.669-3.194-.515-.533-1.312-.579-3.322-.727 1.82-.134 2.774-.224 3.25-.664.544-.505.502-2.605.741-6.135" fill="#fee7d0"/><path d="M575.281 35.15c.237 3.498.228 5.684.736 6.155.403.374 1.516.515 3.254.643-1.91.14-2.79.23-3.292.69-.492.45-.57 1.336-.698 3.23-.125-1.85-.18-2.697-.665-3.197-.512-.53-1.32-.575-3.325-.723 1.815-.134 2.78-.222 3.252-.66.543-.502.5-2.615.738-6.138" fill="#fee8d1"/><path d="M575.281 35.15c.236 3.492.226 5.69.732 6.159.402.373 1.523.51 3.257.639-1.907.14-2.796.23-3.295.686-.489.448-.566 1.343-.694 3.234-.125-1.847-.179-2.703-.66-3.201-.51-.526-1.329-.571-3.329-.72 1.81-.132 2.785-.218 3.255-.654.54-.5.496-2.627.734-6.142" fill="#fee8d2"/><path d="M575.281 35.151c.235 3.484.224 5.695.727 6.161.402.372 1.531.508 3.261.635-1.903.141-2.802.228-3.298.682-.487.446-.562 1.35-.69 3.238-.125-1.844-.178-2.71-.658-3.205-.505-.522-1.335-.568-3.33-.715 1.804-.133 2.79-.217 3.258-.65.537-.498.493-2.638.73-6.146" fill="#fee8d2"/><path d="M575.281 35.152c.235 3.477.222 5.7.723 6.164.401.371 1.538.504 3.264.632-1.899.14-2.808.226-3.3.677-.485.444-.56 1.357-.687 3.241-.125-1.84-.177-2.716-.654-3.208-.502-.519-1.342-.564-3.333-.71 1.8-.133 2.795-.216 3.26-.647.535-.495.49-2.648.727-6.149" fill="#fee9d3"/><path d="M575.281 35.153c.235 3.47.22 5.705.72 6.168.398.369 1.544.5 3.266.627-1.895.14-2.814.225-3.303.673-.483.442-.556 1.364-.683 3.244-.124-1.836-.176-2.722-.65-3.211-.499-.516-1.35-.56-3.336-.706 1.793-.132 2.8-.213 3.263-.643.532-.492.487-2.659.723-6.152" fill="#fee9d4"/><path d="M575.281 35.154c.234 3.463.22 5.71.715 6.17.398.369 1.553.497 3.27.624-1.89.139-2.82.223-3.306.669-.48.439-.552 1.37-.679 3.248-.124-1.833-.175-2.73-.646-3.215-.496-.512-1.358-.556-3.339-.702 1.787-.132 2.805-.211 3.266-.638.53-.49.483-2.67.72-6.156" fill="#fee9d4"/><path d="M575.281 35.155c.234 3.457.217 5.716.711 6.174.397.368 1.56.493 3.274.619-1.887.139-2.826.222-3.31.665-.477.437-.548 1.377-.675 3.25-.124-1.828-.175-2.734-.642-3.217-.493-.51-1.366-.552-3.343-.698 1.783-.131 2.811-.21 3.271-.634.525-.487.48-2.68.714-6.16" fill="#feead5"/><path d="M575.281 35.155c.233 3.45.215 5.721.707 6.177.396.367 1.567.49 3.277.615-1.883.14-2.832.221-3.313.661-.475.435-.544 1.384-.67 3.254-.124-1.825-.175-2.74-.64-3.22-.489-.507-1.372-.549-3.345-.695 1.778-.13 2.816-.206 3.273-.63.523-.484.476-2.69.711-6.162" fill="#feead6"/><path d="M575.281 35.156c.233 3.443.213 5.726.703 6.18.395.366 1.574.486 3.28.612-1.879.138-2.838.218-3.316.656-.472.433-.54 1.391-.667 3.258-.123-1.82-.173-2.748-.635-3.225-.486-.502-1.38-.544-3.348-.689 1.772-.13 2.822-.205 3.276-.626.52-.482.473-2.702.707-6.166" fill="#feebd7"/><path d="M575.281 35.157c.232 3.436.211 5.731.7 6.183.393.365 1.58.482 3.282.608-1.875.138-2.844.217-3.319.652-.47.43-.537 1.398-.663 3.261-.123-1.817-.172-2.754-.63-3.228-.484-.499-1.389-.54-3.352-.685 1.767-.13 2.827-.203 3.28-.622.516-.479.468-2.712.702-6.169" fill="#feebd7"/><path d="M575.281 35.158c.232 3.429.21 5.737.695 6.186.393.364 1.588.479 3.286.604-1.87.138-2.85.216-3.322.648-.467.428-.533 1.405-.659 3.265-.123-1.814-.17-2.761-.627-3.232-.48-.495-1.395-.537-3.354-.681 1.761-.13 2.832-.2 3.282-.617.514-.477.466-2.723.7-6.173" fill="#feecd8"/><path d="M575.281 35.158c.231 3.422.208 5.742.691 6.19.392.362 1.595.474 3.29.6-1.868.137-2.856.214-3.326.643-.465.426-.53 1.412-.655 3.268-.122-1.81-.17-2.767-.624-3.235-.476-.492-1.402-.533-3.356-.677 1.756-.129 2.837-.198 3.285-.613.511-.474.462-2.734.695-6.176" fill="#feecd9"/><path d="M575.281 35.16c.231 3.414.206 5.746.686 6.192.392.362 1.604.471 3.293.595-1.862.138-2.86.213-3.328.64-.462.424-.526 1.418-.65 3.271-.123-1.806-.17-2.773-.62-3.238-.474-.489-1.41-.529-3.36-.673 1.75-.129 2.842-.195 3.288-.609.51-.47.46-2.744.691-6.179" fill="#feecda"/><path d="M575.281 35.16c.23 3.408.204 5.752.682 6.196.39.361 1.611.467 3.297.592-1.859.137-2.868.211-3.332.635-.46.421-.522 1.425-.647 3.275-.122-1.803-.168-2.78-.616-3.242-.47-.485-1.418-.525-3.363-.668 1.746-.129 2.848-.194 3.292-.605.505-.468.455-2.755.687-6.183" fill="#feeddb"/><path d="M575.281 35.16c.23 3.402.202 5.759.678 6.2.39.36 1.618.464 3.3.588-1.855.137-2.874.21-3.335.632-.457.418-.518 1.43-.643 3.277-.122-1.8-.167-2.786-.612-3.245-.467-.482-1.425-.521-3.366-.664 1.74-.128 2.853-.192 3.295-.601.503-.465.452-2.766.683-6.186" fill="#feeddc"/><path d="M575.281 35.162c.23 3.395.201 5.763.674 6.202.388.359 1.625.46 3.303.584-1.85.137-2.88.208-3.338.628-.455.416-.514 1.438-.639 3.28-.12-1.795-.167-2.792-.608-3.248-.464-.48-1.433-.517-3.369-.66 1.735-.128 2.86-.19 3.298-.597.5-.462.448-2.776.68-6.19" fill="#fed"/><path d="M575.281 35.163c.23 3.388.2 5.768.67 6.205.387.358 1.632.457 3.306.58-1.847.136-2.886.207-3.34.624-.453.414-.512 1.445-.636 3.284-.12-1.792-.166-2.798-.604-3.252-.46-.475-1.44-.513-3.372-.656 1.73-.127 2.864-.187 3.301-.592.497-.46.445-2.787.675-6.193" fill="#ffeede"/><path d="M575.281 35.163c.23 3.381.197 5.773.666 6.208.386.358 1.64.453 3.31.576-1.844.136-2.892.206-3.345.62-.45.411-.507 1.452-.63 3.287-.122-1.788-.166-2.804-.602-3.254-.457-.473-1.447-.51-3.374-.653 1.724-.127 2.87-.185 3.304-.588.494-.457.441-2.798.671-6.196" fill="#ffefde"/><path d="M575.281 35.164c.228 3.374.195 5.78.662 6.211.385.357 1.647.45 3.312.573-1.839.135-2.897.203-3.347.615-.447.41-.503 1.458-.627 3.29-.12-1.784-.164-2.81-.597-3.258-.454-.469-1.455-.506-3.377-.647 1.72-.127 2.874-.183 3.307-.584.491-.455.438-2.809.667-6.2" fill="#ffefdf"/><path d="M575.281 35.165c.228 3.367.193 5.784.658 6.214.384.356 1.654.446 3.315.569-1.834.135-2.903.202-3.35.611-.445.407-.499 1.465-.623 3.294-.12-1.78-.163-2.817-.593-3.261-.45-.466-1.463-.503-3.38-.644 1.713-.126 2.88-.181 3.31-.58.488-.452.434-2.819.663-6.203" fill="#fff0e0"/><path d="M575.281 35.166c.227 3.36.192 5.789.654 6.217.382.355 1.661.443 3.318.565-1.83.135-2.909.2-3.352.607-.443.405-.497 1.472-.62 3.297-.12-1.776-.162-2.823-.589-3.264-.448-.463-1.47-.5-3.383-.64 1.708-.126 2.884-.178 3.313-.576.485-.45.431-2.83.66-6.206" fill="#fff0e0"/><path d="M575.281 35.167c.227 3.353.19 5.794.65 6.22.382.354 1.668.439 3.321.56-1.826.136-2.915.2-3.355.604-.44.403-.493 1.479-.616 3.3-.12-1.772-.16-2.83-.586-3.267-.444-.46-1.477-.495-3.386-.636 1.703-.125 2.891-.176 3.317-.571.482-.447.427-2.841.655-6.21" fill="#fff0e1"/><path d="M575.281 35.167c.226 3.346.188 5.8.646 6.224.38.352 1.675.435 3.325.556-1.823.135-2.922.198-3.359.6-.438.4-.489 1.485-.612 3.303-.12-1.769-.16-2.836-.582-3.27-.44-.457-1.485-.492-3.389-.633 1.698-.125 2.896-.174 3.32-.567.48-.444.424-2.85.651-6.213" fill="#fff1e2"/><path d="M575.281 35.168c.226 3.34.186 5.805.641 6.227.38.352 1.683.431 3.33.553-1.82.134-2.928.196-3.363.594-.435.398-.485 1.493-.608 3.307-.119-1.765-.16-2.842-.578-3.274-.438-.453-1.493-.487-3.392-.627 1.692-.125 2.901-.172 3.323-.563.476-.442.42-2.862.647-6.217" fill="#fff1e3"/><path d="M575.281 35.169c.225 3.333.185 5.81.637 6.23.38.35 1.691.428 3.332.549-1.814.134-2.933.194-3.365.59-.433.396-.482 1.5-.604 3.31-.119-1.761-.159-2.848-.574-3.277-.435-.45-1.5-.484-3.395-.623 1.687-.124 2.906-.17 3.326-.56.473-.438.417-2.872.643-6.22" fill="#fff1e4"/><path d="M575.281 35.17c.225 3.326.183 5.815.633 6.233.378.35 1.698.424 3.335.545-1.81.133-2.939.193-3.368.586-.43.394-.478 1.506-.6 3.314-.119-1.758-.158-2.855-.57-3.281-.432-.446-1.508-.48-3.398-.62 1.681-.123 2.911-.167 3.33-.554.47-.436.412-2.883.638-6.223" fill="#fff2e4"/><path d="M575.281 35.17c.224 3.32.181 5.821.63 6.236.376.35 1.704.421 3.337.541-1.806.133-2.945.192-3.37.582-.429.391-.475 1.513-.597 3.317-.119-1.754-.157-2.86-.567-3.284-.428-.443-1.515-.476-3.4-.615 1.676-.123 2.916-.165 3.332-.55.468-.434.41-2.894.635-6.227" fill="#fff2e5"/><path d="M575.281 35.171c.224 3.312.18 5.826.625 6.24.376.347 1.712.416 3.341.536-1.802.133-2.95.19-3.374.578-.425.39-.47 1.52-.592 3.321-.118-1.75-.156-2.868-.563-3.288-.425-.439-1.522-.472-3.403-.61 1.67-.124 2.921-.164 3.335-.547.464-.43.406-2.905.631-6.23" fill="#fff3e6"/><path d="M575.281 35.172c.223 3.305.177 5.831.621 6.242.375.347 1.72.414 3.344.534-1.798.132-2.957.188-3.377.573-.423.387-.466 1.527-.588 3.324-.118-1.747-.155-2.874-.559-3.29-.422-.437-1.53-.469-3.407-.607 1.666-.123 2.927-.16 3.34-.542.461-.428.402-2.916.626-6.234" fill="#fff3e7"/><path d="M575.281 35.173c.223 3.298.175 5.836.617 6.245.373.347 1.726.41 3.348.53-1.795.132-2.963.187-3.38.569-.42.385-.464 1.534-.585 3.328-.118-1.744-.154-2.881-.555-3.295-.419-.433-1.538-.464-3.41-.602 1.66-.123 2.933-.16 3.342-.538.46-.425.4-2.926.623-6.237" fill="#fff4e8"/><path d="M575.281 35.174c.222 3.29.174 5.842.612 6.248.373.346 1.735.407 3.352.526-1.79.132-2.969.185-3.384.565-.418.382-.459 1.54-.58 3.33-.118-1.738-.153-2.886-.55-3.297-.417-.43-1.547-.46-3.414-.598 1.655-.122 2.938-.157 3.345-.534.456-.422.396-2.937.62-6.24" fill="#fff4e8"/><path d="M575.281 35.175c.222 3.284.172 5.847.608 6.25.372.346 1.742.404 3.355.523-1.786.132-2.975.184-3.387.56-.415.38-.455 1.548-.576 3.335-.117-1.735-.152-2.893-.548-3.301-.412-.426-1.552-.456-3.415-.594 1.65-.121 2.943-.154 3.348-.53.453-.42.392-2.947.615-6.243" fill="#fff4e9"/><path d="M575.281 35.175c.221 3.278.17 5.852.604 6.254.371.344 1.75.4 3.358.518-1.782.132-2.98.183-3.39.557-.412.378-.452 1.554-.572 3.338-.117-1.732-.15-2.9-.544-3.305-.409-.422-1.56-.453-3.418-.59 1.644-.12 2.948-.152 3.351-.525.45-.417.39-2.958.611-6.247" fill="#fff4ea"/><path d="M575.281 35.176c.221 3.271.168 5.857.6 6.258.37.342 1.756.395 3.361.514-1.778.131-2.987.18-3.393.552-.41.376-.448 1.561-.568 3.341-.117-1.728-.15-2.905-.54-3.308-.406-.419-1.568-.449-3.42-.585 1.637-.12 2.952-.15 3.353-.522.447-.414.385-2.968.607-6.25" fill="#fff5ea"/><path d="M575.281 35.177c.221 3.264.167 5.863.596 6.261.37.341 1.763.392 3.364.51-1.774.131-2.992.179-3.396.548-.407.374-.444 1.568-.564 3.344-.117-1.724-.15-2.911-.536-3.311-.403-.416-1.575-.445-3.424-.581 1.633-.121 2.96-.148 3.357-.517.444-.412.382-2.98.603-6.254" fill="#fff5eb"/><path d="M575.281 35.178c.22 3.257.165 5.868.592 6.264.368.34 1.77.388 3.367.506-1.77.13-2.998.178-3.398.544-.406.37-.44 1.575-.56 3.348-.117-1.721-.15-2.918-.534-3.315-.399-.412-1.582-.441-3.426-.577 1.628-.12 2.964-.146 3.36-.513.441-.41.378-2.99.6-6.257" fill="#fff6ec"/><path d="M575.281 35.178c.22 3.25.163 5.874.588 6.268.367.34 1.778.385 3.37.502-1.766.13-3.004.176-3.4.54-.404.369-.438 1.582-.558 3.35-.116-1.716-.148-2.923-.529-3.317-.396-.41-1.59-.437-3.429-.573 1.622-.12 2.97-.144 3.363-.508.438-.407.375-3.001.595-6.261" fill="#fff6ed"/><path d="M575.281 35.18c.22 3.242.161 5.877.584 6.27.366.338 1.785.38 3.374.497-1.763.13-3.01.175-3.405.536-.4.367-.434 1.588-.553 3.355-.116-1.714-.147-2.93-.525-3.322-.393-.405-1.598-.433-3.433-.569 1.618-.119 2.975-.14 3.367-.504.435-.404.371-3.012.591-6.264" fill="#fff7ee"/><path d="M575.281 35.18c.22 3.236.16 5.884.58 6.273.365.338 1.792.378 3.377.495-1.758.13-3.017.173-3.408.531-.398.365-.43 1.595-.549 3.358-.116-1.71-.146-2.937-.52-3.324-.39-.403-1.607-.43-3.437-.565 1.612-.119 2.98-.14 3.37-.5.432-.402.368-3.023.587-6.268" fill="#fff7ef"/><path d="M575.281 35.18c.218 3.23.158 5.89.576 6.277.363.337 1.8.374 3.38.49-1.754.13-3.023.172-3.41.528-.397.362-.427 1.602-.546 3.36-.115-1.705-.145-2.942-.517-3.326-.387-.4-1.613-.427-3.439-.561 1.607-.12 2.985-.137 3.372-.496.43-.4.365-3.033.584-6.271" fill="#fff7f0"/><path d="M575.281 35.182c.218 3.222.156 5.894.572 6.279.362.336 1.806.37 3.383.487-1.75.129-3.028.17-3.414.523-.393.36-.422 1.609-.54 3.365-.116-1.702-.145-2.95-.515-3.331-.383-.396-1.62-.423-3.44-.557 1.6-.118 2.99-.135 3.375-.492.426-.396.361-3.044.58-6.274" fill="#fff7f0"/><path d="M575.281 35.182c.217 3.216.154 5.9.567 6.282.362.337 1.815.368 3.387.484-1.746.128-3.034.168-3.417.518-.39.358-.419 1.616-.537 3.368-.115-1.698-.143-2.956-.51-3.334-.38-.392-1.628-.418-3.444-.552 1.596-.117 2.996-.133 3.38-.488.423-.392.356-3.054.574-6.277" fill="#fff8f1"/><path d="M575.281 35.183c.217 3.21.152 5.905.563 6.286.361.334 1.822.363 3.39.478-1.742.13-3.04.167-3.42.515-.388.356-.415 1.623-.533 3.371-.115-1.694-.143-2.962-.506-3.337-.377-.39-1.635-.415-3.447-.549 1.59-.117 3.001-.13 3.381-.483.422-.39.355-3.065.572-6.28" fill="#fff8f1"/><path d="M575.281 35.184c.216 3.202.15 5.91.56 6.29.36.332 1.828.358 3.392.474-1.737.128-3.046.165-3.423.51-.386.353-.41 1.63-.529 3.375-.114-1.69-.142-2.969-.502-3.34-.374-.387-1.643-.412-3.45-.545 1.585-.117 3.006-.129 3.384-.48.42-.387.351-3.076.568-6.284" fill="#fff9f2"/><path d="M575.281 35.185c.216 3.195.15 5.915.555 6.292.36.332 1.836.356 3.397.471-1.734.128-3.053.164-3.427.506-.383.351-.407 1.636-.525 3.378-.114-1.687-.14-2.975-.498-3.344-.37-.383-1.65-.407-3.454-.54 1.58-.117 3.012-.127 3.388-.475.416-.385.348-3.087.564-6.288" fill="#fff9f3"/><path d="M575.281 35.186c.215 3.188.147 5.92.551 6.295.358.33 1.843.352 3.4.467-1.73.128-3.058.162-3.43.502-.38.349-.403 1.643-.52 3.38-.115-1.682-.14-2.98-.496-3.346-.367-.38-1.657-.403-3.456-.536 1.575-.116 3.017-.124 3.391-.471.413-.382.344-3.097.56-6.291" fill="#fffaf4"/><path d="M575.281 35.187c.215 3.18.145 5.925.547 6.298.357.33 1.85.349 3.403.463-1.726.127-3.064.16-3.433.498-.378.347-.4 1.65-.517 3.385-.114-1.68-.139-2.988-.49-3.351-.365-.376-1.666-.4-3.46-.532 1.57-.115 3.022-.122 3.394-.467.41-.38.341-3.107.556-6.294" fill="#fffaf5"/><path d="M575.281 35.187c.215 3.174.143 5.931.543 6.301.356.33 1.857.345 3.406.46-1.722.126-3.07.16-3.436.493-.375.344-.396 1.657-.513 3.388-.113-1.676-.138-2.994-.487-3.354-.36-.373-1.673-.396-3.462-.528 1.564-.115 3.027-.12 3.397-.462.407-.377.337-3.119.552-6.298" fill="#fffaf6"/><path d="M575.281 35.188c.214 3.167.142 5.936.54 6.304.353.33 1.864.342 3.408.456-1.718.126-3.076.157-3.439.49-.373.341-.392 1.663-.509 3.391-.113-1.673-.137-3-.483-3.358-.358-.37-1.68-.392-3.465-.523 1.56-.115 3.033-.118 3.4-.459.404-.374.334-3.129.548-6.3" fill="#fffaf6"/><path d="M575.281 35.189c.214 3.16.14 5.94.535 6.307.353.328 1.872.338 3.412.452-1.714.126-3.082.156-3.442.485-.37.34-.389 1.67-.505 3.395-.113-1.67-.136-3.006-.48-3.361-.354-.366-1.687-.388-3.467-.52 1.553-.114 3.038-.115 3.403-.453.401-.372.33-3.14.544-6.305" fill="#fffbf7"/><path d="M575.281 35.19c.213 3.154.138 5.947.531 6.31.352.327 1.88.335 3.415.448-1.709.126-3.088.155-3.444.482-.369.337-.386 1.676-.502 3.397-.113-1.664-.135-3.012-.476-3.364-.35-.363-1.695-.384-3.47-.515 1.548-.114 3.043-.113 3.406-.45.398-.37.327-3.151.54-6.308" fill="#fffbf8"/><path d="M575.281 35.19c.213 3.148.136 5.953.526 6.314.352.326 1.887.33 3.42.444-1.706.126-3.095.153-3.449.478-.365.334-.38 1.683-.497 3.4-.112-1.66-.134-3.018-.472-3.367-.348-.36-1.703-.38-3.473-.512 1.542-.113 3.048-.11 3.41-.446.394-.365.322-3.16.535-6.31" fill="#fffcf9"/><path d="M575.281 35.191c.212 3.14.134 5.957.522 6.317.351.325 1.894.327 3.423.44-1.702.125-3.1.151-3.45.472-.365.333-.379 1.691-.495 3.405-.112-1.657-.133-3.025-.468-3.37-.345-.357-1.71-.377-3.477-.507 1.538-.114 3.054-.11 3.413-.442.392-.364.32-3.172.532-6.315" fill="#fffcf9"/><path d="M575.281 35.192c.212 3.133.133 5.962.518 6.32.35.324 1.902.323 3.426.436-1.698.125-3.106.15-3.454.47-.36.33-.374 1.696-.49 3.406-.112-1.653-.133-3.03-.465-3.374-.34-.353-1.717-.372-3.479-.502 1.532-.113 3.06-.107 3.416-.438.39-.36.316-3.182.528-6.318" fill="#fffdfa"/><path d="M575.281 35.193c.211 3.126.131 5.968.514 6.323.35.323 1.91.32 3.43.432-1.695.125-3.113.148-3.458.465-.359.328-.37 1.704-.486 3.41-.112-1.65-.132-3.037-.46-3.377-.339-.35-1.726-.37-3.483-.498 1.527-.113 3.065-.105 3.42-.434.385-.358.312-3.193.523-6.321" fill="#fffdfb"/><path d="M575.281 35.194c.211 3.119.13 5.973.51 6.326.348.322 1.916.316 3.432.428-1.69.125-3.118.147-3.46.46-.356.327-.367 1.712-.482 3.415-.11-1.646-.13-3.044-.457-3.381-.335-.346-1.732-.365-3.485-.494 1.521-.112 3.07-.103 3.422-.43.384-.354.31-3.203.52-6.324" fill="#fffefc"/><path d="M575.281 35.194c.211 3.112.127 5.978.506 6.33.347.32 1.923.312 3.435.423-1.686.125-3.124.146-3.463.457-.354.323-.363 1.717-.478 3.418-.11-1.643-.13-3.05-.453-3.385-.332-.342-1.74-.36-3.488-.49 1.516-.11 3.075-.1 3.425-.425.381-.351.305-3.213.516-6.327" fill="#fffefc"/><path d="M575.281 35.195c.21 3.105.125 5.983.502 6.332.345.32 1.93.31 3.438.421-1.68.124-3.129.143-3.466.452-.35.321-.359 1.724-.474 3.421-.11-1.639-.129-3.057-.449-3.388-.329-.339-1.748-.357-3.49-.485 1.51-.112 3.08-.099 3.427-.42.378-.35.302-3.227.512-6.333" fill="#fffefd"/><path d="M575.281 35.196c.21 3.1.124 5.99.497 6.335.345.32 1.938.306 3.442.417-1.677.123-3.135.142-3.469.448-.349.32-.356 1.731-.47 3.424-.11-1.635-.128-3.063-.445-3.39-.326-.337-1.756-.354-3.494-.482 1.505-.11 3.085-.097 3.431-.417.375-.347.3-3.236.508-6.335" fill="#fffefe"/><path d="M575.281 35.197c.21 3.092.122 5.994.493 6.338.344.319 1.946.302 3.446.413-1.674.123-3.142.14-3.473.444-.346.317-.352 1.738-.466 3.428-.11-1.632-.127-3.07-.442-3.394-.322-.333-1.762-.35-3.497-.478 1.5-.111 3.091-.094 3.435-.413.372-.344.295-3.246.504-6.338" fill="#fff"/></g></svg>