<?xml version="1.0" encoding="utf-8"?>
<!-- Generator: Adobe Illustrator 18.1.1, SVG Export Plug-In . SVG Version: 6.00 Build 0)  -->
<!DOCTYPE svg PUBLIC "-//W3C//DTD SVG 1.1//EN" "http://www.w3.org/Graphics/SVG/1.1/DTD/svg11.dtd">
<svg version="1.1" id="Layer_1" xmlns="http://www.w3.org/2000/svg" xmlns:xlink="http://www.w3.org/1999/xlink" x="0px" y="0px"
	 width="178.4px" height="271.1px" viewBox="-60 15.9 178.4 271.1" enable-background="new -60 15.9 178.4 271.1"
	 xml:space="preserve">
<g>
	<g>
		<path fill="#ECC19C" d="M81.8,313c1.3-8.1-1.7-26-1.7-26l0.3-7.9l8.8,4.5c0,0,4.9,13.9,4.4,29.4"/>
	</g>
	<g>
		<path fill="#ECC19C" d="M-0.7,313c-1.7-8.8-0.3-23.9-0.3-23.9l-7.6-4.2l-2.9,4.1c0,0-2.8,15.6-0.4,24"/>
	</g>
	<g>
		<defs>
			<path id="SVGID_1_" d="M16.4,229.3c-14.9,0.4-26,18-26.9,28.1c-1,10.1-6.2,16.7-8.6,25.9S7,288.2,7,288.2l0.1,0.7L7.6,313h62.4
				l-0.6-26.8l-0.1-4.7c1.4,6.3,1.8,6.9,9.6,5.7c7.8-1.2,17.8-7.8,19.7-10.7c1.9-2.9-5.1-9.1-8.7-15.2c-3.6-6.1-7.1-15.4-13.4-21.9
				c-6.2-6.4-16.1-9.1-21.9-9.5"/>
		</defs>
		<use xlink:href="#SVGID_1_"  overflow="visible" fill="#56D9CD"/>
		<clipPath id="SVGID_2_">
			<use xlink:href="#SVGID_1_"  overflow="visible"/>
		</clipPath>
		<path clip-path="url(#SVGID_2_)" fill="#4ABAB0" d="M16.5,231.2c0,0-17.3,12.1-19.8,25.5c-2.5,13.4-11.4,23.7-8,25.3
			c3.4,1.6,13.7-0.9,13.7-0.9l0.7-10c0,0-7.5-3-3-7c4.5-3.9,6.1-0.2,6.1-0.2s-0.7-8.4,5.9-3c6.6,5.4,0,13.4,0,13.4l-0.7,41.2
			l56.2,1.1l-2.5-38.9c0,0-10-8.7-7.1-12.3c2.9-3.6,10,2.3,10,2.3s3.4-8.7,7.1-5.4c3.7,3.4-0.5,13.7-0.5,13.7l0.7,5.7
			c0,0,20.5-5.2,23.2-12c2.7-6.8,7.1,8,7.1,8l-18.4,30.9l-13,19.6l-24.4,2.1l-11.2-2.3l-42.6-13.4L-22,297.2l-7.1-33.5L3.7,226
			l15.7-6.1L16.5,231.2z"/>
	</g>
	<g>
		<defs>
			<path id="SVGID_3_" d="M22.7,224.8c0,0-5.6-1.9-6.2,4c-0.6,5.9,6.4,12.5,20.7,11.5c14.3-1,17.5-6.6,17.6-10.3
				c0.1-3.7-1.6-6.8-7.9-5.8"/>
		</defs>
		<use xlink:href="#SVGID_3_"  overflow="visible" fill="#56D9CD"/>
		<clipPath id="SVGID_4_">
			<use xlink:href="#SVGID_3_"  overflow="visible"/>
		</clipPath>
		<path clip-path="url(#SVGID_4_)" fill="#4ABAB0" d="M27.3,230.8c0,0-3.7,3.5-3.7,7.8c0,0-8-3.5-7.8-12.6c0.3-9.1,2.9-8.6,3.7-8.6
			c0.8,0,5.1,6.2,5.1,6.2L27.3,230.8z"/>
	</g>
	<g>
		<defs>
			<path id="SVGID_5_" d="M109,119.5c0,0,4-34.8-1.6-51.1c-5.6-16.3-21.7-15.8-21.7-15.8S54.4-0.4-8.5,28.5c0,0,10.8-2,14.6-1.5
				c0,0-34.3,11.2-48.7,33.6s-7.4,62.5-7.4,62.5l19.3,16.9l83.9,6.4l24.6-8.6L109,119.5z"/>
		</defs>
		<use xlink:href="#SVGID_5_"  overflow="visible" fill="#695D46"/>
		<clipPath id="SVGID_6_">
			<use xlink:href="#SVGID_5_"  overflow="visible"/>
		</clipPath>
		<path clip-path="url(#SVGID_6_)" fill="#5C503D" d="M59.9,56.8c0,0-39-6.6-40.1-17.3s-7-14.7-16.6-12.3s-65.8,26.2-65.8,26.2
			l0.5,53.3l7.2,33.5l35.3-8.8L59.9,56.8z"/>
	</g>
	<g>
		<path fill="#ECC19C" d="M97,120.9c0,0,3.3-4.7,9.4-2.9c6.1,1.9,9.5,14.2,7.6,25.6c-1.9,11.4-13,21.3-19.6,11.1"/>
	</g>
	<g>
		<path fill="#ECB484" d="M-41.1,125.4c0,0-7.7-6.3-13.1,2s0.8,33.9,20.6,32.2"/>
	</g>
	<g>
		<defs>
			<path id="SVGID_7_" d="M80,70.6c0,0,2.5,19.8,15,33.3c0,0,17.9,102.2-62.4,102.2s-77.1-98.5-72.3-118.8
				C-34.9,67-5.4,54.7-5.4,54.7s9.9,12,31.3,7c0,0-12.3-2.4-13.9-10.2c0,0,24.9,8.3,47.9,5.4C59.9,56.8,65,70.2,80,70.6z"/>
		</defs>
		<use xlink:href="#SVGID_7_"  overflow="visible" fill="#ECC19C"/>
		<clipPath id="SVGID_8_">
			<use xlink:href="#SVGID_7_"  overflow="visible"/>
		</clipPath>
		<path clip-path="url(#SVGID_8_)" fill="#ECB484" d="M-2.4,59c0,0-30,13.9-29.4,43.1c0.5,29.2,11,88.6,57.3,92.1
			s61.8-17.7,69.3-35.6c7.5-17.9-11.8,55.7-11.8,55.7l-23.5,17.4l-83.8-27.3l-26.5-66.1l-0.3-64.5l26-27.8l23.8,2.1L-2.4,59z"/>
	</g>
	<g>
		<path fill="#695D46" d="M-17.5,108c0,0,3.6-5.5,22.3-8.4l-3.3-8.8c0,0-8.8,0.3-20.6,8.7L-17.5,108z"/>
	</g>
	<g>
		<path fill="#695D46" d="M70.4,108c0,0-3.6-5.5-22.3-8.4l3.3-8.8c0,0,8.8,0.3,20.6,8.7L70.4,108z"/>
	</g>
	<g>
		<defs>
			<path id="SVGID_9_" d="M23.2,205.9c0,0,1,13.8-1.3,21.6c0,0,5,5.4,14.2,5.9c9.2,0.4,11.1-6.6,11.1-6.6s-2.4-14.9-2.2-21.1"/>
		</defs>
		<use xlink:href="#SVGID_9_"  overflow="visible" fill="#ECC19C"/>
		<clipPath id="SVGID_10_">
			<use xlink:href="#SVGID_9_"  overflow="visible"/>
		</clipPath>
		<path clip-path="url(#SVGID_10_)" fill="#ECB484" d="M45.3,209.7l-15.5,6.4l-0.5,10.2c0,0,12.1,6.1,17.6-2.1s11.6,26.1,11.6,26.1
			s-57-0.3-57-2.9c0-2.7,12-51.9,12-51.9s25.2-5.1,26.5-4.8c1.3,0.3,15.5,14.7,15.5,14.7L45.3,209.7z"/>
	</g>
	<g>
		<g>
			<g>
				<path fill="#523F30" d="M-50,123.1c-0.2,0-1-3.2-1.7-9.3c-0.7-6.1-1.4-15-0.4-26.1c0.6-5.6,1.5-11.7,3.7-18.1
					c1.1-3.2,2.5-6.4,4.5-9.5c1-1.5,2.1-3,3.2-4.5c1.2-1.4,2.4-2.9,3.7-4.3c5.3-5.5,11.8-10.4,19-14.8c7.2-4.3,15-8.1,23.6-11.2
					l0.3,3.3c-0.9-0.1-2.1-0.1-3.3,0C1.4,28.8,0.2,29-1,29.1c-2.4,0.3-4.8,0.7-7.2,1.1l-13.7,2.5L-9.2,27c7.2-3.3,15-6.1,23.2-7.5
					c7.6-1.4,15.3-1.6,22.7-0.6c0.9,0.1,1.8,0.3,2.8,0.5c0.9,0.2,1.8,0.3,2.7,0.5c1.8,0.4,3.6,0.8,5.3,1.4c3.5,1.1,6.8,2.5,10,4.1
					c6.4,3.2,12,7.3,16.9,11.8c2.5,2.3,4.7,4.6,6.8,7.1c1,1.2,2,2.5,3,3.8c0.5,0.6,0.9,1.3,1.4,1.9l0.7,1l0.1,0.2l0,0l0,0.1l0.4,0
					c0.4,0,0.8,0.1,1.2,0.1c0.8,0.1,1.6,0.2,2.3,0.4c1.5,0.3,3,0.8,4.4,1.3c2.8,1.1,5.4,2.8,7.5,4.8c2.1,2,3.7,4.4,4.9,6.8
					c0.3,0.6,0.5,1.2,0.8,1.9c0.2,0.6,0.5,1.2,0.7,1.9c0.3,1.3,0.8,2.5,1,3.7c1,4.9,1.4,9.5,1.6,13.8c0.2,4.3,0.1,8.2,0,11.7
					c-0.3,7-0.8,12.5-1.2,16.3c-0.5,3.7-0.8,5.7-1,5.7c-0.2,0-0.1-2,0.1-5.8c0.2-3.8,0.4-9.3,0.4-16.2c0-3.5-0.1-7.4-0.4-11.5
					c-0.3-4.2-0.7-8.7-1.8-13.3c-0.2-1.2-0.7-2.3-1-3.5c-0.2-0.6-0.4-1.1-0.7-1.7c-0.3-0.6-0.4-1.1-0.7-1.7c-1.1-2.2-2.6-4.2-4.5-6
					c-1.9-1.8-4.1-3.2-6.6-4.1c-1.3-0.5-2.6-0.9-3.9-1.1c-0.7-0.2-1.4-0.2-2.1-0.3c-0.3,0-0.7-0.1-1-0.1l-0.3,0c-0.2,0-0.4,0-0.5,0
					l-1.1,0l-0.6-0.9L84,52.8l-0.2-0.3l-0.6-0.9c-0.4-0.6-0.9-1.2-1.3-1.8c-0.9-1.2-1.9-2.4-2.9-3.6c-2-2.3-4.2-4.6-6.6-6.7
					c-4.7-4.3-10.2-8.2-16.3-11.2c-3-1.5-6.2-2.8-9.5-3.8c-3.3-1.1-6.8-1.8-10.3-2.3c-7-0.9-14.4-0.7-21.7,0.6
					c-7.9,1.4-15.4,4.1-22.4,7.2l-1-3.3c2.5-0.4,4.9-0.8,7.4-1.1c1.2-0.2,2.5-0.3,3.7-0.4c1.3-0.1,2.5-0.1,4,0l7.2,0.9l-7,2.4
					c-8.2,2.9-16,6.6-23.1,10.7c-7,4.2-13.3,8.8-18.5,14c-1.3,1.3-2.4,2.7-3.6,4c-1,1.4-2.1,2.8-3.1,4.2c-1.8,2.9-3.3,5.9-4.4,8.9
					c-2.2,6-3.3,12-4,17.4c-1.3,10.9-0.9,19.8-0.6,25.8C-50.2,119.8-49.8,123.1-50,123.1z"/>
			</g>
		</g>
	</g>
	<g>
		<g>
			<g>
				<path fill="#B38762" d="M81.8,313c-0.5-0.1-0.7-1.6-0.9-3.9c-0.2-2.3-0.6-5.5-0.9-9.1c-0.6-7.1-0.9-13,0.1-13.1
					c0.9-0.2,2.7,5.5,3.4,12.8c0.3,3.6,0.3,7-0.1,9.4C82.9,311.7,82.2,313.1,81.8,313z"/>
			</g>
		</g>
	</g>
	<g>
		<g>
			<g>
				<path fill="#B38762" d="M93.5,313c-1-0.1-1.4-6.6-2.7-14.6c-1.2-8-2.6-14.5-1.7-14.8c0.9-0.3,3.9,5.9,5.1,14.3
					c0.6,4.2,0.7,8,0.5,10.8C94.5,311.3,94,313,93.5,313z"/>
			</g>
		</g>
	</g>
	<g>
		<g>
			<g>
				<path fill="#B38762" d="M-0.7,313c-0.5,0.1-1.2-1.2-1.7-3.4c-0.5-2.2-0.9-5.2-0.9-8.6c0-6.7,1.4-12.1,2.3-12
					c1,0.1,1.2,5.5,1.2,12c0,3.3-0.1,6.2-0.2,8.3C0,311.5-0.2,312.9-0.7,313z"/>
			</g>
		</g>
	</g>
	<g>
		<g>
			<g>
				<path fill="#B38762" d="M-11.7,313c-0.4,0.1-1.3-1.1-1.9-3.3c-0.6-2.2-0.9-5.4-0.8-8.8c0.3-6.8,2.1-12.1,3-11.9
					c1,0.2,0.8,5.6,0.5,12.1c-0.2,3.3-0.2,6.2-0.3,8.3C-11.2,311.5-11.2,312.8-11.7,313z"/>
			</g>
		</g>
	</g>
	<g>
		<ellipse fill="#3E5770" cx="-2" cy="117.9" rx="5" ry="7.9"/>
	</g>
	<g>
		<ellipse fill="#3E5770" cx="60.1" cy="117.9" rx="5" ry="7.9"/>
	</g>
	<g>
		<g>
			<g>
				<path fill="#B38762" d="M31.4,145.4c0.2,0.1,0.1,1.2-1.1,2.5c-1.2,1.3-3.5,2.7-6.6,3.4c-1.5,0.3-3.3,0.5-5.2,0.3
					c-1.9-0.2-3.9-0.7-5.8-1.8c-1-0.6-1.9-1.3-2.7-2.3c-0.8-1-1.4-2.1-1.7-3.3c-0.4-1.2-0.5-2.5-0.4-3.7c0.1-0.6,0.1-1.2,0.2-1.8
					c0.1-0.6,0.3-1.2,0.5-1.9c0.1-0.4,0.3-0.9,0.5-1.3c0.2-0.4,0.4-0.8,0.6-1.2c0.5-0.7,1-1.5,1.7-2.1c0.6-0.7,1.3-1.1,2-1.6
					c0.7-0.4,1.4-0.8,2.2-1.1c1.5-0.6,3-1,4.4-1.1c0.7-0.1,1.4-0.2,2.1-0.2l0.3,0c0.1,0,0,0,0.1,0l0.1,0l0.2,0c0-0.1,0-0.1,0.1-0.2
					c0-0.5,0-1,0.1-1.6c0.1-1.1,0.1-2.1,0.1-3c0.1-1.9,0.2-3.5,0.4-4.9c0.3-2.7,0.6-4.2,0.9-4.2c0.3,0,0.6,1.5,0.9,4.2
					c0.1,1.3,0.2,3,0.4,4.9c0,0.9,0.1,1.9,0.1,3c0,0.5,0,1.1,0.1,1.7c0,1,0,2.1,0.1,3.1c-0.6,0-1.2,0-1.8,0c-0.3,0-0.6,0-0.9,0
					l-0.6,0c-0.6,0.1-1.2,0.1-1.8,0.3c-1.2,0.2-2.4,0.6-3.6,1.1c-0.6,0.2-1.1,0.6-1.7,0.9c-0.5,0.4-1,0.7-1.4,1.2
					c-0.5,0.4-0.8,0.9-1.1,1.4c-0.2,0.3-0.3,0.6-0.4,0.8c-0.1,0.3-0.3,0.6-0.4,0.9c-0.1,0.5-0.3,0.9-0.3,1.4c0,0.5-0.1,1-0.1,1.4
					c-0.1,0.9,0,1.8,0.2,2.6c0.4,1.6,1.4,2.9,2.8,3.8c1.3,0.9,2.9,1.4,4.5,1.7c1.5,0.3,3,0.3,4.4,0.1c2.7-0.3,4.8-1.1,6.1-1.9
					C30.6,146,31.1,145.3,31.4,145.4z"/>
			</g>
		</g>
	</g>
	<g>
		<g>
			<g>
				<path fill="#B38762" d="M56.1,160.3c0.2,0.1,0.3,0.5,0.1,1.3c-0.1,0.8-0.3,1.9-1,3.1c-0.6,1.3-1.5,2.7-2.8,4.1
					c-0.3,0.3-0.7,0.7-1,1c-0.2,0.2-0.4,0.3-0.5,0.5c-0.2,0.1-0.4,0.3-0.6,0.4c-0.4,0.3-0.9,0.6-1.3,0.9c-0.5,0.3-0.9,0.5-1.4,0.8
					c-1,0.5-2,0.8-2.9,1.2c-1,0.2-1.9,0.5-2.8,0.6c-1.8,0.3-3.5,0.2-4.9,0.1c-2.7-0.3-4.3-1.1-4.2-1.6c0.1-0.5,1.7-0.6,4.2-0.9
					c1.2-0.2,2.7-0.4,4.3-0.8c0.4-0.1,0.8-0.2,1.2-0.3c0.4-0.1,0.8-0.2,1.2-0.4c0.8-0.3,1.7-0.6,2.4-1c3.3-1.6,5.6-3.9,7.2-5.9
					c0.9-0.9,1.4-1.8,1.9-2.4C55.5,160.5,55.9,160.2,56.1,160.3z"/>
			</g>
		</g>
	</g>
	<g>
		<g>
			<g>
				<path fill="#B38762" d="M59.2,178.1c0.2,0,0.3,0.2,0.3,0.5c0.1,0.3,0,0.7-0.1,1.1c-0.2,0.9-0.9,2.1-2,2.9
					c-2.1,1.8-4.3,2.1-4.5,1.5c-0.2-0.6,1.4-1.7,3.1-3.2c0.9-0.7,1.5-1.4,2-2C58.5,178.5,58.9,178,59.2,178.1z"/>
			</g>
		</g>
	</g>
	<g>
		<g>
			<g>
				<path fill="#523F30" d="M-17.5,108c-0.2,0-0.6-0.8-1.1-2.4c-0.3-0.8-0.5-1.8-0.8-2.9c-0.1-0.6-0.3-1.2-0.5-1.8
					c-0.1-0.5-0.2-1-0.4-1.6l-0.1-0.4l0.4-0.3c0.2-0.2,0.5-0.4,0.7-0.5c0.4-0.3,0.7-0.5,1.1-0.8c0.3-0.2,0.6-0.5,1-0.7
					c0.7-0.5,1.4-1,2.1-1.4c1.5-0.9,3.2-1.9,5-2.7c1.8-0.9,3.8-1.7,5.9-2.3c1.1-0.3,2.2-0.6,3.3-0.8c0.4-0.1,1.5-0.3,2.6-0.3l0.8,0
					c0.2-0.1,0.2,0.1,0.2,0.2l0.2,0.4c0.2,0.5,0.4,1,0.6,1.5c0.9,2.3,1.7,4.5,2.5,6.7c0.4,1,0.7,1.9,1.1,2.9
					c0.2,0.3-0.2,0.3-0.4,0.3l-0.8,0.1c-0.5,0.1-1,0.2-1.5,0.2c-0.7,0.1-1.4,0.2-2.1,0.3c-0.5,0.1-1,0.2-1.4,0.3
					c-3.8,0.7-7.1,1.5-9.8,2.4c-2.7,0.9-4.8,1.8-6.2,2.6C-16.6,107.6-17.3,108.1-17.5,108c-0.2-0.1,0.2-1.1,1.5-2.3
					c1.3-1.2,3.4-2.5,6.1-3.8c2.8-1.2,6.2-2.3,10.1-3.2c0.5-0.1,1-0.2,1.5-0.3l0.7-0.1c0.1,0,0.1,0,0.1,0c0.1,0,0-0.1,0-0.1
					c-0.7-1.8-1.4-3.7-2.2-5.6l0,0c0,0,0,0-0.7,0.1c-1,0.2-2,0.4-3,0.7c-1.9,0.5-3.8,1.2-5.5,1.9c-1.7,0.7-3.3,1.5-4.8,2.3
					c-0.8,0.4-1.4,0.8-2.1,1.2c-0.3,0.2-0.7,0.4-1,0.6c-0.2,0.1-0.3,0.2-0.5,0.3c-0.1,0-0.2,0.1-0.2,0.1l-0.1,0l-0.2,0.1l-0.1,0
					l0,0.1l0,0.2c0,0.1,0,0.1,0,0.3c0.1,0.7,0.1,1.3,0.2,1.9c0.1,1.2,0.2,2.2,0.3,3C-17.2,107-17.2,108-17.5,108z"/>
			</g>
		</g>
	</g>
	<g>
		<g>
			<g>
				<path fill="#523F30" d="M70.4,108c-0.2,0-0.3-1-0.2-2.6c0-0.8,0.1-1.8,0.3-3c0.1-0.6,0.1-1.2,0.2-1.9c0-0.2,0-0.2,0-0.3l0-0.2
					l0-0.1l-0.1,0l-0.2-0.1l-0.1,0c0,0-0.1-0.1-0.2-0.1c-0.2-0.1-0.3-0.2-0.5-0.3c-0.3-0.2-0.6-0.4-1-0.6c-0.7-0.4-1.4-0.8-2.1-1.2
					c-1.5-0.8-3.1-1.6-4.8-2.3c-1.7-0.7-3.6-1.4-5.5-1.9c-1-0.3-2-0.5-3-0.7c-0.6-0.1-0.7-0.1-0.7-0.1l0,0c-0.7,1.9-1.5,3.8-2.2,5.6
					c0,0-0.1,0.1,0,0.1c0,0,0,0,0.1,0l0.7,0.1c0.5,0.1,1,0.2,1.5,0.3c3.9,0.9,7.3,2,10.1,3.2c2.8,1.2,4.9,2.6,6.1,3.8
					C70.2,106.9,70.6,107.9,70.4,108c-0.2,0.1-0.9-0.4-2.3-1.2c-1.4-0.8-3.5-1.7-6.2-2.6c-2.7-0.9-6.1-1.7-9.8-2.4
					c-0.5-0.1-0.9-0.2-1.4-0.3c-0.7-0.1-1.4-0.2-2.1-0.3c-0.5-0.1-1-0.2-1.5-0.2l-0.8-0.1c-0.2-0.1-0.7,0-0.4-0.3
					c0.4-1,0.7-1.9,1.1-2.9c0.8-2.2,1.6-4.4,2.5-6.7c0.2-0.5,0.4-1.1,0.6-1.5l0.2-0.4c0.1-0.1,0.1-0.3,0.2-0.2l0.8,0
					c1.1,0,2.2,0.2,2.6,0.3c1.1,0.2,2.2,0.5,3.3,0.8c2.1,0.6,4.1,1.4,5.9,2.3c1.8,0.9,3.5,1.8,5,2.7c0.8,0.5,1.5,1,2.1,1.4
					c0.3,0.2,0.7,0.5,1,0.7c0.4,0.3,0.7,0.6,1.1,0.8c0.2,0.2,0.5,0.4,0.7,0.5l0.4,0.3l-0.1,0.4c-0.1,0.5-0.2,1.1-0.4,1.6
					c-0.2,0.6-0.3,1.2-0.5,1.8c-0.3,1.1-0.6,2.1-0.8,2.9C71.1,107.2,70.7,108.1,70.4,108z"/>
			</g>
		</g>
	</g>
	<g>
		<g>
			<g>
				<path fill="#523F30" d="M96.8,119.5c-0.1,0-0.3-1.3-0.6-3.7c-0.3-2.4-0.7-5.9-1.5-10.4c0-0.2-0.1-0.5-0.1-0.7
					c0-0.1,0-0.2-0.1-0.2l-0.2-0.2c-0.4-0.5-0.8-0.9-1.3-1.4c-0.4-0.5-0.9-1-1.3-1.5c-0.4-0.5-0.8-1.1-1.3-1.6
					c-1.6-2.3-3.3-4.9-4.7-7.8c-1.5-2.9-2.8-6.1-4-9.6c-0.6-1.7-1.1-3.5-1.6-5.4c-0.3-0.9-0.5-1.9-0.7-2.9c-0.1-0.6-0.3-1.3-0.4-1.9
					l-0.4,0c-0.5-0.1-1.1,0-1.6-0.2c-0.5-0.1-1.1-0.2-1.6-0.3c-0.3-0.1-0.5-0.1-0.8-0.2L74,71.4c-0.5-0.2-1.1-0.3-1.6-0.5
					c-0.5-0.2-1-0.4-1.5-0.7c-0.5-0.2-1-0.5-1.5-0.8c-0.5-0.3-1-0.5-1.5-0.9c-1.9-1.2-3.7-2.8-5.2-4.6c-0.8-0.9-1.5-1.9-2.1-2.9
					c-0.3-0.5-0.6-1-0.9-1.6L59.3,59l-0.1-0.1l-0.2,0L57.7,59c-1,0.1-1.9,0.2-2.9,0.2c-1,0-1.9,0.1-2.9,0.1c-1,0-2,0-2.9,0
					c-2,0-3.9-0.1-6-0.2c-2-0.2-4-0.3-6-0.5c-4.1-0.4-8.1-1.1-12.3-1.9c-2.1-0.4-4.1-0.9-6.2-1.4L16.9,55l-1.3-0.3c0,0,0,0,0,0
					l0.6,0.6c1.3,1.3,3,2.3,4.8,3.2c1.8,0.8,3.7,1.5,5.6,1.9l7.5,1.7l-7.4,1.7c-5.9,1.4-12,1.7-17.8,0.5c-2.9-0.6-5.7-1.6-8.2-2.9
					C-0.6,60.7-1.8,59.9-3,59c-0.6-0.4-1.1-0.9-1.7-1.4l-0.4-0.4l-0.3-0.3l0-0.1c0,0,0,0-0.1,0l-0.9,0.4c-0.7,0.3-1.4,0.7-2,1
					c-1.3,0.7-2.6,1.4-3.9,2.2c-2.6,1.5-5,3.1-7.3,4.7c-4.6,3.3-8.7,6.9-11.9,10.8c-3.2,3.9-5.6,8.1-6.7,12.3
					c-1.1,4.2-1.6,8.4-2,12.1c-0.7,7.5-0.7,13.5-0.8,17.6c0,4.1,0.1,6.4-0.1,6.4c-0.2,0-0.6-2.2-0.9-6.3c-0.3-4.1-0.6-10.2-0.2-17.8
					c0.3-3.8,0.6-8,1.7-12.6c1.1-4.6,3.6-9.2,6.9-13.4c3.3-4.2,7.5-8,12.2-11.5c2.4-1.8,4.9-3.4,7.5-5c1.3-0.8,2.7-1.6,4-2.3
					c0.7-0.4,1.4-0.7,2.1-1.1l1.2-0.6c0.6-0.3,1.3-0.6,2-0.9c0.4,0.5,0.9,1,1.3,1.5l0.4,0.4l0.3,0.3c0.5,0.4,1,0.8,1.5,1.2
					c1,0.7,2.1,1.4,3.3,2c2.3,1.2,4.8,2,7.4,2.5c5.2,1,10.8,0.7,16.3-0.6l0.1,3.4c-2.3-0.5-4.3-1.2-6.4-2.1c-2-0.9-4.1-2.1-5.8-3.9
					c-0.6-0.5-2.1-2.5-2.6-4c-0.3-0.8-0.5-1.5-0.8-2.3l-0.7-2.3c2.1,0.7,4.3,1.4,6.3,2l1.1,0.3l0.8,0.2l1.5,0.4c2,0.5,4,1,6,1.4
					c4,0.8,8,1.5,12,2c2,0.3,3.9,0.4,5.9,0.6c1.9,0.1,3.9,0.2,5.8,0.2c1,0,1.9,0,2.8,0c0.9,0,1.9-0.1,2.8-0.1c0.9,0,1.8-0.1,2.8-0.2
					c1.3-0.1,2.6-0.2,3.9-0.4c0.2,0.5,0.4,1.1,0.6,1.5l0.3,0.7c0.1,0.2,0.1,0.3,0.2,0.4c0.2,0.5,0.5,0.9,0.8,1.4
					c0.6,0.9,1.2,1.8,1.8,2.6c1.3,1.6,2.8,3,4.5,4.1c0.4,0.3,0.8,0.5,1.3,0.8c0.4,0.3,0.8,0.5,1.3,0.7c0.4,0.2,0.9,0.4,1.3,0.6
					c0.5,0.2,0.9,0.3,1.4,0.5l0.7,0.2c0.2,0.1,0.5,0.1,0.7,0.2c0.5,0.1,0.9,0.2,1.4,0.3c0.5,0.1,0.9,0.1,1.4,0.2
					c0.9,0.1,1.7,0.2,2.6,0.2l0.2,1.3l0.1,0.7l0.1,0.5c0.1,0.5,0.2,0.9,0.3,1.4c0.2,0.9,0.4,1.9,0.6,2.8c0.4,1.8,0.9,3.6,1.4,5.3
					c1,3.4,2.3,6.5,3.6,9.4c1.3,2.9,2.8,5.4,4.3,7.7c0.4,0.6,0.8,1.1,1.1,1.6c0.4,0.5,0.7,1,1.1,1.5c0.4,0.5,0.8,0.9,1.1,1.4
					l0.4,0.5c0.1,0.1,0.1,0.2,0.2,0.3l0,0.3c0,0.3,0.1,0.7,0.1,1c0.5,4.6,0.7,8.1,0.7,10.6C97.1,118.2,97,119.5,96.8,119.5z"/>
			</g>
		</g>
	</g>
	<g>
		<g>
			<g>
				<path fill="#B38762" d="M-41.2,124.6c0.3,0,0.7,3.4,1.8,9.5c1.2,6.1,2.9,15,7,25.3c2,5.1,4.7,10.6,8.2,16c1.8,2.7,3.8,5.4,6,7.9
					c2.3,2.5,4.8,5.1,7.6,7.3c5.6,4.5,12.3,8.3,19.7,10.6l1.4,0.5l1.4,0.4c1,0.2,1.9,0.5,2.9,0.7c2,0.4,3.9,0.8,5.9,1.1
					c4,0.6,8.2,0.8,12.3,0.9c8.4,0,16.5-1.2,23.9-3.8c3.6-1.4,7.1-3,10.3-5c0.8-0.5,1.5-1.1,2.3-1.6c0.8-0.5,1.5-1.1,2.2-1.7
					c0.7-0.6,1.4-1.2,2.1-1.8c0.6-0.6,1.3-1.3,1.9-1.9c2.5-2.5,4.8-5.3,6.6-8.1c1-1.4,1.8-2.9,2.6-4.3c0.4-0.7,0.8-1.5,1.1-2.2
					c0.4-0.7,0.8-1.4,1.1-2.2c2.7-5.8,4.5-11.6,5.8-17c2.5-10.8,3-19.8,3.3-26c0.3-6.2,0.2-9.7,0.5-9.7c0.2,0,0.7,3.4,0.9,9.7
					c0.1,6.3-0.1,15.4-2.3,26.5c-1.1,5.5-2.8,11.5-5.5,17.7c-0.3,0.8-0.7,1.5-1.1,2.3c-0.4,0.8-0.7,1.5-1.2,2.3
					c-0.9,1.5-1.7,3.1-2.7,4.6c-1.9,3-4.2,5.9-6.9,8.7c-0.7,0.7-1.4,1.3-2,2c-0.7,0.6-1.5,1.3-2.2,1.9c-0.7,0.7-1.5,1.2-2.3,1.8
					c-0.8,0.6-1.6,1.2-2.4,1.7c-3.3,2.2-7,3.9-10.9,5.4c-7.8,2.8-16.3,4.1-25,4.1c-4.3-0.1-8.6-0.2-12.8-0.9
					c-2.1-0.2-4.2-0.7-6.2-1.1c-1-0.2-2-0.5-3-0.8L9.5,205l-1.5-0.5C0.2,202-6.8,198-12.7,193.1c-2.9-2.4-5.5-5.1-7.9-7.8
					c-2.3-2.7-4.3-5.6-6.1-8.4c-3.6-5.7-6.1-11.4-8.1-16.7c-3.9-10.6-5.3-19.7-6-25.9C-41.4,128.1-41.4,124.6-41.2,124.6z"/>
			</g>
		</g>
	</g>
	<g>
		<g>
			<g>
				<path fill="#B38762" d="M94.3,154.8c0.2-0.2,0.9,0.6,2.2,1.6c1.3,1,3.4,2.1,6,1.3c2.5-0.8,5.1-3.2,7-6.5c1-1.6,1.7-3.5,2.3-5.5
					c0.3-1,0.5-2,0.6-3.1c0.2-1.1,0.2-2.2,0.3-3.3c0.2-4.5-0.3-8.9-1.5-12.6c-1.2-3.6-3.1-6.6-5.5-7.4c-2.6-0.9-4.9-0.3-6.3,0.5
					c-1.4,0.8-2.1,1.4-2.3,1.3c-0.2-0.1,0.2-1.1,1.6-2.4c0.7-0.6,1.7-1.3,3.1-1.6c1.3-0.4,3-0.5,4.7-0.1c0.4,0.1,0.9,0.3,1.3,0.4
					c0.5,0.2,0.9,0.4,1.3,0.7c0.5,0.2,0.8,0.6,1.2,0.9c0.4,0.3,0.7,0.7,1,1.1c1.3,1.6,2.3,3.5,3,5.5c1.5,4.1,2.1,8.8,1.9,13.8
					c-0.1,10-6,19.1-13.1,20.7c-1.8,0.4-3.5,0.1-4.8-0.5c-1.3-0.6-2.1-1.5-2.7-2.2C94.4,155.9,94.2,154.9,94.3,154.8z"/>
			</g>
		</g>
	</g>
	<g>
		<g>
			<g>
				<path fill="#B38762" d="M101.8,146.2c-0.9,0-1.8-4.5-1.3-10.2c0.1-1.4,0.3-2.8,0.8-4.1c0.3-0.7,0.6-1.5,1.2-2
					c0.6-0.6,1.2-0.9,1.9-1.1c1.3-0.3,2.2,0,2.7,0.3c0.5,0.3,0.7,0.6,0.7,0.9c-0.1,0.2-0.4,0.4-0.9,0.5c-0.5,0.1-1.1,0.3-1.6,0.6
					c-0.4,0.4-0.7,0.8-0.8,1.7c-0.2,1-0.3,2.3-0.4,3.6C103.5,141.7,102.8,146.2,101.8,146.2z"/>
			</g>
		</g>
	</g>
	<g>
		<g>
			<g>
				<path fill="#B38762" d="M-43.5,147.3c-0.5,0-0.8-1-1.2-2.5c-0.3-1.5-0.6-3.6-1.1-5.6c-0.3-1-0.6-1.8-1-2.3
					c-0.2-0.2-0.2-0.3-0.2-0.3c-0.1-0.1-0.2-0.1-0.4-0.1c-0.5,0.1-1,0.5-1.4,0.7c-0.4,0.2-0.7,0.3-0.9,0.2c-0.2-0.1-0.3-0.4-0.2-1
					c0.1-0.5,0.3-1.2,1.2-2c0.4-0.4,1.1-0.8,2-0.8c0.8,0,1.8,0.5,2.3,1c1.1,1,1.7,2.3,2.1,3.6c0.7,2.6,0.5,4.9,0.2,6.5
					C-42.5,146.3-43,147.3-43.5,147.3z"/>
			</g>
		</g>
	</g>
	<g>
		<g>
			<g>
				<path fill="#B38762" d="M-33.6,159.6c0,0.2-0.8,0.6-2.4,0.7c-1.6,0.2-4,0.2-6.8-0.8c-2.8-0.9-5.9-2.9-8.4-5.8
					c-2.5-3-4.5-6.8-5.6-11.1c-1.1-4.3-1.3-8.6-0.2-12.5c0.1-0.5,0.3-1,0.5-1.4c0.2-0.5,0.4-0.9,0.7-1.4l0.4-0.6
					c0.1-0.2,0.3-0.4,0.4-0.6c0.3-0.4,0.6-0.7,0.9-1.1c1.3-1.3,2.8-2.3,4.4-2.7c1.6-0.4,3.1-0.3,4.2,0c1.2,0.3,2.1,0.8,2.8,1.2
					c1.4,0.9,1.9,1.7,1.7,1.9c-0.2,0.2-0.9-0.2-2.3-0.6c-1.4-0.4-3.5-1-5.6-0.1c-1.1,0.4-2.1,1.2-3,2.3c-0.2,0.3-0.4,0.6-0.6,0.9
					l-0.3,0.5l-0.2,0.5c-0.2,0.3-0.3,0.7-0.4,1c-0.1,0.4-0.2,0.7-0.3,1.1c-0.7,3.2-0.5,7,0.5,10.8c1,3.8,2.7,7.3,4.7,9.9
					c2.1,2.7,4.6,4.5,6.9,5.6c2.3,1.1,4.4,1.5,5.9,1.7C-34.5,159.2-33.6,159.3-33.6,159.6z"/>
			</g>
		</g>
	</g>
	<g>
		<g>
			<g>
				<path fill="#497A75" d="M46.8,224.2c0-0.2,0.9-0.7,2.7-0.8c0.9,0,2.2,0,3.5,0.7c0.7,0.4,1.3,0.9,1.8,1.7c0.5,0.7,0.8,1.6,1,2.5
					c0.2,0.9,0.2,1.8,0.1,2.8c-0.1,1-0.5,2.1-1,3c-1,2-2.8,3.5-4.8,4.6c-2,1.1-4.2,1.9-6.5,2.4c-2.3,0.5-4.7,0.8-7.2,0.9
					c-5,0.3-9.9-0.4-14-2.4c-2-1-3.8-2.3-5.1-4c-1.3-1.6-2.1-3.6-2.2-5.4c-0.1-0.9,0.1-1.8,0.3-2.6c0.1-0.4,0.3-0.8,0.4-1.1
					c0.2-0.4,0.4-0.7,0.6-1c0.5-0.6,1.1-1.1,1.7-1.3c0.6-0.3,1.2-0.4,1.7-0.4c1,0,1.7,0.2,2.2,0.4c0.5,0.2,0.7,0.4,0.6,0.5
					c-0.1,0.3-1.1,0.1-2.6,0.4c-0.7,0.2-1.5,0.6-2,1.5c-0.5,0.8-0.6,2.1-0.5,3.4c0.2,1.3,0.9,2.6,1.9,3.8c1.1,1.2,2.6,2.2,4.3,2.9
					c3.5,1.5,7.8,2.1,12.4,1.8c4.6-0.2,9-1,12.3-2.7c1.6-0.8,3-1.9,3.8-3.2c0.8-1.3,1-2.7,0.9-4c-0.1-0.7-0.2-1.2-0.4-1.7
					c-0.2-0.5-0.6-0.8-1-1.2c-0.8-0.6-1.8-0.9-2.6-1C47.8,224.5,46.8,224.5,46.8,224.2z"/>
			</g>
		</g>
	</g>
	<g>
		<g>
			<g>
				<path fill="#497A75" d="M7.6,313c-1,0-2-10.8-2.3-24.2c-0.1-3.3-0.1-6.5-0.1-9.4c0-1.4,0-2.8,0.1-4.1c0-0.6,0-1.3,0.1-1.9
					c0-0.3,0-0.6,0-0.9c0-0.4,0-0.3,0-0.4c0,0-0.4-0.6-0.6-1c-0.3-0.4-0.5-0.8-0.8-1.2c-0.5-0.8-0.9-1.4-1.2-2
					c-0.6-1.1-0.8-1.8-0.7-2s0.8,0.3,1.7,1.1c0.5,0.4,1,1,1.6,1.6c0.3,0.3,0.6,0.7,1,1c0.4,0.4,0.6,0.6,1.3,1.5
					c0.1,1.2,0.2,2.6,0.3,4c0.1,1.3,0.2,2.7,0.2,4.1c0.1,2.9,0.3,6,0.3,9.4C9.1,302.1,8.6,313,7.6,313z"/>
			</g>
		</g>
	</g>
	<g>
		<g>
			<g>
				
					<ellipse transform="matrix(-0.3917 0.9201 -0.9201 -0.3917 257.8778 363.897)" fill="#497A75" cx="8.7" cy="267.2" rx="4.9" ry="1.8"/>
			</g>
		</g>
	</g>
	<g>
		<g>
			<g>
				<path fill="#497A75" d="M70.1,313c-1,0-2-10.7-2.3-23.9c-0.1-2.5-0.1-5-0.1-7.3c0-1.1,0-2.3,0-3.3c0-0.5,0-1.1,0-1.6
					c0-0.3,0-0.5,0-0.8l0-0.1l0,0l0,0l0-0.1l0-0.1l-0.3-0.4c-0.2-0.3-0.5-0.6-0.7-0.9c-0.4-0.6-0.8-1.1-1.2-1.6
					c-0.8-1-1.4-1.9-1.9-2.6c-1-1.5-1.5-2.4-1.2-2.6c0.2-0.2,1.1,0.4,2.5,1.6c0.7,0.6,1.5,1.3,2.4,2.2c0.4,0.4,0.9,0.9,1.4,1.4
					c0.2,0.2,0.5,0.5,0.8,0.8c0.1,0.1,0.3,0.3,0.4,0.4c0.2,0.3,0.5,0.5,0.7,0.8c0,0.4,0,0.8,0.1,1.3c0,0.2,0,0.5,0.1,0.8
					c0,0.5,0.1,1,0.1,1.6c0.1,1.1,0.1,2.2,0.2,3.3c0.1,2.3,0.2,4.7,0.2,7.3C71.6,302.3,71,313,70.1,313z"/>
			</g>
		</g>
	</g>
	<g>
		<g>
			<g>
				
					<ellipse transform="matrix(-0.3373 0.9414 -0.9414 -0.3373 349.4541 294.1906)" fill="#497A75" cx="71.2" cy="270.1" rx="5.7" ry="1.8"/>
			</g>
		</g>
	</g>
	<g>
		<g>
			<g>
				<path fill="#497A75" d="M69.4,281.5c0.1,0,0.3,0.3,0.6,1c0.3,0.6,0.6,1.6,1.1,2.7c0.3,0.5,0.6,1,1.1,1.3
					c0.5,0.2,1.2,0.3,2.1,0.3c0.9-0.1,1.8-0.2,2.9-0.4c0.5-0.1,1.1-0.2,1.6-0.3c0.5-0.1,1.1-0.2,1.6-0.4c4.3-1.2,9.4-3.7,14.1-7.3
					c0.6-0.5,1.2-0.9,1.7-1.4c0.3-0.2,0.5-0.5,0.7-0.8c0.1-0.1,0.2-0.2,0.3-0.4l0.1-0.2c0,0,0,0,0-0.1c0-0.1,0.1-0.5-0.2-1.1
					c-0.2-0.6-0.6-1.2-1.1-1.9c-1.8-2.7-4.2-5.3-6.3-8.4c-2.1-3.2-3.6-6.4-5.2-9.4c-1.5-3-3-5.9-4.7-8.4c-1.6-2.6-3.4-4.8-5.2-6.7
					c-1.9-1.8-4-3.2-5.9-4.3c-4-2.2-7.6-3.4-10.1-4.1c-2.5-0.7-4-0.9-3.9-1.2c0-0.2,1.5-0.4,4.2-0.1c2.7,0.3,6.6,1.1,11,3.2
					c2.2,1.1,4.6,2.4,6.8,4.4c2.2,2,4.2,4.4,6,7c1.8,2.7,3.4,5.6,5,8.6c1.6,3,3.1,6.2,5,9c2,2.9,4.3,5.5,6.3,8.5
					c0.5,0.8,1,1.6,1.3,2.5c0.2,0.5,0.3,1,0.4,1.6c0.1,0.6,0,1.4-0.3,2.1c-0.1,0.2-0.2,0.4-0.3,0.5l-0.2,0.3
					c-0.2,0.2-0.3,0.4-0.5,0.6c-0.3,0.3-0.6,0.7-1,1c-0.6,0.6-1.3,1.1-2,1.6c-2.6,1.9-5.3,3.4-7.9,4.6c-2.6,1.2-5.2,2.1-7.6,2.6
					c-0.6,0.1-1.2,0.2-1.8,0.3c-0.6,0.1-1.1,0.1-1.7,0.2c-1.1,0.1-2.1,0.2-3.1,0.1c-1,0-2.1-0.2-3-0.8c-0.9-0.6-1.3-1.5-1.5-2.2
					c-0.4-1.4-0.5-2.4-0.6-3.1C69.2,281.9,69.2,281.5,69.4,281.5z"/>
			</g>
		</g>
	</g>
	<g>
		<g>
			<g>
				<path fill="#497A75" d="M16.4,229.3c0,0.1-0.3,0.3-1,0.4c-0.6,0.2-1.6,0.3-2.7,0.7c-2.3,0.7-5.5,2.1-8.8,4.9
					c-0.4,0.4-0.8,0.7-1.2,1.1c-0.4,0.4-0.8,0.8-1.2,1.2c-0.8,0.8-1.6,1.8-2.4,2.7c-1.6,2-3.1,4.2-4.4,6.7c-1.3,2.5-2.4,5.3-3.1,8.2
					c-0.2,0.7-0.2,1.5-0.4,2.2c-0.1,0.8-0.2,1.7-0.3,2.6c-0.3,1.7-0.7,3.4-1.2,5.1c-1.1,3.4-2.5,6.5-3.8,9.4
					c-1.3,2.9-2.4,5.7-3.2,8.4c-0.1,0.3-0.2,0.7-0.2,0.9c-0.1,0.2,0,0.4,0,0.6c0.1,0.3,0.2,0.6,0.5,1c0.6,0.6,1.8,1.1,2.9,1.4
					c2.3,0.6,4.7,0.9,6.9,1c4.4,0.2,8,0.1,10.5,0c2.5,0,3.9,0,3.9,0.2c0,0.2-1.3,0.7-3.8,1.1c-2.5,0.5-6.1,1-10.6,1.1
					c-2.3,0-4.8,0-7.6-0.6c-1.4-0.4-2.9-0.8-4.3-2c-0.7-0.6-1.3-1.6-1.5-2.7c-0.1-0.5-0.1-1.1,0-1.5c0.1-0.5,0.2-0.9,0.3-1.3
					c0.7-3,1.9-6,3.2-8.9c1.3-3,2.6-6,3.6-9.1c0.5-1.6,0.9-3.1,1.1-4.7c0.2-0.8,0.2-1.5,0.3-2.3c0.2-0.9,0.2-1.8,0.5-2.6
					c0.8-3.3,2.1-6.3,3.6-9c1.5-2.7,3.2-5,5-7.1c0.9-1,1.8-2,2.8-2.8c0.5-0.4,0.9-0.9,1.4-1.2c0.5-0.4,1-0.7,1.4-1.1
					c3.8-2.8,7.5-4,10-4.3c1.3-0.3,2.3-0.1,3-0.1C16,229.1,16.4,229.2,16.4,229.3z"/>
			</g>
		</g>
	</g>
	<g>
		<g>
			<g>
				<path fill="#B38762" d="M44.9,205.7c0.4,0,0.6,2.1,1.2,5.8c0.3,1.8,0.7,4,1.1,6.6c0.5,2.6,1,5.6,1.5,8.8
					c-0.1,0.3-0.1,0.5-0.2,0.8l-0.1,0.3l-0.1,0.2c-0.1,0.3-0.3,0.6-0.4,0.9c-0.3,0.6-0.7,1.2-1.2,1.7c-0.9,1.1-2,2-3.3,2.8
					c-1.3,0.7-2.8,1.1-4.2,1.3c-0.7,0.1-1.5,0.2-2.2,0.1c-0.7,0-1.5,0-2.2-0.1c-2.7-0.2-5.2-1-7.6-2c-1.2-0.5-2.3-1.1-3.3-1.8
					c-0.5-0.3-1-0.7-1.5-1.1c-0.2-0.2-0.5-0.4-0.7-0.6l-0.5-0.5c-0.2-0.2-0.4-0.4-0.5-0.5l-0.5-0.6c0-0.2,0.1-0.5,0.1-0.7
					c0-0.2,0.1-0.5,0.2-0.7l0.2-0.6c0.2-0.5,0.2-1,0.3-1.4c0.2-1,0.4-1.9,0.5-2.8c0.3-1.9,0.5-3.6,0.6-5.2
					c0.5-6.5,0.6-10.5,1.1-10.6c0.5,0,1.3,4,1.4,10.7c0,1.7,0,3.5-0.2,5.5c-0.1,1-0.2,2-0.4,3.1c-0.1,0.5-0.2,1.1-0.3,1.6
					c0,0.2,0,0.2,0,0.2l0,0c0,0,0,0,0,0.1l0,0c0,0,0,0,0.1,0.1c0.2,0.2,0.4,0.3,0.6,0.5c0.4,0.3,0.8,0.6,1.3,0.9
					c0.9,0.6,1.8,1,2.8,1.5c2,0.9,4.2,1.4,6.5,1.6c2.5,0.2,4.8,0,6.7-0.9c0.9-0.5,1.7-1.1,2.4-1.9c0.3-0.4,0.6-0.8,0.9-1.2
					c0.1-0.2,0.2-0.4,0.3-0.6c0-0.1,0.1-0.1,0.1-0.2c0-0.1,0-0.1,0-0.1c0,0,0,0,0,0c-0.2-1.4-0.3-2.8-0.5-4.1
					c-0.2-1.4-0.3-2.8-0.4-4.1c-0.2-2.6-0.3-4.8-0.4-6.7C44.2,207.9,44.6,205.7,44.9,205.7z"/>
			</g>
		</g>
	</g>
</g>
</svg>
