<?xml version="1.0" encoding="utf-8"?>
<!-- Generator: Adobe Illustrator 18.1.1, SVG Export Plug-In . SVG Version: 6.00 Build 0)  -->
<!DOCTYPE svg PUBLIC "-//W3C//DTD SVG 1.1//EN" "http://www.w3.org/Graphics/SVG/1.1/DTD/svg11.dtd">
<svg version="1.1" id="Layer_1" xmlns="http://www.w3.org/2000/svg" xmlns:xlink="http://www.w3.org/1999/xlink" x="0px" y="0px"
	 width="300px" height="300px" viewBox="0 0 300 300" enable-background="new 0 0 300 300" xml:space="preserve">
<path fill="#3C5A99" d="M291,24.4v250c0,8.6-6.9,15.5-15.5,15.5h-71.6V181.1h36.5l5.5-42.4h-42v-27.1c0-12.3,3.4-20.7,21-20.7
	l22.5,0V53c-3.9-0.5-17.2-1.7-32.7-1.7c-32.4,0-54.6,19.8-54.6,56.1v31.3h-36.6v42.4H160V290H25.4c-8.6,0-15.5-6.9-15.5-15.5v-250
	c0-8.6,6.9-15.5,15.5-15.5h250C284,8.9,291,15.9,291,24.4z"/>
</svg>
