<?xml version="1.0" encoding="utf-8"?>
<!-- Generator: Adobe Illustrator 18.1.1, SVG Export Plug-In . SVG Version: 6.00 Build 0)  -->
<!DOCTYPE svg PUBLIC "-//W3C//DTD SVG 1.1//EN" "http://www.w3.org/Graphics/SVG/1.1/DTD/svg11.dtd">
<svg version="1.1" id="Layer_1" xmlns="http://www.w3.org/2000/svg" xmlns:xlink="http://www.w3.org/1999/xlink" x="0px" y="0px"
	 width="300px" height="300px" viewBox="0 0 300 300" enable-background="new 0 0 300 300" xml:space="preserve">
<g>
	<path fill="#333333" d="M232.8,59.9l-73.1-42.2c0,0-0.1,0-0.1,0c-5.3-3-13.9-3-19.3,0c0,0-0.1,0-0.1,0L67.2,59.9
		c-5.3,3.1-9.7,10.6-9.7,16.8v84.4c0,6.2,4.4,13.7,9.7,16.8l73.1,42.2c0,0,0.1,0,0.1,0.1c5.3,3,13.9,3,19.2,0c0,0,0.1,0,0.1-0.1
		l73.1-42.2c5.3-3.1,9.7-10.6,9.7-16.8V76.7C242.5,70.6,238.1,63,232.8,59.9z M142.2,203.2l-69-39.9V83.6l69,39.9V203.2z M81,70.1
		l69-39.9l69,39.9l-69,39.9L81,70.1z M226.8,163.3l-69,39.9v-79.7l69-39.9V163.3z"/>
	<g>
		<path fill="#333333" d="M162.4,231.3l-9.9,51.3c-0.5,2.7-4.4,2.7-4.9,0l-9.9-51.3c3.7,1.5,8,2.4,12.4,2.4
			C154.4,233.7,158.7,232.8,162.4,231.3z"/>
		<path fill="#333333" d="M190.4,215.4l-7.7,41.4c-0.5,2.7-4.4,2.7-4.9,0L172,226L190.4,215.4z"/>
		<path fill="#333333" d="M215,201.1l-5.9,32.6c-0.5,2.7-4.4,2.7-4.9,0l-4.3-23.9L215,201.1z"/>
		<path fill="#333333" d="M235.9,189l-4.2,24.7c-0.5,2.8-4.5,2.8-4.9,0l-3-17.7L235.9,189z"/>
		<path fill="#333333" d="M127.1,225.4l-5.8,31.3c-0.5,2.7-4.4,2.7-4.9,0l-7.9-42L127.1,225.4z"/>
		<path fill="#333333" d="M99.2,209.3l-4.4,24.4c-0.5,2.7-4.4,2.7-4.9,0l-6-33.3L99.2,209.3z"/>
		<path fill="#333333" d="M76.2,196.1l-3,17.7c-0.5,2.8-4.5,2.8-4.9,0L64.1,189L76.2,196.1z"/>
	</g>
</g>
</svg>
