<?xml version="1.0" encoding="utf-8"?>
<!-- Generator: Adobe Illustrator 18.1.1, SVG Export Plug-In . SVG Version: 6.00 Build 0)  -->
<!DOCTYPE svg PUBLIC "-//W3C//DTD SVG 1.1//EN" "http://www.w3.org/Graphics/SVG/1.1/DTD/svg11.dtd">
<svg version="1.1" id="Layer_1" xmlns="http://www.w3.org/2000/svg" xmlns:xlink="http://www.w3.org/1999/xlink" x="0px" y="0px"
	 width="184.2px" height="67.1px" viewBox="-57 117.9 184.2 67.1" enable-background="new -57 117.9 184.2 67.1"
	 xml:space="preserve">
<g>
	<g>
		<path fill="#C6C658" d="M-37.6,134.4c0.3,0.3,0.4,0.8,0.4,1.2c0,1.1-0.9,1.9-2,1.9c-0.6,0-1.1-0.2-1.6-0.7
			c-1.1-1.2-2.6-1.9-4.1-1.9c-3.6,0-6.3,2.8-6.3,6.6c0,3.8,2.6,6.6,6.3,6.6c1.5,0,3-0.7,4.1-1.9c0.4-0.4,1-0.7,1.6-0.7
			c1.1,0,1.9,0.8,1.9,1.9c0,0.4-0.1,0.8-0.4,1.2c-1.5,1.8-3.8,3.3-7.3,3.3c-6,0-10.6-4.2-10.6-10.3c0-6.1,4.6-10.3,10.6-10.3
			C-41.5,131.1-39.2,132.5-37.6,134.4z"/>
		<path fill="#C6C658" d="M-28.5,151.7c-4.8,0-7.6-3.5-7.6-7.6c0-4.1,2.9-7.6,7.6-7.6c4.8,0,7.7,3.5,7.7,7.6
			C-20.8,148.3-23.7,151.7-28.5,151.7z M-28.5,139.9c-2.4,0-3.7,1.9-3.7,4.2c0,2.3,1.3,4.2,3.7,4.2c2.4,0,3.7-1.9,3.7-4.2
			C-24.7,141.9-26.1,139.9-28.5,139.9z"/>
		<path fill="#C6C658" d="M-12.3,140.3c-1.2,0.2-2.3,0.6-3,1.5v7.9c0,1-0.8,1.9-1.9,1.9h-0.1c-1,0-1.9-0.8-1.9-1.9v-11.1
			c0-1,0.8-1.9,1.9-1.9c1,0,1.9,0.8,1.9,1.9v0.3c0.7-1,1.7-2.1,3.1-2.1c1.1,0,1.7,0.7,1.7,1.6C-10.4,139.5-11.2,140.1-12.3,140.3z"
			/>
		<path fill="#C6C658" d="M4.5,139.3l-5.8,14.5c-1,2.5-2.8,3.5-5,3.5c-1.3,0-2.3-0.7-2.3-1.7c0-0.9,0.7-1.7,1.8-1.7
			c0.2,0,0.3,0,0.5,0c0.6-0.1,1.2-0.4,1.4-1l0.5-1.2l-4.9-12.4c-0.1-0.2-0.1-0.4-0.1-0.6c0-0.9,0.7-1.9,1.9-1.9
			c0.7,0,1.5,0.5,1.8,1.3l3.4,9l3.4-9c0.3-0.7,1-1.3,1.8-1.3c1.1,0,1.9,0.9,1.9,1.9C4.6,138.8,4.6,139.1,4.5,139.3z"/>
	</g>
	<g>
		<path fill="#353535" d="M17.7,151.7c-2.9,0-6.5-1-7.6-2.6c-0.2-0.3-0.3-0.7-0.3-1c0-1.1,1-2,2-2c0.4,0,0.8,0.1,1.1,0.3
			c1.3,0.9,3.1,1.6,5,1.6c2.3,0,3.5-1.1,3.5-2.2c0-3.5-11.5-1.1-11.5-8.6c0-3.3,2.9-6.1,7.6-6.1c2.3,0,5.8,0.7,6.9,2.2
			c0.2,0.3,0.4,0.7,0.4,1c0,1.1-1.1,1.9-2.1,1.9c-0.4,0-0.7-0.1-1.1-0.3c-1.4-0.8-2.9-1.1-4.4-1.1c-1.8,0-2.8,0.8-2.8,2
			c0,3.2,11.5,1,11.5,8.5C25.7,149,23.1,151.7,17.7,151.7z"/>
		<path fill="#353535" d="M31.6,133.1c0,1.3-1,2.3-2.3,2.3c-1.2,0-2.3-1-2.3-2.3c0-1.3,1-2.2,2.3-2.2
			C30.6,130.8,31.6,131.8,31.6,133.1z M29.3,151.6c-1,0-1.9-0.8-1.9-1.9v-11.1c0-1,0.8-1.9,1.9-1.9c1,0,1.9,0.8,1.9,1.9v11.1
			C31.3,150.7,30.4,151.6,29.3,151.6z"/>
		<path fill="#353535" d="M53.8,151.6c-1,0-1.9-0.8-1.9-1.9v-7.4c0-1.3-0.6-2.3-2.2-2.3c-1.3,0-2.5,0.9-3,1.7v8.1
			c0,1-0.8,1.9-1.9,1.9c-1,0-1.9-0.8-1.9-1.9v-7.4c0-1.3-0.6-2.3-2.2-2.3c-1.3,0-2.4,0.9-3,1.7v8c0,1-0.8,1.9-1.9,1.9
			c-1,0-1.9-0.8-1.9-1.9v-11.1c0-1,0.8-1.9,1.9-1.9c1,0,1.9,0.8,1.9,1.9v0.2c0.6-0.9,2.5-2.2,4.7-2.2c2.1,0,3.5,1,4,2.6
			c0.8-1.3,2.8-2.6,5-2.6c2.7,0,4.3,1.4,4.3,4.4v8.8C55.8,150.7,54.9,151.6,53.8,151.6z"/>
		<path fill="#353535" d="M77.2,151.6c-1,0-1.9-0.8-1.9-1.9v-7.4c0-1.3-0.6-2.3-2.2-2.3c-1.3,0-2.5,0.9-3,1.7v8.1
			c0,1-0.8,1.9-1.9,1.9c-1,0-1.9-0.8-1.9-1.9v-7.4c0-1.3-0.6-2.3-2.2-2.3c-1.3,0-2.4,0.9-3,1.7v8c0,1-0.8,1.9-1.9,1.9
			c-1,0-1.9-0.8-1.9-1.9v-11.1c0-1,0.8-1.9,1.9-1.9c1,0,1.9,0.8,1.9,1.9v0.2c0.6-0.9,2.5-2.2,4.7-2.2c2.1,0,3.5,1,4,2.6
			c0.8-1.3,2.8-2.6,5-2.6c2.7,0,4.3,1.4,4.3,4.4v8.8C79.2,150.7,78.3,151.6,77.2,151.6z"/>
		<path fill="#353535" d="M88.6,151.7c-4.8,0-7.6-3.5-7.6-7.6c0-4.1,2.9-7.6,7.6-7.6c4.8,0,7.7,3.5,7.7,7.6
			C96.2,148.3,93.4,151.7,88.6,151.7z M88.6,139.9c-2.4,0-3.7,1.9-3.7,4.2c0,2.3,1.3,4.2,3.7,4.2c2.4,0,3.7-1.9,3.7-4.2
			C92.3,141.9,90.9,139.9,88.6,139.9z"/>
		<path fill="#353535" d="M109.7,151.6c-1,0-1.9-0.8-1.9-1.9v-7c0-2-1-2.7-2.7-2.7c-1.5,0-2.7,0.8-3.3,1.7v8c0,1-0.8,1.9-1.9,1.9
			c-1,0-1.9-0.8-1.9-1.9v-11.1c0-1,0.8-1.9,1.9-1.9c1,0,1.9,0.8,1.9,1.9v0.2c0.9-1.1,2.7-2.2,5.1-2.2c3.2,0,4.7,1.8,4.7,4.6v8.5
			C111.6,150.7,110.7,151.6,109.7,151.6z"/>
		<path fill="#353535" d="M119.5,151.7c-1.9,0-4.9-0.6-5.8-1.9c-0.2-0.2-0.3-0.5-0.3-0.8c0-0.9,0.8-1.6,1.6-1.6
			c0.3,0,0.5,0.1,0.8,0.2c1.1,0.7,2.6,1.2,3.9,1.2c1.6,0,2.4-0.7,2.4-1.6c0-2.4-8.6-0.5-8.6-6.1c0-2.4,2.1-4.6,5.9-4.6
			c1.9,0,4.5,0.6,5.3,1.8c0.2,0.2,0.2,0.5,0.2,0.7c0,0.8-0.7,1.4-1.5,1.4c-0.2,0-0.5-0.1-0.7-0.2c-0.9-0.5-2.1-0.9-3.3-0.9
			c-1.4,0-2.3,0.6-2.3,1.4c0,2.2,8.6,0.4,8.6,6.2C125.8,149.7,123.5,151.7,119.5,151.7z"/>
	</g>
</g>
<text transform="matrix(1 0 0 1 -13.9932 171.2477)" fill="#BCBCBC" font-family="'ProximaNovaSoft-Semibold'" font-size="14.6682">web-developer</text>
</svg>
