<?xml version="1.0" encoding="utf-8"?>
<!-- Generator: Adobe Illustrator 18.1.1, SVG Export Plug-In . SVG Version: 6.00 Build 0)  -->
<!DOCTYPE svg PUBLIC "-//W3C//DTD SVG 1.1//EN" "http://www.w3.org/Graphics/SVG/1.1/DTD/svg11.dtd">
<svg version="1.1" id="Capa_1" xmlns="http://www.w3.org/2000/svg" xmlns:xlink="http://www.w3.org/1999/xlink" x="0px" y="0px"
	 width="66.5px" height="91.2px" viewBox="-116 105.8 66.5 91.2" enable-background="new -116 105.8 66.5 91.2"
	 xml:space="preserve">
<g>
	<g>
		<path fill="#F93030" d="M-83.2,143.6c-1.1,0-1.8,0.1-2.3,0.2v14.5c0.4,0.1,1.1,0.1,1.7,0.1c4.5,0,7.5-2.5,7.5-7.8
			C-76.2,146.1-78.9,143.6-83.2,143.6z"/>
		<path fill="#F93030" d="M-102.6,143.6c-1,0-1.7,0.1-2.1,0.2v6.5c0.4,0.1,1,0.1,1.7,0.1c2.7,0,4.3-1.3,4.3-3.6
			C-98.7,144.8-100.1,143.6-102.6,143.6z"/>
		<path fill="#F93030" d="M-69.4,105.8H-116V197h66.5v-64.2l-23.6-16.3L-69.4,105.8z M-95.7,152c-1.7,1.6-4.2,2.3-7.2,2.3
			c-0.7,0-1.2,0-1.7-0.1v7.9h-5v-21.9c1.5-0.3,3.7-0.5,6.8-0.5c3.1,0,5.3,0.6,6.8,1.8c1.4,1.1,2.4,3,2.4,5.1
			C-93.7,148.9-94.4,150.7-95.7,152z M-67.6,140h13.5v4.1h-8.5v5.1h8v4.1h-8v8.9h-5C-67.6,162.1-67.6,140-67.6,140z M-70.9,150.5
			c0,4.2-1.5,7.2-3.7,9c-2.3,1.9-5.9,2.9-10.2,2.9c-2.6,0-4.4-0.2-5.7-0.3v-21.8c1.8-0.3,4.2-0.5,6.8-0.5c4.2,0,6.9,0.8,9.1,2.4
			C-72.4,143.9-70.9,146.6-70.9,150.5z"/>
		<polygon fill="#F93030" points="-64.7,105.8 -67.8,114.5 -49.5,127.1 		"/>
	</g>
</g>
</svg>
