<?xml version="1.0" encoding="utf-8"?>
<!-- Generator: Adobe Illustrator 18.1.1, SVG Export Plug-In . SVG Version: 6.00 Build 0)  -->
<!DOCTYPE svg PUBLIC "-//W3C//DTD SVG 1.1//EN" "http://www.w3.org/Graphics/SVG/1.1/DTD/svg11.dtd">
<svg version="1.1" id="Layer_1" xmlns="http://www.w3.org/2000/svg" xmlns:xlink="http://www.w3.org/1999/xlink" x="0px" y="0px"
	 width="300px" height="300px" viewBox="0 0 300 300" enable-background="new 0 0 300 300" xml:space="preserve">
<g>
	<g>
		<path fill="#2AA9E0" d="M291.7,62.1c-10.4,4.6-21.6,7.8-33.4,9.2c12-7.2,21.2-18.6,25.6-32.1c-11.3,6.7-23.7,11.5-36.9,14.1
			c-10.6-11.3-25.7-18.4-42.4-18.4c-32.1,0-58.1,26-58.1,58.1c0,4.6,0.5,9,1.5,13.2C99.6,103.8,56.7,80.7,28,45.5
			c-5,8.6-7.9,18.6-7.9,29.2c0,20.2,10.3,38,25.9,48.4c-9.5-0.3-18.5-2.9-26.3-7.3v0.7c0,28.2,20,51.7,46.6,57c-4.9,1.3-10,2-15.3,2
			c-3.8,0-7.4-0.4-10.9-1.1c7.4,23.1,28.9,39.9,54.3,40.4c-19.9,15.6-45,24.8-72.2,24.8c-4.7,0-9.3-0.3-13.9-0.8
			c25.7,16.5,56.3,26.2,89.1,26.2c107,0,165.4-88.6,165.4-165.4l-0.2-7.5C274.1,84,283.9,73.8,291.7,62.1z"/>
	</g>
</g>
</svg>
